<svg xmlns="http://www.w3.org/2000/svg" id="svg1" version="1.1" viewBox="-166 -118 613.2149 799">
  <path id="Anhui" fill="#ff6347" fill-opacity="1" fill-rule="evenodd" stroke="#ff6347" stroke-linecap="round" stroke-linejoin="round" stroke-opacity="0" stroke-width="0" d="m-86 219-4-8-1 1-4-2 1-2-5-1 1-4-11 2-3 2-1-6-4 2-1-3-4 3v-2l-4-2 2-1-2-2v-3l1-1 1 2 1-4-2 1-1-4-2 2v-17l1-2 3 1-3-4v-4l2-1-1-2-5-1-2-5-14-2v-4l-3-1-9 1v-3l-3-3-4-1v-2l2-1-1-3 3 1 3-2-2-1-1-8h-2v-7l3-1 1-3 3 1 5 5v2l6 3h15l5-6 2 2 5-4 5 1 1-11 4-1v-7l2-1-1-6h2l2-6h-2l-2-4 1-1-4-1 2-4-2-4 5-8-1-3 3-3 4 2 3-8 10-1 2 2 2-2 4 1 1-3 9-1-5-11V25l-5-6 3-2 4 2v-7l3-4-1-4h-9l-2-3 3-3-1-3 2-7 2-1v-5h2l-1-2 6-1 1-5 2 1 9-3 4 2 1-2 9 7 1 4h3v-4h2l4 4h4l4 3 2 3-3 8 1 2 9 6 1 6-3-1 2 1 2 7 3-1v2l5 3 3 7h2l3-3 4 1v-2l4 1 7-7 2 1 2-2 6-1 2-3h4V8l3-3 8-1V2h4v-3l2-1 7 3 2-1 1-12-6-5v-3l-9-15 1-5 3-3-3-7 6-8-2-2-8-2-5 4h-2l-1-3-4 3-7-1 2-3-1-3-9-4-1-3h-2l-1-2-7-2 1-2-8-10 6-7-2-5 1-6h2l4 4 5-9 4 1 8-6 7-2v4l6 2 2 7 5 5 2-1 7 7h-3v2l19 2 6 3 7 10h5l6-3 7 3-1 3 3 2v3l-2 2v7l7 4v2h4l-3 12 12 6 1 4h4l-1 3 13 3 3-3 4 2 1-2 5-1 8 10 13-6 3 4v4l4 4 5-2v-5h2l6 7v8l4 7h7l-2 20-3 3 2 1v2l2 1 10-4 8 3 3-3 3 2 3-6 1 2 7 2 5-3 6-1 5 3h5l-4 4 2 1v8l-8 7v22l-7-3-4 8-1 6 2 2v3l-5 4-3-1 1 3h2l-1 6-2 3-4 2v4l1 2 4-1 2 3v5l6 4v2h4l10-5 2-2-1-2 2-3 5 3 2 6-2 8 1 3h-2 3v2l-2 2h3l3 12 2 2 5 1-10 5 2 12 5-1v2h2l-1 9 5 4 2-2 2 1 1 7 5 1 5-5 1 3 3 1h12l8-4 11 4 5-4-3-4v-12l9-1v-8h4v-5l6-3 1 3 5 1 1-2 9-2 3 5-2 1v2h4l1 5 6 8h11v5l3 8v15l2 5-1 5h-3l-1-4-1 1-1 4-2 1 1 3-3 7 1 1h-2l-6 6-3-2v-3l-3-5-8 2-5-7-7-1 2-1-1-2 2-2h-3l-5 3h-3v-5l-3 3h-2l-3-3-3 2-2-1v-2h-3v3l-1-2v2l-5-1-3 3-4-3-4 1v4l5 4 1 3-3 3v3l5 2 8-1v8l-2 4 2 2 1-1-1 5 2 4-6 3 1 11-3 4-8 2-4-1-2 2-3-1-2 3 1 6-1-1v2l-8 7-3-1-3 5v4l2 2-2 1v3l-2 2 1 2-2 5 3 3 11 5v4l4 2-3 9h3l2 3 2-1v3l-2 1 5 2 2-3h6l1-2h2l1 5h3l3 3-6 5-1-1v5l5 2 4-1 1 2 3-6 4-2 3 2-2 2 2 5h8v5h2l-1 2 2 2-2 5h2v4l-4 17-1-1-2 3-8 2v-4l-2 1-4 9v4l-2-1 3 3 4 1 4 7 10-2 17 2 2-2 7 2 4-1 7-9 5 1 1 4h7l1 2 4-2h5l2-6 3 5-2 9 1 2 5 1h-2v3h3l1-2 8 5v-2l7 1 5 7h3l2-3 4 4-2 2v11l-6 6v5l-4 7 3 10-3 1-4 7-5 1v10l-6 9h-3l-3-6-5 3-5 6-9 2 3 4v2l-3 1v5l4 3 7-3 1 13 2 1v4l3 4 4 1-7 4-3-3-4 1-4 4-2-1-3 8-3-2v2l-10-2-5-3-3 3-5-1-5-4v-2l-4-1-10 6 3 15h3l1 2-11 7 6 1-1 5h-2l1 8 3 1-1 17h-6v6l-9 9-3-1v2l2 1-4 2 1 11-13 14-3-2-6 3-5 7-5 2v8l-2 2h-13l-3 5-6-3-1 2 2 9h-5l-4-2-4 2-2 4-8-4v-5l-2-3 3-2-1-2-5-4-6-2-1-4-7-1-1 2-3-1-3 3h-8l-9-4-4 3-3-1-2 2h-4l-2-1-1-5-4-4-8 5-5-2-1 1-2-6 1-4h-5l-6-6 1-8-5-5v-10l-4 1-1 4-3 1-3-6-5 4-5-1v-11l-5-3-9 2-2 3v5l-7 4 2 3 5 2 1 3-4 4 2 3-1 3-8 4-9 1-1 3-4 1-9 6-3 5-4 2-5-1 1-3-2-1h-2l-5 5v-4l-9-7 4-5v-2h-3v-2h2l2-6h2l8-10 2 2 4-3 9-12 2-8-1-3-3-2-3 2-1-1v2l-1-7-3 2-5-8-13-4-9 2-3 7-2 16-10 1-28 17-4-5-3-1-9 1-1-12-7-10 2-9v-15l-2-1-2-5 1-6-9-7-2-6-10-2 2-4-4-6 4-6 4-1-4-1v-2l-3-1v-5l3-5-2-1v-2l-2-1-1-4-4-5-4 1-1-7-6-6v-3l4-8 3 1 7-3v-2h-2l1-5-2-2 2-4 3-3 6-2v-2l5-2 5-5 8-1-2-8h-6l-1-3-3-2h-4l-1-4-7-6-1-5h-3l-3 3-2-1-5 3-2-1-4-9-4-4-6-1-9 10-6-7-1-9-3-3-4 1-2-3v-5l-2-4-3-1-2 2-4-2 2-6-2-2 2-7-2-3v-4l5-4 3-9 7-5-2-4 1-3 6-6 3 1 6-6 8-4 2-3 7 3 1-3 4-1 6 4 4-4 1 2h4l4-6-3-3v-7l3-5-1-7 2-4v-10l2-2-2-6 2-9-4-10 1-7-3-15 1-3-3-6v-4h-2l3-5-5-3 8-9h2l-4-1-7 8v3h-2l-6 6 1-3-2-3-2 4-7-3v4l-3 1 1 2-2 6-2 1v-4l-3 4-3-3-6 3 1-1-8-8zM68 634v2zm1 2-1 1 2-1z"/>
</svg>
