<svg xmlns="http://www.w3.org/2000/svg" id="svg1" version="1.1" viewBox="111 138 205.58475 339.55994">
  <path id="Aomen" fill="#ff6347" fill-opacity="1" fill-rule="evenodd" stroke="#ff6347" stroke-linecap="round" stroke-linejoin="round" stroke-opacity="0" stroke-width="0" d="m171.5 418.122-2 39 3 17 20 3 44-6 8-2 54-51 18-23-31-94-51-101v-17l-6-18-18-12-30-12-3 2v-5l-10 2-9-2-3 2-6 11-9-2h-10l-5 4 7 18v13l-5 25-13 19 3 2-6 10v8l3 16 8 11v4l22 48 29 36zm95-239h-30l-1 21 3 3h20l7-4 1-3z"/>
</svg>
