<svg xmlns="http://www.w3.org/2000/svg" id="svg1" version="1.1" viewBox="-166 -118 762 772">
  <path id="Beijing" fill="#ff6347" fill-opacity="1" fill-rule="evenodd" stroke="#ff6347" stroke-linecap="round" stroke-linejoin="round" stroke-opacity="0" stroke-width="0" d="m490 211 6-10-2-10 3-2 7-10-9-7-2-3 2-2-3-1v-5l-4-7-4-1 3-8h17l1-2-7-11 2-1-1-2 7-6h4l2-3h5l5-6 8 1 6-3 1 2 5 1 4 6 4 1 5-6 7 3 3-4-3-2v-5l-3-5 2-8 4-4 7-1 2-7-1-2 2-1-3-1 5-1v2l4 2 1 5 3 1 2-2h4v-8l5-1-4-7-8-4-4 2-6-2-5 1-1-3-2 1-2-2-7-1-8 1-3 3-3-1-4 3h-6l-2 4-6 4-11-1-4-2v-2l-6-6-8 2-12-9-5-1h-4l-1 2-4-3h-19l-2-4-9 3-2-1-2 2-6-1-8 2-2 2h-7l-9-5-7-1-1-5-7-5-2-6-5-3v-6l-2-4 1-4-10-1V9l-6-3 1-5-3-4-5-2-2-4-12-4-1-3h-2l-3 4-2-1v-4l-2-2 1-2-8-9-3-2h-4l1-4h-4l-3-3h-4l-2-5-4-2 3-8-3-1v-2l-4-1v-2l-5-5v-6l-4-4 1-4 2-1-1-9 3-3v-3l3-4-2-6-2-5-4 1-7-4-2-3-5-2h-3l-2 3-3 1-1 8 2 3 1 7-3 6v9l-6 4h-3l-7-8-3-1-1 3h-9l-6 3-1 3h-4l-7-3-4 2-4-3-3 2-3 13 3 2 3 7-1 1h2l3 6v11h-4l-2-2-8 1-2-2h-4l-2 2-3-3h-3v-3l-5-5-1-6-4-5-2 1-2 3h-3l-4 3-2 4v8l12 12v2l3 2 2 4 3 1 1 3 3 2 2 9 6 5 5 1 6 11 2-1 3 12-4 4-4-2-2 2-8-2-1-4-2-1-15 5-13-2-7 2-2 3 2 4-2 2-6-6-5 1-7-13-3-1-5 4-2 10 1 1-3 3-1 4-6 3v3l-5 4-2 5-2 1-6 24-10-3-4 7-5 3v3l4 5-7 2-2-2-8 5-2 5h-3l-12 6v-5l-9 11h-3v2l-5 1-6-13-21-6-8 11h-7l-5 2-3-1-7 3-2 13-8 1-2-2-12 11-2-1-1 2 1 3-7 13 3 4v-2h9l2 3h3l-4 10 1 5 2-1-2 3 1 3-2-1v4l7 6h2v3l15 19v2l4 3 3-1 2 2-1 6 22 3v4l2 3-1 4 2 1-2 2 2 3 1-1 2 2v2l3 1-2 3 3 4 3 9 2 1 2 8-9 2-2-1-7 4-2 6H7l-5 9 1 5-3 3-3 7h-3l-2-2-3 3 2 1-3 6 3 9h-7l1 2-5-3-8-2-5-7v-4l-5 1-4 7-3-1-2 5 2 4-2 4-5 4h-4l-6-3-3 1 4 2-5 1-1-3-13 2-1-1-4 2v4l-3 1-14-2-3 11-2 1-3-3-5 2-3 3-1 5-3 2h-6l-6 5-3 6-5 3-4 5-8 3-1 4-4 5v2l3 2v4l-5 1-3 4-2 6 2 3-1 7 7-1 7 6h3l3 2 5 8 4 1 6 6 1 2-5 7 6 4v3l-2 1v4l-4 7 2 3 4 1 1 3 2-1 12 9v4h-2l-3 4-15 3-2 3-6-6-3-1-9 8-5-2-4 1-1 4-2 1 4 1-1 3 2 5 10 6 6-1 3 2v18l3 2v3l-4 4 1 2-2 2 2 2-3 3-2 6 11-1 1 4 4 2 1 9-4 3 1 11 1-3 6-5-1-2 5-3 10 10-1 3 6 1 2-4h2l1-2 2 1 4-2 6 3v-3h3l1 2h5l3-5v-3l2 4 5 2 1 5 2 2 2 9h-2l-1 2 9 2 2 8h2v-2l4 1 5 15h5l1 3v-4l6 3h13l3 2-4-12 4-2v-3h5l2-4 3-2 2 3 2-1v2l6-1 4-6-2-3h7l2-2-1-1 2-4-3-1-1-3 2-5 7 4 3 7 4 2v4h2l1 2 4-2v-3h2l1-11 5 1 2 8 4-1 2-5 5 1-1 5 6 2 21-2 1-2 2 4 3 1 1-2h2v2h6l4-2 1-4 9-2v-2l7 1 4 5h5l2 5h3v2h2l2 3v20l3 2 1 5 7 2 1 2 1-1 8 2 6 7v3l5 5 6 2 4-1 2 2h15l9 4 6-3v-2h2l-2-11-2-1v-2h-3l-3 3v-5l-6 2 3-6v-5l-4-1v-2l-2-1v-6l7 1 1 7h7l-2-8h9v-2l5-2-2-9 13 2v-5l4-2 3-4v-2h-2l1-9 3-1 4 3v-5 3l2 1 3-3 4-1-1-4h2l-2-4h13l1-2h2l4 11 6 1v-3l4 3 4-1-1-1 2-1h3l7 3 2-1 2 5 2 1 8-2-9-8-1-5 4 1 5-3 2 1v2l5 1 2-2 5 3 4 4 2 6h2v-2l2 1v-7l11-4 2 2 3-1v-2l2-1-5-5v-2l9-7v-7l20-5-1-6-5 1 2-4-4-10 1-4h5l4-3 2 1-3-12h-2v-4l2-1 1 2 4-3-2-4 2-2h6l3 2v-4h3l-2-3-4-1-1-3 3-1-5-4-2-12-5-7-3 1 2 7-2 2-6-7-5 1-5-3-2-5h-2l-7-8-6-3v-3l-1 2h-2v3l-6-4-2-11v-18l-7-4-2-3 3-9 4-5-2-11 3-8h13l2 2 1-9 13-3 3 5h2l15-5 2 4 2-1 1-4 4 2v2l2-1v3l7-4 3 7 5-1 6 4h8v-2h2l-1-2 4-5 6-2-1-3h4l1-2h2v-2l4-1v2l2-5h6l13 6 6-3 2-3-1-1 9 3 1-2-2-2 2-2 2 5 3 2-1 1 3-1v-5l3-3-1-5 5 1v-2l5-6 4-2 7 2 2 3 4-8 5 2 3-9 6-2 3 3 6-1 3-2v-2h-2l2-2-2-1 4-3-4-7h3l2-2 2 2 1-2h2l1 2v-2l5 1-1-1 6-5-4-3-3 3h-2l-1-7 5-1-6-3v-4l6-1-2-3-5-3h-5l-4 2-4-8 1-5-2-3-2-13-3 3-2-1v2l-8 2-1-9-7-6-1-8 2-3-6-2-2-10-2-1-2-5h-6z"/>
</svg>
