<svg xmlns="http://www.w3.org/2000/svg" id="svg1" version="1.1" viewBox="-166 -118 894.8114 852.5">
  <path id="Chongqing" fill="#ff6347" fill-opacity="1" fill-rule="evenodd" stroke="#ff6347" stroke-linecap="round" stroke-linejoin="round" stroke-opacity="0" stroke-width="0" d="m385.311 560 2 9 5 5v24l5 2 2 4-3 6-5 5-1 9-2 2 20 10 6 1h5v-2l7-3 4 1 1-3 4 3-1 2h9l1 3-4 3-2 4 1 10-7 3v6l7 13v6h-4l-2 3v10h4l2 4 10-2 2-3-4-3 2-4 6-5-6-8-4-2v-3l3-2 2 1 5-2 2-4 4 7 3 2v2l5 2 1 3-3 6v2l3 1-1 7-3 5 2 2-8 7 2 11 4 1 1 6 2-4 4-2 4-5 3 8 3 2 2-2 9-2 4 2-1 4 5 1 5 5h3l2-2v-6l3-5 2 1v2l9 5v-3l2-1-3-9 11-15-1-3 2-4-2-1 3-5v-7h2v-3h2v-3l7-8 3 2 8-4v-10l2-1 3-7h3l-2-8-2-2h-2l-1 3-4 2-4-3-6 4-3-2-1-3 2-3 14-7-3-4 7-6-1-2 3-2-5-5-4-1 1-2h-3l1-7-2-3 1-5-2-3 2-6 3-3v-9l2-4 3-1 2-9 4-5-1-5-10-4h-4l-2-6 1-1-3-6-10-7-1 2h-3l-3-4-2-5 6-12-2-2-5-1 2-6-1-10-4-3-1-3-5-2-3 2-1 7-6-1-5 7-10 1 3-16 2-2-4-5-7-1-2-2-1-5v-3l4-4-2-7 1-3 5-4-2-2v-5l-3 4-3-2 3-7-3-3-2 2-2-5-3 2-1-1 2-3-4 5 1 3-3-2-3 1-1-2h2l1-3-2-7-6 1 4 3v5l-2-2-2 2-4-5-4-1 2-3h-7l2-2-2-4 1-4-2-2 1-11-5-3h3l-2-7-5-1v-2l-2-1-4 1-4 4v3l-4 3-6 11 5 3-5 4h-3l2 3-2 2-8-7h-5l2-8-5 1 1-9-3-1-1-3h-2l1 4h-5v-5l4-3-1-1 1-1 2 2 6-5 4 3 9-3 2 3v-17l5-11-3-2 1-10h-3v-2l1-2h2l6-17-3-2 3-15 3-4h-3l-4-3v-2l-4-4 1-2-2-2h-3l-6-6-1-3-5 1-2-3-4-1v-3l3-1 2-5-3-5 2-2-2-6 2-3h10l2-2h4l3 3h5l2 4 4-6 4-1-1-2 8-6-2-8 5-3 4 1 2 9 2 1v3l3 2v2l3 2 8-4 4 5 8-5 12-16 5-2 4-5h4l2-2 2 1 2-3 4-2 5 3 3-2 1 2 3-2 2 2-4 12 5 9-1 1h3l1 2 5-5h4l5-5 5-2h-4l5-2 8-8 3 4 3-1-3 3 6 5 3 5-5 7 1 5 2 2 8-9 11-18 5-2 8-9h2v6l6-2 3-4v-6l7-2 4-3 2-4-1-5 6-2 3-3v3l3-2-1-5 12-10 7-2 14-8 7 2 2 2 9-2 2 1 2 11 7 7h5l2-7 4-3 1-5 6-9-2-2 2-7 2-2-1-1 2-2-1-3-5 1v-9l-3-1 2-5-2-3v-4l5-6 2 1 4-2 1-5 2-2-4-9V87l-3-1-1-6 2-5-1-7-4-7v-5h-2l-2-5-11 1-12-14h-4l-2 2-3-2v-2l8-6-7 1-4-3-5 1-11-8h-3l-3 3-3-2-9 1-3-2 1-3 4-2v-4l3-1-5-6 1-7-2-2v-6l-6-1-1-3h-9l-5 2-6-4-20 3-5-2-10 4-16-1-4-2v-4l-5-5 2-3 3-1-1-4-6-3-2 1-6-2-1-8-28-23-1 1-12-6h-12l-5-3-7-9-11-3-4-4-1-6h-13l-4-3-1-3-12-9-6-1-7-6-6 5h-4l-4-3h-7l-3 4h-2l7 7 4 9 4 2v4l-4 3-10-4-2 2h-3l3 7-6 4 7 6-3 4-8-6-2 2-6 1-1 4 3 2 2 4-1 4 5 3 8 11h6l2 6 8 4 3-1v5l14 7-5 5 2 1v7l5 5-5 1-6 6-3 1-1 3-1-2-3-1-10 10 1 2-2 2 2 2v3h-8v7l-4 2-8-1-1 2h-4l-3-2-3 3-6 1 1 5h5l1 3-3 3 1 6-2 3-4 1-5 4 1 3 4 2v5l-4 1-3 4-6 3-3 3v2l-10 2-3 2 2 2-1 3 2 1 7-3-1 3 3 3-6 12h-2l-4 7-3 1 3 4 1 6 6 2-1 3-10 3-3 9-7-2-2 5 2 10 9 3-27 24-15-5-2-3 1-7h-2l-2-4-4-1-2 3h-2l-8 11-3 1-3-2v-3h-6l-1-2-9 2-3-3-5 4 3 5h-2l1 2-3 1-1 3h-2l1 2-3 1-1-2v6l-4 1 2 5 4 4v5l11 7-10 16-6 5 2 3-1 2-3 2-2-1-9 13-4 15-3 5-6 5-6 16-6 11-15 16-1 3-5 2v5l-2-2-3 1-1 2 2 4-2 3-3 1-1-2h-2l1 4h-4l-5-5-2-5-3 1-4 8-6 1v2l-5-2-4 2-4-5-2 3-6 1v2l-2 1h-3l-1-2-1 2-5-2-1-6-5-5 1-8h-3v-2l-3 1 1-8-7-4 1-2h-2l-2-5 2-1-3-3-1 1v-2l6-3-6-9h-4l-5-5-3 1v3l-4-1-3 3-2-2h-3l-1-2-5 1 1-1-2-1-1 2 2 1-1 2-1-2-1 1 1 3h-5l4 4-4 3-5-2 2 2h-8l-1 2-1-1v3l-7-3v7l-4 2 1-2-4-1 2 2-1 2-4-1v4l-2-2v-5l-4 2-3-3 1-3h-3l-1-10-4-8-1 1-3-3h-2l2 4h-2v-2l-3 1-1-3h-2v-4h-2l-1 2-2-1-6-7h-16v-2l-4-3-3 2v-4l-5 1 2 2-2 1v-5l-5 4-2-2 2-2-5-6-5 3-2 5-2-1-2 5 2 1-4 8-3 1 2 3-6 1v7l2 2 2-1v3h-2v2h-9l-5-4h-4l-2 4 2 1-1 3 3 3h4l1 2-3 1v4h-5l-2 2-2-1-3 2-2-2-4 1-2 3v2l4 2 5-4 2 1v3l-5 2 6 6 1-1 2 2h4v5l4 3 2-1 3 6h6l1 3 3-2 2 4-4 4-2 5 2 4-2 1-3 6 2 2-1 3 4 1v7l-4 4-6-3-3 3-1-1-3 2-4-2-2 6-3-1-2 6 2 2-3 3 1 2-3 5 1 2h-2l-1-2-2 2 2 1-4 3 2 3h-2l-7-6-3 3 2 6h-9l-3-2-3 3-2-1v6l-3 1 1 4h-5l-3 6h-2l1-1-2-2-2 4 1 3-3 1-2 4 1 4 5 5v7l3 3v2l-2 1 1 2 3-2 2 1 3-3 3 1 1 3h-2v2l-3 1h9l4 5v3l-2 2 2 1-4 4v8h5l1-3 4 4-2 4 5 3 3-2 2 5 4-2 10-1 3 1-1 3 5-5 2 2-1 2 2 2h3v-5l2 1 2-4 3-2 2 2-4 1v4l3 6-1 13 3 1 1 8 3-1 2 2-3 1-2 3 3 4v3l3 1-3 6 4 6-1 4 3 3h2l4 5-1 2h-2l1 2 6-2 4 4 4-2 3 6 3 1v-4l2-2 8-6 5-1-3-2 2-1 3 1 4 5 4-1-1 8 2 2 4-3 5 5 6-2 3 1 4-4 8 6h2v2l5 4 2 4-3 4 1 1-2 1 4 8 1 8 3 1 3 5v7l3 2-3 3 5 4-1 3 4 7-2 4 1 1-2 1 2 5 1-2 3 3 3-1-1-1 4-7 7 3 1-1 6 6 4-1 2-2-7-8 1-3 5 3 1 4 3-3-2 1-3-5v-3l2-5-1-5h3l2-2-6-14-8-8v-3l2-1-2-4 4-4 3 6 6 2v3l7 5v8l3 4 5 3 2-1v5l3 2 2-2 1 4h-5l-1 2 4 3v2l-2 2-2-1-2 3 2 9-6 6h-3v8l4-1-1-4 2-1 3 3 4-1v3l3 2 2-3 7 3-1 5 3 1 7-4-4-10v-5l2-3 8-2v-2l-4-3v-5h3l1-2 2 1 3 6 3-2 1-5h5l4-14-5-1v-2l2-1-6-6-1-4 4-5h3v2l4-5h4l3-3 5 9 7-1v-4l-2-3 2-5-1-4 6-2v-5h3l1 4 3-1-2-1 1-4 3-1 1 4h-2v2l5-1 1-3h9v2h7l2-2 2 4-2 6 6 1-3 4 2 9 5 2 2-6 12-4 4-4-3-2 5-2 2 1 5-3-1-2 3-5 1 1v-5l4-5 1-4h-4l-4-8h-5l-1-4 6-6-1-4-2 1-2-7 1-2 3 2 4-1 3-7-4-2 1-5-2-5 5-1 2-3 4 2v4l2 1 7-5h4l3-3v-2h3l4 14 2 1 1-4h4l6 1 1 3 6 1 4-3 1-4 5-5 1 5h2l1 3 6 4-4 20 7 3-3 10 6 4 5 1v-5l3-1v-4h4l4-6h17l2-4 7-6 7 2 7 5 4-3 5-1 1 3 5 2-1 3 3 1 3-3 2-10 6 1 1 2-2 6 2 9zm144-333v-5h-2l-2 2 2 5 2-1zm-641 97-2-1zm640-96-1 1 2 1zm-372 113v1z"/>
</svg>
