<svg xmlns="http://www.w3.org/2000/svg" id="svg1" version="1.1" viewBox="-166 -118 888 965.5">
  <path id="Fujian" fill="#ff6347" fill-opacity="1" fill-rule="evenodd" stroke="#ff6347" stroke-linecap="round" stroke-linejoin="round" stroke-opacity="0" stroke-width="0" d="m293.5 642 2-1 2 2 2-1-1-3 4-1 4-4h6l8 2 7 7v2l-2 1 3 4-1 5 4 1 6-3 1-3 7-3v-3l4-3 2-5-1-5h-2l-1 2-3-2 1-8 2-2 3 4 6-3 6-8h-2l5-2 3-7v-3l-9-1v-7l-4 1v3h-7l-4-2-1-7 9-5v3l6 2 1 3h2l1-4h3l7-5 5 3 2-1-2-1 1-2 5-2h5l2 2 5 1 11-2-1-3h-6l-4-2-3-4 5-6 7 4 6-1 3-3h-4l-1-3-1 1-2-2v-4l3-1 1-5 3-4-2-3-6 3-1 4-3 1-3-2 1-2-11-9 4-1 1-2 4 1 7-4-4-2-1-5 7-3-3-9-4 1-1-3-5-4h-3l3-1v-2h3l4-3h13l-2 3h-2l-1-2-4 8 2 5 12-4 2 3 2-1-2 7h-5l-2 2 2 8 7 5 1-2 10 1 1 2h-2l-4 4 2 4-5 1 3 1 2 7h2l-1-2 4-7-1-5 3-2 1-6v-5l-5-1 2-2-1-2-4-1-2-4 4-6h2l1 4 7 5 3 1 5-3 6 3 1 3 8-6-3-9 3-1 4 2 1-2 7-2 1-5-2 1-7-3-4-4-2-5-9-1-1 4-5-11-9-1-1-3h-3l1-8 3-2 5 3 7-4-3-5 7-4v2h3l-2 10 5 4 12-1-2-12 2-10 8 3v3h10l-2 4 1 4-3 4 1 4 4-7h6l-1 5 4 5-4 6 2 2v-2l4-2 2 1v3l3-1 1-3 5-4-1-3-4-3 1-3 3-1 2 4-1 3 2 3-2 4 3 5-2 2 2 2 7-1 4-3v-2l-3 2-2-1 4-2 1 1v-9h2l1-2-3-4v2l-6-1 3-2 1-4 5-1 2 6h3l3 4h4l3 4 3 1 2-4-4-1v-3l12-6h2l1 2h4v-5l-6-1-3-2-1-3 2-5 4-2 2 2 3-1 3-3v-3l-3 1-5-2-2-2 2-2-1-2-5-3-6-1 2-9-11 6-8 8 1 4 3 1 2 5-1 5 2 1-5 1-4 4v4l-4 1v-4l-3 3h-2l-2-6 1-11-3-6h-12l-1-1 2-2v-5l-12-1-1-6 4-2 9-3h11l2-4-2-2 4-2 2-5-2-11 2-17 11-3 5-18-1-7h-8l-4-13-2-4-4-2-3-10 7-5 4-1 3-6-2-6 1-1 18-4 5 3 3-2-2-6 7-3 3 1v2h9l1-3 7-6 1-4-15 3 1-3-4-4-5-9 1-3-9-27-7-3-2-3-7 1-4-2-13 5-6-6 8-5 4-8-1-2 4-1 1-4-2-5 2 4 9 8 14-1 4 2 3-2 6 4v5l2 1 7-4-2-2v-4l6-7 1-5-2-4 3-3h5l-1 1 3 1 14-2 1 2-4 5-4 2v3l-5 1-4 6v8l-2 1-2 7-2-2h-7l-10 7v4l-2 2 1 2-2 2v3l2 2h10l3-5 4-1 3-3-2-4 5-4 8 1 9-7 6 3 8-5 2-2h-3v-3h-3l-1-6 8-4 3-4-3-1 1-2-2-1-4 2-3-2 5-10-6 1-2-4 2-2h-7l-3-3 1-5 12-4 1-8h10l2 2 3-1 5 2 3-6v-7l5-3-1-9h-3l8-2-3-10 7-1 13 2 12-12-6-6v-2l-5-6 3-4-3-3 6-3-10-14-5-4v-7l-2-4-1 1-3-2v3h-8l-3-4 1-5-2-1-5 4-4-2-4 2h-8l-1 6h-6v2l-8 9-5-1-2-5-1 1-3-4-1 2-5 1 1 1-5 8 1 2-7-1-7 2 1-1h-3l-2-2-2 2 2 1-1 2-3-1-1 2-4-3-4 1-1-4h3v-2l-6-4v-4l-5-6-3-1v-4l-4-3h2l1-4 2-1v-6l-2-1 1-3-4-6-3 2-2-1 3-8-8-1-1-8 3-1 1-3v-5l-2-1-5-1-4 2h-7l-2-2v3l-6 2-1 8-3 5 1 3-2 7-4 5-3 1-2-5-2-1-7 1-6 5 1 3-3 3-9 4-3 8h-3l-1-2v2l-4 1-8-3h-9l-2-2v-4l2-1v-2l-3-2-4 4-4-2-1 2-2-3h-3l-3-4-5-1-2 2 2 1-1 2-4 1-2 5-4-3h-6v-3l-4-4-1-4h-3l2-4 4-2 1-3 3-2-1-4 2-6-2-1v-3l-6-9 2-1-1-3h4V5h-2l-3-4-3-8-3-1v-2l2-1-4-11 1-8-3-6-11-5-5-7 1-13-3-2v-3l5-5 10-6v-11h-7l1-3 5-5h2l1-4-2-3h-4l-7-5-4-10-3 1-5 8-6-1-3 4h-5l-2-6h-7v2l-3 1h-3l-2-2-2 1 2 6-2 2-2-2-7-1 1-2h-2l-1-7-8 6h-3l-1 2-3 1-1 3-5 3v2l3 1 1 3 6 1 1 4-3 3 1 5-2 1v7h-9l-10 5-2-2-3 4-4 2-9-3-6 4 2 5h-4l-3 3 1 8h-4l-3-4-3 1-2-2-2 2h-3l-1-2-2 4-4 2-1-2-3-1-4 2-2 3h-4l-4 3-2-2-13 11 1 8-6 6v3l-3 2-4-3-2-4-5 2-2-4-3-2-8-2-1-5-3-4-1-8-2 2-2-2v-4l-7-4-3 6-5 5-3-2-10 10-7 2-2 4h-4l-1-6h-2l-5 5-2-1v5l3 1 1 3-1 6 2 4-2 3h-3v3l-3 5-3 2-8 1v6l-5 1-10-3-2 1-2 4 3 5h-2l1 3h-3l-6-8h-3l-4 3-1 5-1-1-1 2 4 7-2 6 7 4 4-4h2l3 6v10l2 2-1 3 3 2 1 6-5 8-1 9 2 2 6 1-1 4h4v2l2 1-1 4-4 8-5 5h-3l-2 5-3 1-4 5-1 3 2 7-16 8-5 9-2-2-6-1-6 5-8-2-10 4-1 3-4-2-10 3-9 10-5 9-10 10-1 7 3 8-9 12 6 10 4 1 1 2-5 18 7 5v2l3 2-2 2 3 2-1 1 2 2 5-1v3l-6 10 1 7-4 3h-6v-7l-2 1-4-3-4 5v5l-7 3-1 3-3 2v3l-2 2h-3l2 1-1 3-3 1-2 3 1 3-2 1 2 4-1 2 2 1-1 7 8 2 5-3 3 3 1 9-2 3-10 7-4 4v3l-3 1-4 5 2 8-8 1-5 7-8 4-5 1-1-2-9 3-1 3h-3l-4 4v7l5 3 4 7-1 5h-2v-3l-6 1-3 4 1 2-2 1v4l-5 2-3-2v3l-1-1-1 3 2 1-1 3 2 3-4 4-1 4 2 2v4l2 3-2 3h-3v7l-4 1v2l-2 1v4h3l-2 4 2 3v4l-3 1 1 4-3 3v7l2 3-1 1 2 1-4 6-2-2v2l-2 1-3-2v6l-3 6-6 1-8 4-1 7 2 2h-2l1 2 4 1 2 4-3 2 2 3-1 3 5 1 2 3-1 2h2l1 2-7 6h-3l1 4 4 2 5 6-2 1-2-2-2 1v-2l-2-1-2 1v2l6 8 10 2 3-1 1 3 4 1 2-2 5 7 7 4 2 3v-3l11 1 5-6h2l2 4h2l1 5 6 1-3 4 3 3 2-2h7l6-5h2l3-9 2 1 1-2h3v4l4 3-7 4v4l1 2h3l3 5v5l4 2 1 3h8l5 13-2 6 4 3 8-3v-2l3-1 2-3 5 2 12-4 2 1 1-2h6l2 2 5-5 4 1 3 4-3 4v3l-7 8 1 4-2 1v2l4 3 3 6 4 2-1 2 4-3 5 7-4 2v2l6 10 2-1 4 5-2 4 5 6-2 2 1 5 4 1-1 13h4l3 4 1-1 3 2 1 3-12 10-1 6v6l2 2h3l-1 4h-2l3 3v3h3l2 2-2 4 2 3v4l-2 3-3 1 1 4 3 3v3l-3 1 4 2h5l2 3v8l5 8 1 12 4 2 2 4 5 1 2 4 4-2 2 3 6 2v13l18-1 2 4h3l12-1 8-4 3 1 4-3v-3l-2-1v-5l8-4v-4h-2v-2l3-5 12-2 6 3 4-10 7-9-2-4 1-7 3-5 3-3 13 1 5-3 3-9 11-12 8-1 3-6 1-11 8-8 3-1 2-7 3-4 7-2 3-4h7l2-2v-3l6-2-2-9-1-2h-3l-2-8-7-1 2-9-7-2 1-6 8-20 4-5 6-2 3 5 13 9 25-5v-5l-3-1zm7 13-3 1 1 3-3 2 1 3-3 2-10-6-4 2 3 11h-4l-1 2 3 4 6 2 3-6 4-3h6l5 2v3l5-2v-2l2-1-1-1 2-1-2-4 1-4-3-5-7-5zm193-137 7 3v2l3 2 5-1v-6h3l2-2-6-1-1 2-7-3-1-5-4-1v-3l-2 3h-2v2h-3l2 2-1 5zm187-238-2 1v-3h-2l-1 3 2-1 3 4 2-2-1-3zm-109 160v-5l-3 2-1-2 1 4zm148-286v3h2v-3zm-3-3v2l2-1-2-2zm-81 15-1 4 4-1v-2l-2 1 2-3-2 1zm-122 265 4-3 2-5-6 3-1 4-1-3-2 2zm77-119 2 1 1-3-4-2-5 3v6l2-4zm-7 55 5-4-4 1zm64-201 1-1-7 1 2 2h4zm-93 53h4l-6-2zm-18 267 5-2-2-3-5 2zm-2 10 3-2-2-6-3 4 1 4zm-267 181 7-4 1-4-3-2-4 1-1 4h-2v4zm386-452 4 2-3-3zm-81-10v2l4 1v3h4l-2-2 2-4h-5zm-399 588 2-1-3-1zm-5-3 1 2v-2zm94-144v-4l-2-2-6-2-3-3-5 1-5 5-3 15 3 5 4 2h5l4-2 9-10zm314-328 5-3 1 1 2-3-4-1-1 2-3-1 1-2h-3v6zm-52 1h3v-4l-3-1-3-4-3 1 2 6 4 1zm44-57 2-1-1-1zm-15-32 2 2 1-3zm-300 454 1-3-2-1zm241-203h2v-4l-4 3zm159-278v2l4-2-2-2zm-57 43 5-1 1-5-2-1v2h-4l-2 4zm21-13-1 1 3-1-1-2zm-89 184 2 3 9-2-1-5-2 2h-6zm86-210 1-2-3-1v2zm-1 31h3v-3h-2l1 2zm-83 157 2-1-2-1zm-17 99-1-1-1 2zm17-174 2-3-4 1 3 5zm-55 204v-3l-1 2zm182-374 1 2 3-2zm-249 361-1-1-1 3zm182-276-1 2 2-2-1-2zm-44-14 3 3 4-3 2 1 1-3-3-2-7 2zm-45 273h3l-1-3zm44-7 1 2 1-2zm29-226-2 2 3-1zm15 36 1-2zm-177 244h2l-2-2zm-247 248v-3zm413-436 3-3-5 1zm-162 174h2zm108-115 3-2-3 1zm-9 98 2-1-1-1zm-37-50 2-1-1-1zm-184 176 3 1-2-2zm176-152v-2l-1 2zm-232 176 1-2-3-1 1 3zm314-436h2l-1-2zm111-102 4-1h-2zm-49 112 3-2v-2l3-1-1-6h-2l-6 7 1 3zm15-66 2-1-1-2-2 2zm-116 329 1 2v-2zm101-251h2v-2zm-91 76 2 1-2-2zm64-30 1-3-2 2zm43-14 2-2-2 1zm-105 135v2h3l2-1-2-2zm130-254 6-2-4-7-3-2h-3l-3 3v3l4 4zm-40 24 1 2h3v-3h-2zm-86 35h5l11-6 1-4-2-1-7 3-7-3-3 2v8zm-16 195 2-2zm-102 99 1 1 2-3-1-1-3 2zm138-304 2-1-2-1zm-75 274 2-1-3-1zm17 69v-2l-2-1z"/>
</svg>
