<svg xmlns="http://www.w3.org/2000/svg" id="svg1" version="1.1" viewBox="-166 -118 1054.5 832.5">
  <path id="Gansu" fill="#ff6347" fill-opacity="1" fill-rule="evenodd" stroke="#ff6347" stroke-linecap="round" stroke-linejoin="round" stroke-opacity="0" stroke-width="0" d="m746 470-2 1-2 5 3 6h-2l-1 4 4 9v5l-7 7-2-1v3l-8-9v-4l-4-3-4 6-3-8-11 4v-2l10-4h-2v-2l-7-2h-3l-1 4-2-7h-3l1-1-2-1v-2l-3-1 1-7v3l2-2-6-2-6 2v3l-1-3h-3l-6-8-2 2-1-1v-3l2-1-3-1-2-3 1-10h2l-1-1 4-2 1-3 4 1 1-4-3-6 1-6-5-6-2-10-3-3h-4l1-2-5-11 3-4h5l1-5-6-7h-4l-1-8-13-3-7-14-5-3-4 3h-6v-7l6-3v-2l-1 1-3-3 2-2-5-2-7 1-4-2-5 2-5-1-6 2-20-16-13-15-18-6-2-19 11-5-4-16-4-5 29-19 12-21 8-4 2-4v-8l-10-17 3-10-1-1-7-3h-9l-30 10-23 20-25-6-11-7-28 11-12 2 6 8 10 9-9 7-10 12-8-2-3 3-3-5-15-5v-6l-6-2-2-6 2-6-17 6-1-5-3-2-1 2-4-2v-4l2-3-1-24h-22v-7l-12-2v-8l-4-7-8-1-6-5-9-2-5-6-10-3h-15l2-1 2 2 14-8 2-3h6l3-2 3-3 2-7 3-4 10-7V76l5-6v-9l-12-16-25-2-6 7-26-1v10l-3 2-1 4-4-2-4-7-12 6v9l-7-8-1-6-7 2 4 6-18 9-1-30-5-2-18-13-22-29-1-3 15-16-43-99-13 3h-15l-23 3-18 11-5 5-3 9 5 2-1 8 9 9-7 6 4 12-6 8-12 6-12 2-7 3-15 13-2 7-7-11 1-2-3-2-1-3h-2l-16 9-4 4-3 7-14 3-23 20-11 13-13 20 1 8-4 11-16 1-38 7-1 22-7 13-3 24-7 30-8 12-12 11 2 11-1 3 7 2 2-5 22-4 2 1 5-3 2 2h5l4-3 2 2-1 3 5 6-2 11h4l3 2 11-2h18l7 4h3v4l-8 1 2 5 10 3 27-4 10 28v5l2 1 5-3h12l10-4 4 2 1-1 1 2 4-2 8 10 4-2 5 2 2-1 2 2 2-2 2 1 5-4 1 1 6-5 1 2 6 2 1-1 2 6 5 2v2l7 5 4-1 7 3 1-1 2 2 3-2-1-1 3-6 4-3 17 5-3-11 3-2 3-6-3-2 3-2h4l2-2-3-2 3-1-1-3h4l1 2 6 2 6-3v-7l-3-2 1-5h-2v-10h-2l-2-6 2-5v-7l3-3-3-5h17l5 3 2-1 8 4 3 4 11 5 2 4 8 3 9 6h3l5 6 10-9-1-2 4-10 5 1 4 3-1 1 2 2h5l3 2 3-2-1-2 8-6 1-3h4v2l5 2 4 4 7 1 3 3-3 3 10 10h3l11 11 1 4 3-1 2 6 4 4 9 7 24 11 2 4h3l-1-7-5-8-4-2-1-3 1-3 3-1 6 5 5 1 1 7 1-2h2l2 4-1 1 5 3 2-2 1 4 2-2 8 4 1-2 6 1 3 1 2 4 4 3 4-2 2 1-3 11 2 3 3-1 3 3 1-1 8 7 1 3 7 2 5 4 5-7 3 1 9 4 3 5-1 1 9 3 1 4 9-6h3l3 6-1 2 7 6-2 5 5 3 1 3 7 2-1 2 7 3 4 7 2 2h3l6 7 1 3h-10l1 6-4 4 5 2 3 5 9 7 1 2-6 3-2 2v3l8 5-1 1 3 2-2 1 4 6-1 2 5 10h3l11 10-5 1-3 7-4 2 3 3h3v4l-2 3v10l-10-2-3 3h-2l-2 4 5 13 3 2v2l-5 2h3l-2 3-3-3-8-1-3-3-7 13-7-1-2 3 3 4-3 3 6 3 2 7-6 3-2 6-7 2-7 7-1 3 2 2-6-1-4 2 1 22 4 4h6l3 3 1-1 7 12h-5l-2 7-4-2-2 1v4l-3 1 1 2-4 2-1 4-4-2-1 1v-2l-2 2h-5l-2 4-1-3h-3l-2-2 1-1-7-5-3 2-1-2-10-2v-2l-6-2v-2l-3-1-9 1-6-5-9 5v6l-3 5 11 15-1 1 3 2v2l12 6-1 1 3 3v4l-2 2 1 4 4-2 12 3v-2l8-2 5 8-1 5 2 3h6l3-5h3l1-3 3 1 1 8 3 3-2 1-3 9-7 3v2l5 5-1 5 3 1 4-6 10-2 1-6 6 5 1-2-2-7 5-6 7 2 2-1v-2l3-2v-6h2l-9-6-2-4 2-4-1-2-1 2-1-1 2-1-1-3-4-1 1-5-8-8 2-2 5 2v-2l3 1 2-2-1 2h6l2-9 2 1 10-2 2 2 1-1-4-5 6-3 2-4 3 1 2-3h3l1-3h3l2 1 2 7 2 2 2-1 6 2-1 4 4 3-4 3h2l1 3-3 4 3 1 1 3-2 6 1 1 3 1 3-2 2 1-1 2 5 3 5-1 2-4h3l3 5-2 5 9-4 1 1-2 1 9 3 17-2 8 6-1 5 4 8v3h2l3 5 9 1-3 1 1 2-7-1 5 15-2 5 5 1-3 6-6 1 1 8 4 1 4 4 6 1 1 2 2-1 5 6 4-1 2 3 6-2 4 5 9-4 5 3 5-1 4-4 1 2 5-2 2-3 4-2 1 1 1-2-5-10h2l1-4 4 2h5l1 3 16-6 2 1 4-8-1-5 2-1-3-2 2-4 1 3h2l-1-4-11-4-3-3 1-2-3-4h8v-9l3-2 1-3 4-2v-2h8l2 1v2l5 2 6-4 3 1 6-3 2 2 1 6 1-1 3 2 2-3 1-7-3-5h-3v-6l-2-1 2-3-1-4-3 1-1-3 4-5 2-10 4-1 1-3-1-6-2-2-3 1 3-4 3 1v2h7v-6l2-3-5-2-3-5-9-6-8 2 1-4-2-1 7-6 2 1v-5l6-5h2l-6-14v-6h2l4-5 4 1 4-1 1-2 8 2 4-1 5 2 2 3 5 1v4l6 3 1 4h3l2-4h9l7 2 2-5 5 1-1 3 3-2 9-1 4-3h-2l1-2h-2l-4-4-7-13 3-1 3-5 8 5 6-1v2l6-1 8-4 3 1 1 3 4-1 3-3 3 2h6l3-2 2 1 3-3 1-7-2-7 2-3-6-5v-11l-2-10 1-3 9-4v-3l2-2-1-3 2-8-4-8v-10l-2-4h-3l-4-3 1 2-2 2-5-2-3-8h-5l-1-2-1 2-1-2h-2l1-5h-2l-2 6h-2l-1-2h-2v-2h-4l-1-6-2 1v2-2l-3 1 1-3-5-6-13-5h-8l-4-6h-11l-3-15h-2l-3-4-6 2-4-2v2l-3 1-5-4-1 5-1-2-6-3-2 4-4-2-1 2-1-2h-3l4 9-2 1v4l-3-1-1 3-3-4 5 6-1 1h2l1 2-1 1 2 3-2 8-2-2-3 1-2 2 1 2h-3l1 3-4 2v2l2 1-2 2-5-1 6 6 4 1-1 6-1-1v2l3 1h-2v10h2l2-3 2 2 1-2v2h5l5 5h3l1-2 5 6v2h2l-1 1 2 4-2 5h2l-2 4-2-1 1 2 2-1-1 3-1-1v2l-1-1-3 3h2l3 6h-2l2 1-2 3-1-1-4 4-4-1-1 3-4-3-1 2-2-1v-2h-6zm-29 19v3l2-4zm-207-69v1zm208 73 1 2zm28-23z"/>
</svg>
