<svg xmlns="http://www.w3.org/2000/svg" id="svg1" version="1.1" viewBox="-166 -118 1372.7507 1049.5">
  <path id="Guangdong" fill="#ff6347" fill-opacity="1" fill-rule="evenodd" stroke="#ff6347" stroke-linecap="round" stroke-linejoin="round" stroke-opacity="0" stroke-width="0" d="m459.25 557.5 1 12 9 10 3 9 4 3 10 13 6 3 9-7 3-12 14-4 6-4 1-5 6-4h4l5-4 6 1-2-14-4-6 1-7 11-5-2-12 5-3-2-6 4-2 8-13v-4h-10l-2 7-6-2 11-13 7-1 4-7 7-1 2-2-4-22-8-16 4-2 5-1 4 3 6 20 4 6 6 5v6h4l1 12 5 7 10-7 6-7 14 3 2-3h3l2-4 11-1 2-4 11 1 1 3 5-4 9-2 3-4 14-3 4 2 2 5 6 7 2 16 5 3 4-1 4-5 11-3 3-4-2-8-5-1-5-5 2-6 6-7v-3h-16l8-6 9-2-1-4-2-1 17-9 2-4 10 4-3 9-1 10 3 17 23-1 2 4v6l8-3-1-11 3-6 13-12h3l2-2-3-3v-2l2-2h4l-1-4 3-4 16-3 1 3 5 3v-6l2-4 6-1 5 2-4 3v5l14-2 5 2v10l8 8h8l2-2 6-1 19 10 1-5-3-2v-2l4-6 4-1v-4l-1-1-3 2-8-2 5-6 2-8 9-7h9l3 4 11 1 6 5 1 13 4 3 12-11h5l3-3 6 1 7-6 10-4 5 2 1 3 4 1 2-3h3l7-6 9-10 14-8h3l3 3 9 4 12-4h12l3-5v-4l6-3-1-2 3-2-2-1v-14l-2-2 2-6 16-3 13-13 12 3 4-1 2-5-4-3-2-4-1-9 4-7 5-4 4-8 3-1v-6l4-7h-2l3-8 3-3 3 1 1 3 13 2 6-7h10l17-5v-13l-6-2-2-3-4 2-2-4-5-1-2-4-4-2-1-12-5-8v-8l-2-3-9-1 3-2v-3l-3-3-1-4 3-1 2-3v-4l-2-3 2-4-2-2-2 1-1-4-3-2 3-5h-3l-2-2v-5l1-7 12-10-1-3-3-2-1 1-3-4-4-1 1-13-4 1-1-6 2-2-5-6 2-4-4-5-2 1-6-10v-2h3l1-2-5-7-4 3 1-2-4-2-3-6-4-3v-2l2-1-1-4 7-8v-3l3-4-3-4-4-1-5 5-2-2h-6l-1 2-2-1-11 4-6-2-8 8-4 1-4-2 1-6-5-14h-8l-1-3-4-2v-5l-3-5h-2l-3-3 1-3 7-4-4-3v-4h-3l-1 2-2-1-3 9h-2l-6 5h-7l-2 2-3-2 3-4-2-2h-4l-1-5h-2l-2-4h-2l-5 6-11-1v3l-2-3-5-2-7-9-2 2-3-1-2-3-3 1-10-2-2-3-3 1 1 7 4 2-2 3-6 1 1-5-9-3-2 3v6h-4l1 5h-2l-3 9 2 3-3 5v3l3 2-1 3 2 2 4-1 1 2v2l-8 4 3 1 2 3-1 3h2l10 12-1 2-11-1-7 5-11-1v-8l-3-4-4-2-2 1-1-2-4-1-6 2-3-5-1-8-6-4 1-2-6-4 1-2-4-4-5-1-9-5-2 3h-3l-3 8-9-4-7 1-2 5-2-1-2 2-2-1-4 3h-3v3l2 1h-9l-4 2-1 4-2-2-1 1-4-7h-4l-1-2-2 3 1 2-4 4-4-2-8 2-4 3v-3h-4l-4 17h-2v3l-3 1-2-7-2-1-3 3-5-4h-6l-3-2-4 2 1 8-6 8-5-5-2-6-5 2-2-1-6 8h-6l-5-4-6 5h-3l-2 4-8 5-3-3-2 1 1-6-3-1v-6h-2v-2l-3-2-10 2-5-12h-3l-4-3h-12v-2h3l-4-7 7 1 12-3 3-6h4l4-3v-7l2-2-1-3 7-11h2l3-6-3-4 2-2-1-6 6-2-1-2 6-1v-4l4-2 5 1 2-5 3 1 5-11 5-1 2 2 1-3 1 2h6l4-3v-2l13-4v-7l-2-2h-4l-3-2 1-1-2-3h3l-1-4 4-1 2-3 3 2 1-2-2 1v-2l2-1-1-6-1-2h-2v-4h-2v-2l-4-2-1 2-4-3h-7l-3-6h-2v-5l-2-2-1 2h-2l1-3-7-4-6 4 1 3-2 1-4 1-5-3-6 11h-3l-3 3-13-4-3 8 1 2-6-3-1 2-11-1-2-4-3 3-1-2-4 2-3-1-1 2-2-1-6 6-5-1-3 6-2-1 1-2-3-3 2-2v-3l5-2-5-3 2-3h2v-5l-5-1 4-2-1-2-3 2-6-4-1-2 4-4-1-2-7-2-5 3h-9l1 5-2 7-7 3-1 4-4 3h-10l1-1-2-5-2-1-1 3-2-2-7 1-1 4-3-1-1 2h-9l-4 4-1-7-5-2-2-3-4 3-3-4h-5l-1 2-2-1-2 2-8-9h-6l-2-7-6-3-3 2 1-5-2-3 1-2-3-3 1-2h-2l-2 5-2-3-1 2-4-4-6 4-1 4-5 1-1-3-3-1-1 5-5 2 2 9-7-1 1 2h-2l-1 4-10 6-1 3-2-2-8 1-3 2-1 3h-2l-1 5h-3l-2-2-1-6-5 2-2-2-1 1 3 17 7 2 3-2 5 1 1-2 4 2 3-1 4 8h2l1 2-11 6-1 6 9 11-7 10v2l3 2-1 4 4 4v6l-5 5h-14l-6 5h-17l1-8-2-3-5-1-1-9-5-5v-11l-12-11-4-1-5 3-17-2-1-2-8-1v-5l-2-2-3 2v4l-3 3-5-2 2-2-6-6-9 3-2 4-4-2-4 1-2-5h-11l1 3-8 27 1 2-6 7v5l4 6 6 2-2 12 1 1-4 5-1-2-3 1-5 3v2l-7 3-1 3-4 3v5l-3 3-10 2-4 7v3l3 5-4 1-1 3 2 6 6 4 3 5h2l1 4 1 6-3 1-1 7 6 4 4 6v4l2 1 1 4v5l-6 9-4 3h-3v5l-6-1-3 3 1 2-6 3-6-1-1 10 3 4-2 9 5 13 3 2v5l3 5-5 8h-5l-1 2-2-2h-3l1 6-2 2-4-1-2 5 2 3v8h-2l-1 5-2-2-8 1-1-2-5-1-1-2h-3l-1 4-7-4-3 10-2-1 1 11h-3l1 2 8 1v3l-4 2-3 4-2 3v4l-6-1-3 2-3-1-2 2-9 1v13l-5 9v3h-2l-4 6h-5l-2 4v14l-5 7v4l2 1v2l-4 4v3l4 1-1 6 4 5-1 9 1-1 2 2-6 3 2 4-1 6 1 3 4 3 6-1v7l-4 4h-3l-1 2 2 3-7 4 2 8-3 8-10 9-3 5 1 2-9 5-4 7-3-1v2l-5 1-14-1-3 2h-4l5 7-6 9-8 1-3 3-1-2-6 1 1 2-4 3-8-1v4l-2 2-4-1-9 2-1 4h-2l-3-5-4 1 1 4-3 1 2 1v6l-3 4v7l-7-1-3-2-1 1 2 5h3l1 2-1 13 6 2 1 6 5 4v3l3 1-1 2-5 1-6-4-2 3-4 1-1 5-6 2v6l4 4v3l-4 3-5 2-1-2-4-1 1-4-8-3-9 10h-4v-2l-11-10h-3v3l-6 6-6-7-4 9 7 4v6l-2 1 1 7-2 4 3 7-1-1-1 6 4 2 3 4-3 3h2l2 4-2 4-9 1-8-6-1 5-3-1-6 4-10-4h-6l-1 3-2-4h-2l-3 4 1 2h-2v-3l-3 4-5 2-3-3-10-1-7 6 1 1-3 6 1 8-2 3 2 3-3 2v5h-2l-1 3v3l2 1-4 4-4-2-2 2-2-1-1 3-7-1v3l-4-2-2-7-2 1-4 13 2 4v5l4 5 2 14 6 3h14l2 2-8 14h-17l-2 3 1 23-18 21 2 10-4 35 14 33 2 19 9 1 4 8v11l5 6 9 3 1 2v7l-2 3-4 2v5l1 3 9 8-2 17 1 2 3 2 4-1 8-8 15-1 7 8 6 1 8-2 4-5h8l5 3 2-2 9-2 5-6h6l5-2 10-15 10-10 1-7-9-21-2-13-4-8-10 2-4-3 3-7v-12l-2-7-12-6h-7l-4 2-7-4h-4l-6-9 1-15 5-5v-9h2l-1 3 4 5 2-2v-4l9-10 9-2 6-6 2 2 2-1 4-12 5 1 7-6 8 3 5-2 12-1 6-4 10-15 10-10 5-2 17 2 7-2 19-12 8-3 17-1 22-5 1 1-4 7-4-2 1 7h5l20-17 10-2 5 3h3l8-4 1 3h3l8-5 8 3 5-3v-7l3-5 8-4h11l6 6-3 2v3l6-2h2l1 2 11-9h9l10-6-1-3-4-2-5 1-3-3v-8l8-7 25-10 6-1 4 2 1 10 6 2 2 5 4 2 8-2 1 1 2-2h5l11-4 5-15 11 4 6 6h19l28-33h9l8 14 5 2h6l8-6 9-12 3-14-4-8v-6l8-8zm739-263h-4l1-5-4 1-3 4-2-3h-3l-8 7-6-5-7 3-1 5 20 4 5-1 8 4 4-5-2-2v-3l3-1-1-1zm-796 373 8-5-4-4 4-8-2-6 1-4 2-5 9-4v-5l-12 1-1 2-4-2v6l-7 2-6 6 1 2-2 1 2 2 4 1 3-3 5 2-1 3-4 1-4 8 1 2 4-2-1 5h3l-1 2zm-44-4 5-1-3-2 4-4 6 3h4l3-3v-2h4l1-2-5-2 1-4 5-4-1-4-10 2-3 2-1 3-5 2v2l2 1-7 5-2 6 1 2zm385-194 2 3v-3l-4-2 1 2zm-109 96v-5l-4 2 1 2zm33 14 2-2 13-3-1-2 3-1v-2l-4 3-11 3-3 3zm-94 1 3-1-1-3h-4l-1 2 2 2zm-577 181 7-2 4-12 5-7v-4l-8 4-1-2-10 2-6-4-7 5-4 1v3h3l2 3 9 3 4 5v4zm344-113 2 3h2l2-8h-2l-1 3zm-349 114-10 3-9-6h-5l-6 3-8-2-6 11-12 9-2 6 1 3 2 1 5-3 12-2 7-5 11-1 11 1 5 7 1 5 2 2h3l2-4v-10l4-12v-2l-6-4zm602-180v2l3-2h-2zm34 29 4-4-4 2zm-333 60 4-1h-2v-2l-2 1zm297-120-1-3-1 1zm34 22v2l1-2zm115-79 1-2 4-1-7-1zm-158 95 3-3-1-4-6 2 3 3v2zm49 15 3 1 1-2h2l-1-2-3 1zm-56-7 3-1 2-3-2-2h-4l1 4zm35-22h4l-3-3zm-141 40 3-4 3-1 1 2 4-3v-2l-4 2-2-3-3 2-2-1-1 6zm-356 90 2-4-2 2zm490-146-2 1h3zm-11-55 1-2-2-3h-3l-2 2 4 2zm2 55 2-3-2-5-2 1v6zm66 25h5l1-4h-8v4zm-187 7 1 2v-2zm180-4 3-2v-3h-3l-1 2-4 1 3 1zm-185 11-2 1v3l6-6-2-2-2 2zm-83 43h2l-1-3-1 1zm351-191 1 2 1-2zm-172 124v3l2-1-1-3zm565 248v5l21 2 1 10-3 7-4 4-4 2-15 1 4 5h17l8-6 5-10-1-11-3-6-5-4-12-1zm-562-228 5-1v-3l-3-1-2 3zm211-113v2l3-2-2-1zm-491 179v-2zm135 1h2l1-3-3-1-4 2 1 2zm26-49 1-2h3l-1-5h-4l-3 2 3 4zm-166 42 3-2h-3zm98 7 2-2h-2zm363-212 1 2zm-136 110-2-1-1 2zm150-91-1-2v2zm-185 86h2zm170-57 1 1 1-4zm-374 166 2-1v-2h-3l-1 2zm-397 177h6l-1-4-4-2-2 4zm856-410v-2zm-201 147 2-1v-2zm497 260-2-3-2 2zm-552-275 1 2zm-187 96h-2zm-370 132-10-3-7 8v7l2 3h9l7-11zm827-353 2-1zm-843 471 2 1 5-7-1-4-2 6zm650-319h3l-1-1zm-675 157v2l4 1 1-3h-3zm624-265 2 2-3-3zm-190 186 3-3-4 2zm141-127v2l3-1zm-579 217 6 2v-2l-2-1zm1010 1 2 7 6 6 9 2 5-3-1-10-6-7h-11l-3 3zm-3 23 2 7 3 3 3 2h5v-5l-2-4-6-6-4 1zm-380-297 1 1v-2z"/>
</svg>
