<svg xmlns="http://www.w3.org/2000/svg" id="svg1" version="1.1" viewBox="-166 -118 980 771.15778">
  <path id="Guangxi" fill="#ff6347" fill-opacity="1" fill-rule="evenodd" stroke="#ff6347" stroke-linecap="round" stroke-linejoin="round" stroke-opacity="0" stroke-width="0" d="M518-44.842v-2l-10 2-1-3h2l-2-4 2-5 2 1 2-3v-4l-2-1-2 2-3-3-2 1-1-5-5 1-3 3-3-1-4 4h-2l-4-5-4 6-6 3 3 3v2l-2 4-3 2v3l-3 4-3 1-2 11 1 4h-3l-2 2h-6v-2l-6-1v-7l-4-3-1 2 3 3-5 4-2-3 1-4-1-2h-2l-5 3h-11v4l-1-1-1 3-3 1 1 1-3-1-6 3 1 5 6 1 4-7h3v-2l3 2 2-2 5 2-6 13 1 8 6 4-2 2-1-1-5 4-7-3-3-3-5 2h-2l-1-2h-5l1 1h-3l-3 3-3-4v-2l2-1-3-4 1-3h-13v6h-3l-1 5 5 4-3-2-5 2v2l-3 2 3 4-3-2-1 7-2 1 1 2h3l1 3v11l-4-4-1-4-3-1v-2l-5-4-4-6-7 1v2l-2-1-4-8-4-2-2-3h-3v2l-2-1-3 7-5 2-1 2 2 2-3 1-1-3-3-1-5 3 3 1 2 3-2 2-5 1 2 1-1 4-2 1 2 5-2 2 1 4-1 5h-2v3l-5 3-9-1-5 3h-3l-2 3-8 2v2l-4 2-2-2-4 2-4-2 4-4-5-6v-6l-7 6v-3l-5-6v-8l-4 1-3 8-2-1v2h-4l-5 4v2l-1-2-4 1v-13l-6 2-3-8v-4l2-2-7-4-2 3-6-2v-4l1 1 2-2v-4l-2-2 1-1-6-6-5-2-2-8-2-1-3 3v2l-16 2 2 6-8 4-2 7-2-1-3 2 3 11 4 2v10l-3 2 1 2-3 2-6-3-3 3-2 7-12 2-4-2-4 3-4-2-8 2v4l-6 4-1 3h-5l-4 5-7 1-4 4-15 4-1 2-12-1-3 4-5-1-1 1 7 9v10l-3 8-4 1-4 6-9 4-3 7-8-6-2-7-10-1-1 2-7 2-5-2-8-7-10-1-4-5-3 2-9-2-9-17-5-2-11 3-5-1v-4l-7-3v-2l-4 1-3 4-2-1-14 14v10l-2 2-15 4-5 3v4l-3 4-10 3-2 5-5-1-1-3-9-2-5-7-8-3-4 10-6 3 3 1v-2l4 3v8l2 5h2l1 2v5l3 2 1 7h5l2 3-2 3 6 3 4 5 4-2-3-12 2-3 4 1 1-3 4 2 17 2 2 3 6-1 8-4 9 4-1 5h4l8 6-3 7-2 1 5 4 2 5 3 1v4l-3 3-4-1v5l2 1v3l8 6 4-3-2-2 6-3 3 4 7 3v3l11 4 3-2 1-9 2-3-1-1 9-2 4 2 3 13 4-1 3-4 5 1 3-2 5 2-2 3 1 2 6-1 2-3 4 2 2-1v-7l2-4 4 2 6-2 2 4 1-1 4 2v5l3 4 2-1 1 2-2 4h2l4 5 3 8 6 4-3 1 2 4-7 5 3 12-5 18 3 2-8 6-3 6h-3l-5 5-1-6h-4l-3-2-3 1-3-4h-5l-5 4v4l-7 2-2 4-5 4h-9 2l6 5-3 2 4 3-3 1-2-4h-2l-4 5h-3l-4 8-4 1-1 2 3 5-1 2h2l2 6-1 10 8 1 2-2 10 3 1-1 1 4 6 2 3 4 5 1 5 10h2v-3l4-1 9 1 2-2-1-4 2-2 5 1 3-2 3 3h13l8 10-1 2 3 4 9 1 2-3h6l1-2 3 1 1-2h4l5-7 5 4 4-1 3 5 5 4 2-4h2l4 2-1 2 8 6-1 1 6-1 4 3-3 4-7 4v4l2 1-3 2v3h-2l-2 5 1 1-2 2 2 2-1 2-8 2-4-3v-2h-3l-3 18-3 2v6l3 4-3 6 5 2h8l1 7 3 1-1 2 2 6-1 2h-2l-1 3 5 4h-2v3l3 8-2 3 1 2-4 6 2 5 5-4v-3l2-1 4 1 4 5 6-2 8 2 1 5 4 2 5-3h3l5 4v3l-6 5v5l3 2h6l17 13 4 1 1-2 6-3 8 12v7l3 2 10-10 3 2v3l2 2-2 2 7 2 3-4 5 2 8-2 2 1 16-7 4 2 3-1 3 2v3l2 3 4 1 3 7 10-2 3 3 10 3 8-3-6-5 4-1 3-4 3-1 3 2v4l-5 8v2h2l12-7 10 1 12-3 10-14 5-4 4 2 3 4 3-3 2 5-3 4 2 1 2-3v-4h2l1 4 3 2v-2l5-2h3l2 2 6-2 8 5 19 1 2 2 5 1v7l-11 4-3 4 1 3 5 1 7 5h6l8-5 31-4 6 2 2-1-1-3 3-1 6-10 3 1 4 8 5 3 11 1v-5l-5-12 1-1-2-2 3-10h2v4l3 2 1-2 8-2 3 1 2-3-1-3 1-2h2l-1-3 3-2-1-10 6-8 3-1 6 3 4-1 1-3 1 2 3-4 2 3 6-3 9 3 4-2 1-3 6 4 7-1-1-5-2-1 3-2-5-3-1-17h2v-4l-5-4 3-6 4 4h2l3-6 11 9 3-1v-2l4-4 6 2-1 3h3l1 2 6-4-1-4-3-3 3-3h3l1-4h2l1-3 5 3 4-2-5-6-1-4-4-1v-10l-3-1-1-4 8 2-1-4 3-8v-5h2l3 4 4-4 9-1v-3l5 1 5-5 3 1 1-2h6l4-6-3-6 3 1 4-3 8 2 7-3 1-4 4-1 4-7 5-4 4-6-1-8 4-1 1-2-2-2 6-4v-5l-4 1-4-4v-7l3-2-2-5 1-2-3-4 1-4h-3v-4l4-3-2-1v-4l3-4-1-3 2-10 4 1v-2l7-8 1-13 8-2 7 1 2-6h2l1-3h3v-3l-6-1 1-9 1 1 2-7 5 2 1-3h2l5 4 7 1 2-4v-10h3l1-6 3 2 1-2h3l4-6-8-17v-17l5 1 2-2 1 1v-2l4-3 2 1v-3l4-2 6-10-3-4-2-7-5-3v-3l3-2v-5l-9-9-2-4 4-3-2-5 3-5 8-3-4-3-6-1-1 2h-8l-1-3-7 1-4-3h-10v2l-5 2-3 4v7h-8l-3 6-1-1-3 2-6-6-4 1-1-2h-2l5-7-1-2 3-7-4-7 1-4-2-3 3-2v-3l-5-4 1-4 4-2v-3l-6-2 2-8-1-2-2 1-2-4h-3l-2 4-5-1-6-6-9 10-8 5-5 1v13l-16 4 2-2v-4l-3-2 1-2-3-4v-6l4-6-1-1 2-6 1-2 6-2 8-6 1-3-2-6 5-3 5-9 6-1 4-3 1-4h2l3-4 5-22-4-6v-10l1-2h4l6-2 2-3h3v-12l7-1v-2h-4l-1-3-5 2-4-1v-3l-3 2-1-2-3 1-4 3v3l-5-1-4-5 1-2-2-4-4-2 4-8-1-1 3-2v-3l4-1-3-3 4-4-2-6 2-3v-7h2l1-3-2-4h-9l-1-6-9 1-17-5 1-3-4-4-4 2v7l-3 1 2 2-2 7-1-3h-2l-6 1-2 2-3-1-7 2-3-3 2-3-1-4-3 3-7-3-3 1-3-3-7 6-2 8-4 7-4 3-2-2-12 12-7 17-8 2-2-1v-8l-6-6-4 3v3l-2 1h-2l-3-3-2 3-4-5 4-12v-5l-9 1-2-3-4 1-2-3-7 6-5 18-2 1-6-2-4 6v2l3 1 3 8-2 6-4 2zm-601 135-2 2zm514 548 2 1v-3l3 2 2-6-1-2h-2l-4 2v2zm15 14 2 1-2-2zm-47-96v2h3z"/>
</svg>
