<svg xmlns="http://www.w3.org/2000/svg" id="svg1" version="1.1" viewBox="-166 -118 1090.9402 939.5">
  <path id="Guizhou" fill="#ff6347" fill-opacity="1" fill-rule="evenodd" stroke="#ff6347" stroke-linecap="round" stroke-linejoin="round" stroke-opacity="0" stroke-width="0" d="m795.5 315 4-3 1-4 3-1v-4l-2-2 1-2-3-1 1-2 9-4 5-7h4l2-3 3 2 3-4-2-8 1-1 3 3 2-2 5-1-1-3h3l2-7-2-3 5-3-1-3-4 4-1-2h2v-2l4-4h2l1 2-1 5h2l7-7h2l6 6 9-1 2-2-1-8 4-4 10-9 5-3 5 1 2-3 3-1-2-4 3-7-2-10 2-2-2-3-5-2-3-5-9 1 3-3-3-2v-3l-6-4 2-2h-2l2-2 1-8-4-4 2-2h-3l-1-13-2-6 1-2h2v-4l8-4 3-5-6-6h-2l-5 7-2-1 1-9 2-1v-5l4-7 1-10 3-9 2-1 3-7h3l-7-1-1 2-1-1 2-3-4-2-5 4-3-1v-3l-4-3-1-6 3-4v-3l-4-4-1-9v-6l3-6-8 4-3-2-4 3-3 5v3h-2v3h-2v7l-3 5 2 1-2 4 1 3-5 6 1 2-6 4-1 3v3l3 4-3 6-8-5v-2l-2-1-3 5v6l-2 2h-3l-5-5-5-1 1-4-3-2h-4l-8 4-3-2-3-8-3 1-7 10-1-6-4-1-2-11 8-7-2-2 3-5 1-7-4-3 4-6-1-3-5-2-1-4-3-1-3-6-2 4-5 2-2-1-3 2v3l10 10-6 5-2 5 4 3-2 2-10 2-2-4h-4V54l2-3h4v-6l-7-13 2-2-2-4 7-3-1-10 2-4 4-3-1-3h-9l-1-5h-2l-1 3-4-1-7 3v2h-5l-6-1-20-10 3-6v-5l5-5 3-6-2-4-5-2v-24l-5-5-3-10-2-9 2-6-1-2-6-1-2 10-3 3-3-1 1-3-5-2-1-3-5 1-3 3-4-1-4-4-8-2-8 10h-17l-4 6h-4v4l-3 1v5l-5-1-6-4 3-10-7-3 4-19-7-8h-2l-1-5-5 4-1 5-4 3-7-1v-3l-6-1h-4l-1 4-3-2 1-2-2-8-2-3h-2l-4 5h-3l-8 5-2-1v-4l-4-2-2 3-5 1v3l2 2-1 5 4 2-3 7-4 1-2-2-2 2 2 7 2-1 1 4-4 3-2 4 1 3h5l3 7 5 1v2l-4 4-1 8-1-1-3 5 1 2-2 2-10 2 3 2-4 4-12 4-2 6-5-2-2-9 3-4-6-1 2-6-2-4-2 2v-2l-3 2h-4v-2h-9l-1 3-5 1v-2h2l-1-4-3 1-1 4 2 1-3 1v-3l-4-1v5l-6 2 1 4-2 4 2 8-7 1-5-9-3 3h-4l-4 5v-2h-3l-4 5 1 4 6 6-2 1v2l5 1-3 14h-6l-1 5-3 2-3-6-2-1-1 2h-3v5l1 2 3 1v2l-8 2-2 3v5l4 10-3 1-1 2h-6l1-5-7-3-2 3-3-2v-3l-4 1-3-3-2 1 1 4-4 1v-8h3l6-6-2-9 1-3 3 1 2-4-4-3 6-2-1-4-2 2-3-2v-5h-5l-5-6v-8l-7-5v-3l-6-2-3-6-4 4 2 4-2 1v3l8 8v4l3 1 1 6 2 2-2 3h-3l1 5-2 5v3l3 5 2-1-3 3-1-4-5-3-1 2 3 6 4 3-1 2-3 1h-2l-6-6-1 1-7-3-4 7 1 12-6 1-7-6-3-7-3-1v2l-11-9h-4l-5-13h-11l-1-4-3-1 1-2-2-3-9-2v-5l-5-5-4-1-2-3-1 6-2 2 1 2-3 1-1 6-8 2v4l2 1-2 5 3 3-3 1-1 2-2-2-3 1-2-2-2 2-7-1-2-2-5 5v-3l-4-2-3 5h-5l-2 11h-2l-1 3-8 1 1 2-3 7v7l6 2 1 12 2 1-4 12 2-2 1 2h3l3 5 8 3 2-7 8-1-3-2v-2l3-2 2 5 5 1 4 11h5v2l3 2-6 14v2l4 4-1 2 4 2 1-2h6l2-3 3 1 2 7 7-3 1 2 3 1-1-5 2-2 15-6 15 7 1 3 3 1 1 4 3 1 3 5v4h-2l-2 4 1 3 8 2 4 5 2 6-3 8-2 1 1 2h4v4l3 3-5 5 3 3h2l-13 9-5 3-9 2-12-5-12 1v3l-7 3-7-1-10 5-2-4h-3l-6 3-5 6-14-3-8 2v5l-12 1-2 4-4-1v-3l-4-5 1-3h-8l-4-7-3-1-1-2-7-2-4 2-2-2-3 3h-7v2l-3-1-1 2h-3l-2 4h-3l-4 6 1 9-3 4 2 4-9 7-3 5 1 1-2 1 4 1 1 6-5 8 1 1-2 10-7 10-1 1v-5l-3-4-2 1-6-3-4 2-6-1-4 2v2l-2-1-6 6-11 5-5 4-2 4-6 4-4-3 2-6-6-4h-3l-4 4v2l-3 1-3-6-3 3-3-2-7 4-10 1-3 2-8-5-4 1-7-12 2-3-3 1-2-1 1-3-11-2-1-2h-3l-1-5-1 1-7-3-4 1-2 4 2 4-4 4h-2l-3 6-2 2-1-1v2l-5 5v4l2 2-5 4-4-2 2 4-6-2v2l-3 3-7-9v-3l-4-3-5 1-12-9-1-11-6 3-4-2v-2h-3l-2-2-3 12h-2v8l-3 3h-2l-2 10-4-1v3l-3 2-4-1-1 4-2-1 1 2-5 7h-3l-5 10-3 1 1 3-3 3-4-1-2 2-2-1-5 3v3l3 2 3-1 1 6-8-3-2 6 4 7-3 1 2 1 6-4 4-5h5l5 6 4 12 4 2-2 7v5l2 3-4 4-6 1-1 5h-2v7l3 5-1 2 2 1v3l4 3 3-2 1 4-2 5v9l-2 4 4 5-1 4 6 3 4 8h4l4 4 4-2h21l1 2 6-1 2 2 4-3-2-8 1-3 11-14 6-1 12 6 2-2h2l1 2 4-3 4 1 3 3 7-2 2-4 3-1 3-12 4-1 9 14-2 4 1 6 4 3 3-2h10l3 2 2 4-2 7h3l5 3 4 6-1 6 6 3v8l3 6-4 2v4l-3 2-10 2-2 5-7 8 2 8-4 8-2 1v8l2 6-5 6-8-3 3 7-2 5 1 4-5 10 1 3-6 7 1 3h3l1 5-3 5 1 4-3 3v3l-2-1-1 8-4 6h-2l-7-6v12l-3 8v3l3 1-2 2 3 3 1 4 4-1 2 2v3l3-4 8 4-1 3 2 1v7l-1 4-2 1 3 5 2-1v-3h7l7-7 4 2 1-2 1 1-3 23 4 3 1-2 5 3-1 1 5 4 5 1 1 11-2 1 4 3 2-2h6l1 3 8 3v-2l5 1 1 3h2l1-2 2 1 2 5-3 1v8l2 6h-3l-10-11-4 4 1 5-3 6-4 3-1 10-3 2-10 1 12 1 3 4 2 8-5 2 1 2-5 3-5 11-7 4-4 8-6 7-1 4 2 3-3 8 8 5h4l7 11 12 2v3l2 2h6l1-5 3-2 14-4 6-13 29-9v-16l6-6 1-4 9-6 2-3h4l4-5 6-2 1 3h3v3l6 2v5l12 1 6-3 12 2 3 4 4 12 3 1 2 7 9 3h5l3-2 3 1 4 5h9l9 4 2 3 4 1 1 3 7 4h4l6-3 1-3h3l2 2 9-1 2 8 6 5 1 3 6 3 4-10 7-5 5-1 1-3 4-2 2-5 4 1 3-7-1-2 3-2v-15l-10-14 2-1 7 2 4-6 5 2 6-2 5 1 24-8 5-5 9-2 3-4 4-2 7-1 1-4 6-3 2-3 1-6 9-3 7 4 6-5 4 3 12-3 6 1 3-3v-7l2-3 4-1 7 3 4-1-2-3 5-4v-16l-5-1-4-16 3-2 3 1 4-11 7-1 3-2-2-6 1-3 5-3 5 2 11-3 3-5 5-1 2 4v7l11 6 2 5 1-1 3 2h-2l2 4v5l-1 3h-3v5l10 3 2-4 5 4h3l1 2-2 2-1 5 5 12 8-2 2 5-4 9 2 4h5v-2l2 2 8-7 4-2 3 1-1-3 2 2 5-11 5-1 2 1-2 3v7l7 8v5l8-9h2v8l6 9-1 4-3 2 1 2 2-2 2 2 5-3 4 3 6-5 10-3 4-4 7-2 2-2h14l7-3 1-4 2-1v-5l2-2-1-6 2-2v-3l-2-4 2-2 1-5-2-2 7-1 2-2-4-6-1 1-2-2 7-4 5 2 1 4h5v-2l-3-2 1-3 7-3 6-11 6-1 2 5 8 4 3 10 3 1 1-2 9-2 4 6v3l2-1 4 2 3 7 4 2 2 3-1 3 5 5h2l-2-20h-4l-1-3 2-2 2-9 4 3-1-3-4-3h3l2-5 4-3 6 3v-4l-5-3v-7h4l1-7h5l1-3h8l4 2-1 5 3 5-2 1-1 4 3 1v2l3 2 2-5 6 1-1-1 7-1v3h4l3-3h4l4 3v2h3l6 4 12-7-7-4-1-10-2-3 4-10 4-3v-5l-4-2v-2l-5 4-5-3v2l-3 1-7 9-3-2-2 2-3-1-1-4v-3l8-5 4 2v-3h3l2-4 2 1-2-4 1-1 3 1 4-3 8 4 1-3 6-4 5 3v4l-2 2 3 5 2-4 6-3-3-1 1-2-3-1 2-2 5 3 2 11 12 4 6-1v-3l5 1-2-6 2-15h3l2-2 4-5 1-6 3-1 4-6-1-3-4-3 9-6 5-7-1-4-5-1v-10l2 2 2-2 6 1 1-6-3-5-3 1-2-3 1-2-3-5h2v-2l-3-1-2-6 3-9 4-3-2-3-4 2-1 3-12 2-4 3h-2l-1-3-7-4-2 1-2-4-1-3 4-4 6-16 9-5 1-2-3-1v-2l4-4-1-5 5-4-2-6h-2l1-6-2-5-3-2-2-5-3 2-6-3-4-7 10-1 3 2 6-4-1-3 5 1 2-4 4-3 8-1-1-14-2-1-3-6h-3l2-2-2-4 14-8 3 1 5-4-2-8-1 2h-2l2-8-4-6v-6l-5-1v5l-6-3h4l1-2h-3v-3l-2-1 3-7h-3l-3 3-5-7h-2v-2l-2 1v3l-2-3-1 2-3-1-4 1v2h-7l-3 2-3-1-1-4h-2l-9 12-2 2-2-1-2 5-2-2-4 2-6-1 3-7 3-1v-2h-10l-4 4h-7l-2 4-12 7 2 2v3l-3 2h-2l-1-4v2l-8 4 1-3-2-3h-3l-2-4 1-2h-3l-7-5 3-3 3 2 4-2 2-3h5zm-692 447 3-3zm800-387 1 14 4 3 3-1-1-6-4-7v-2l3-3v-7l-4-2-1-3-6 7 3 6 3-1zm18 16-1 1-3-2v4l-4-2-1 1 3 2v3l6-3 3-6-3-2v3z"/>
</svg>
