<svg xmlns="http://www.w3.org/2000/svg" id="svg1" version="1.1" viewBox="0 0 1234 1024">
  <path id="Hainan" fill="#ff6347" fill-opacity="1" fill-rule="evenodd" stroke="#ff6347" stroke-linecap="round" stroke-linejoin="round" stroke-opacity="0" stroke-width="0" d="M331.581 214.552c4.876 4.877 0 14.629-14.629 9.753-9.752-4.876-14.628 0-24.38 14.628-14.63 14.629-29.258 24.381-48.762 29.257-14.629 9.753-24.381 14.629-39.01 24.381-14.629 4.877-24.381 14.629-39.01 29.258-14.628 14.628-24.38 24.38-39.009 29.257-9.752 0-29.257 19.504-34.133 24.38-9.753 9.753-19.505 24.382-39.01 24.382s-29.257 4.876-39.01 24.38c-9.752 19.505-4.876 29.258 0 39.01 9.753 9.752 14.63 14.629 0 29.257S0 531.505 0 546.133c0 14.629 4.876 19.505 9.752 34.134s4.877 24.38 4.877 43.885 0 19.505-9.753 34.134c-9.752 14.628 0 29.257 14.629 39.01s14.628 34.133 14.628 48.761c0 19.505 4.877 24.381-4.876 39.01-9.752 14.628-9.752 34.133 4.876 48.762 9.753 14.628 9.753 14.628 29.257 14.628 14.629 0 39.01 0 43.886 9.753 9.753 9.752 19.505 19.504 34.134 19.504 14.628 0 29.257 4.876 34.133 19.505 4.876 14.629 19.505 19.505 34.133 14.629 19.505-4.877 43.886-4.877 48.762 14.628s19.505 29.257 39.01 24.381c19.504-9.752 29.257-9.752 48.762-4.876 19.504 9.752 34.133 4.876 48.761 9.752 14.629 4.877 43.886 9.753 34.134 24.381-9.753 14.629 0 24.381 14.628 9.753s24.381-9.753 24.381 0c-4.876 14.628 14.629 9.752 9.753 19.504-4.877 14.629 4.876 14.629 14.628 9.753 9.753-4.876 14.629-14.629 9.753-24.381-4.877-9.753-4.877-9.753 4.876-14.629 9.752-4.876 9.752 0 19.505-4.876s14.628 4.876 14.628 14.629c4.876 9.752 9.753 9.752 14.629 0 4.876-9.753 9.752-19.505-4.876-24.381-14.629-4.876-14.629-9.753 0-9.753s14.628-4.876 14.628-14.628c0-14.629 4.876-19.505 14.629-34.134 9.752-14.628 19.504-29.257 24.38-19.504 9.753 9.752 19.505 9.752 34.134 0 14.629-9.753 29.257-19.505 48.762-24.381 19.505-4.876 29.257 0 14.628 9.752s-24.38 19.505-4.876 24.381c19.505 4.876 24.381 0 39.01-4.876 14.628-4.876 24.38-14.629 24.38-39.01 0-19.504 0-24.38 14.63-43.885s34.133-29.258 48.761-39.01c14.629-14.628 29.257-19.505 53.638-19.505 24.381 0 48.762 0 53.638-19.504 4.877-19.505 9.753-34.134 24.381-39.01 14.629-4.876 29.257-9.752 24.381-19.505-4.876-9.752-4.876-4.876-4.876-19.504s-9.752-14.629-9.752 0c0 19.504 0 24.38-9.753 24.38-9.752 4.877-9.752-9.752-19.504-9.752s-14.629-9.752 0-14.628c9.752-4.877 9.752-4.877 14.628-14.629 4.876-9.752 4.876-4.876 14.629-14.629 9.752-4.876 9.752-14.628 9.752-29.257s-4.876-29.257 9.752-39.01c14.629-14.628 24.381-24.38 14.629-29.256-9.752-4.877-4.876-4.877-4.876-19.505 0-9.753-4.876-9.753 4.876-9.753 9.752-4.876 14.629-9.752 19.505-34.133s9.752-39.01 19.505-43.886c14.628-9.752 19.504-14.628 24.38-29.257 4.877-14.628 4.877-19.505 14.63-24.38 9.751-4.877 9.751-9.753 14.628-19.505 0-9.753 9.752-14.629 19.504-19.505 9.753-4.876 29.258-14.629 24.381-29.257 0-14.629-4.876-14.629-19.504-29.258-14.629-14.628-9.753-14.628 4.876-19.504 14.628 0 29.257-4.876 39.01-14.629 9.752-9.752 9.752 0 4.876 4.876s-4.877 9.753-4.877 9.753 0 9.752-14.628 9.752c-14.629-4.876-9.753 9.752-4.876 24.381s4.876 24.381 24.38 4.876c14.63-14.628 24.381-19.505 34.134-34.133 9.752-14.629 14.628-9.752 24.38-4.876 14.63 4.876 14.63-4.876 0-14.629-9.752-9.752-9.752-19.505-9.752-39.01s0-39.009-9.752-53.637c-9.752-19.505-4.876-19.505-9.752-34.134-19.505 0-19.505 4.876-24.381-9.752-4.876-14.629-9.753-24.381-29.257-19.505-14.629 4.876-29.258 0-43.886-9.752-14.629-9.753-19.505-14.629-34.133-24.381-14.629-9.753-19.505-19.505-19.505-34.134-4.876-14.628-9.753-9.752-9.753 0s-4.876 19.505-19.504 19.505c-19.505 0-39.01 0-34.134 19.505 4.876 19.505 4.876 29.257 0 34.133-4.876 9.753-9.752 9.753-14.628 0-4.876-9.752-9.753-19.505-24.381-24.38-14.629-4.877-24.381-14.63-34.134-19.505-14.628-9.753-29.257-14.629-43.885 0-14.629 14.628-19.505 14.628-39.01 14.628-19.505-4.876-34.133-4.876-48.762 4.876-9.752 9.753-39.01 19.505-14.628 19.505 14.628 0 14.628 14.629-4.876 9.752-19.505-4.876-29.258-9.752-43.886 0-14.629 9.753-14.629 9.753-14.629 24.381s-4.876 19.505-9.752 9.753c-4.876-4.876 0-4.876-4.876-4.876s0-4.877-4.877-9.753c-4.876-9.752-9.752-19.505-24.38-24.38-14.629 0-19.505 4.875-29.258 19.504-9.752 14.629-24.38 29.257-14.628 4.876s14.628-34.133 4.876-34.133c-9.752 0-4.876 4.876-9.752 19.505-4.877 14.628-9.753 19.504-14.629 9.752-4.876-9.752-9.752-9.752-14.629-9.752-9.752 4.876-9.752 0-19.504-9.753-4.876-9.752-24.381-19.505-39.01-9.752-19.505 9.752-24.38 9.752-39.01 19.505-19.504 14.628-24.38 29.257-19.504 39.01 4.876 9.752 14.628 19.504 0 19.504-9.752 0-9.752 0-19.505 4.876-4.876 4.876-9.752 4.876-14.628-4.876-4.877-9.752-19.505-14.629-34.134-14.629-14.628 4.877-24.38 4.877-34.133 0-4.876-9.752-14.629-14.628-29.257 0l-43.886 29.257c-19.505 9.753-14.629 24.381-9.752 34.134 4.876 9.752 19.504 14.628 34.133 0 0 0 4.876-4.876 14.629-9.753 9.752-4.876 19.504-4.876 14.628 4.877-4.876 4.876-4.876 19.504-4.876 19.504"/>
</svg>
