<svg xmlns="http://www.w3.org/2000/svg" id="svg1" version="1.1" viewBox="-1191 -71 583.43378 774.48578">
  <path id="Hebei" fill="#ff6347" fill-opacity="1" fill-rule="evenodd" stroke="#ff6347" stroke-linecap="round" stroke-linejoin="round" stroke-opacity="0" stroke-width="0" d="m-926.566 133.078 4 6h6v-3l-3-4 1-3 6 1 1-2h3l3 2 2-6-1-2 2-3h2l1 2h2l1 3-2 6 1 3 3 2-1 2 5 3 4 6h4l4 7 3 1v3l5 5 4 2 3-2 13 1 11 5 8-4 9 3-1 3h-2l-1-2-5 6 2 4-4 1-7-2-4 2-2 3 2 3h-4l-1 2 2 5 3 2-3 3 1 2-2 1v2h2l5 11 3-1 2 7 9-3 5 3 6 1v5l5 4v2h2l-1 4 2-1 1 3 3-2 1 2h3l2 2-3 5 4-1v7h-5l-2-2-7 2-4-3h-4l-1 5-2 1 1 9 4 8-2 3 5 3v2l-2 1 6 3 2 7-2 1-2 5 2-2 2 4 2-2 2 2h-2l3 5 4-8h10l6 3-3 5 1 2h-2l-2 12-2 4h-4v2h5l-2 3 1 1 3-1 8 2 4 4 1-1 1 3 3 1v3h-3l-1 4 4-2 5 4 9 17 8 3h6v5l10 7h5l6-7-7-14 5-2-1-3 6-3 11 3 5-1 4-3 1 2 7-4-5 5v2h3l9-8 1-3 5-3 9-12 7-2 5-6-5-10 8-27 4-2v-2l6-6h7v-3l-2-1 4-7h4l3-3 2 1 1-2 1 2 14-8v3h3l-3-6v-5h-6v-3l-3-3 2-5-1-7-3 1-4-3v-2l-4 2 2-6-6-12 2-10-5-6 2-4-6-2-3 3h-16l-7-5 1-4-7 1-1-5 4-4-1-2-6 3h-5l-1-2-5-2-4-6-5-1 2-3h-3l-2-3-1 1v-5l2-1 3-14h9v-3l2-1-7-3-1-4 2-3 7 1 3-2 1-5 4-1 5-5 1-2-2-2 4-2v-2l2-1v-7h-2l-1 3-18-3-3 1-2-2-1 2h-4l-4-5v-4l-7 3-1 3-6-1-2-2h-12l-12 2-1 3h-2l-3-4v-4l2-1-2-2v-3l-2-3-5-2 3-2 1-9-9-5v-4l-4-5-3-8v-6l3-3h5l2 5 2 1 2-1 4-8 1-4-7-6 4-3v-5l-2-3h-3l-2-2 6-3-4-5h-3v4l-2 3-8-1 4-5-6-4v-9l-5-1-6-6 7-4 1-3-4-4v-8l-20-23 1-3-2-1-7 4-10-2h-11l-4 2v4l-4 4h2v6l-2 1-10-2-9 2-8-2-1 2-6 1-1 3-8 4-3 4 3 20-1 2-11-2 4 6h2l4 8-2 11-4-1-3 4-3-2-2 1-1 4h-6l-3 3h-6l-3-1-3-5-4 4h-6l2-5-3-3h-5l-2 2v3l-6 3-4 10-2-1-6 2 2 6-2 3h-8l-9-20-6 2-2-1-2 3-7 3-1 2h-3l-3 5h-2l-18 12-8 2-2 3 1 2h2l-1 5 3 4-6 1-2-4h-2v4l-6 2-1-3-8-3-4 3-3-2h-8l-6 3-1-1 3-5 1-6-1-10-3-4 7-5-2-4 1-8-2-9-1 1v-3l-3-3v-5l-4-5 1-1h-3l-4 4-7-1-3 2-5-3-7 2-1 6h-2l-1 3 4 8-3 3h-12v3h-2l1 1-4 6-8 9v7l3 3-2 4 4 7h-3l1 13-12-3-2 2-5-1-7 6h-2l-4 6-1 3 6 2-1 7-3 2 2 3 3 1v4l2 2v-4l3 2 1 3-4 7h-5l-5 8h-4l14 15 2 5 1-1 5 3-2 1 1 5 2 2-2 3 3 5 2-1v3l7 12 2 1 3 7 2-1 2 3-1 4h2l1 2-3 8 3 4-1 2 2 6 7 2 5-2 2 3h6l-2 5-9 7h-7l-4 2-3-1-2 2v3h-5l-3 2-5-2-2 2 3 8-1 4-4 3-3-6-2-1-2 2v5l-2 3h-3v3l1-1 8 2 3 9 11 2 4-2 1 2-2 3 2 3 5-3 1 2 10-1 1 4-2 2 2 4v16l2 4 6 1 1 5 4-2 1 3-3 5v3l-3 1v5l-3 3v10l-3 1-1 4 1 3-2 2 6 3-1 3-2 2-5-1-3 6 1 3-4 4-2-1-7 1-3 2h-8l-1-4-3-1-1-5-4 2-1 3-3-1-3 5-3-1-8 9-3 1v12l7 6-1 8h-3l-3 6h-4l-2 2-1 5-8 1-1 6-3 4-2 7 4 4-5 5-1 4 3 5-1 8 2 4 8 1 2 3 3-1 3 3-2 1 1 1h9l-2 7h2l4 6v8h3l2 6 3 3 2 11h2l4 4-5 8 7-1 5 2 1 3-2 10-8 13v5l-5 3-1 6-4 3-3 10-5 8-6 3v8l2 1-1 5 2 3-3 4 3 7-1 3-4 2-1-3-2-1-3 4v7l-7 4h-3l-3 3h-5l-1 3h4l-3 6 1 2h4l1 4 4 4v2l-4 1 1 5 3 4h4l4 4h3l2 7 2-1 6 4 6-2 2 4 5-2-1-3 3 5v-5l3 2 1-2v4l3-1-2 4 2 2 11 2-1 2h3l1-3 2 2 2-1 3 2 5-1 1 3h5l6 5 5 1 2 3 3 1v2h4l6-3 2 1 1-2 4 4h5l3-1v-2h2l3 1v10l3-2h4l5-5 1-8 4 1 1-3 3-1 2 2 3-2 4 2 3 6 2 1 1 5h3l5-8 1 2 4-4 3 3-2-15-4-1v-4h-3l-2 2-1-1 1-3-2-2v-4l-4-2 1-5h-2l-2-5 3-1-1-2h2l2-3 2-8 5-4 8-13h7l10-4 2-8 3-3h2l3-7-2-3 7-7 6-17 2-3 1 1 2-2v-11l5-3 13-3 2 3h4l5-5-2-2h-4l2-3-2-4 2-1 3 3-1-1 2-1v-8l4-3 1 2h2v4l6 6 13-16 3-1 3-7h2l1-5 5-2-1-3 2 2 4-10h44l7-3 6 3 3-2 3-7 3-3 5-11-1-2 3-2h11l3-6 3-1-1-3 4-2h-2l2-6 13-14 1-3-2-1-8 2-6-1-5-6v-3l-7-6-1-3h4l-4-1v-10l-8 1-1 2-6-2-10 6v-2l-6 3h-4l-2-3 2-2-2-5-12 6-5-6 2-4-3-1v-2l-15 3v-8l-11-1v-9l-3-3-1-9 4-8v-6h10l6-8-2-3-3-1-2-7h2v-2l2 1-2-9 2-4-2-1v-2l-4 2-1-4h2v-3l3-4h-4l-4-3 3-2v-6l-3-3 2-3-1-2 2-2h-3l1 2-4-3h-5l3 3-2 1-4-2-2 1-3-3h-4v2l-4 1-1 5h-4l1 2-4 1 1 2-4-2v2l2 1-1 3h3l1 3-2 1-8-1-4-4h-2l-3-4v-4l-2-3-3-1-6 2h-8l-1-2-3 1v-2l-1 3-2 1-3-4h-2l1 2-1 2-1-1-1 3-3-1-3 3v2h-6l-1-4-4-2-1-5-2-1-7 3-4-4-2 4v-6l-4-1 2-6-2-5-3-1-1-4 5-2 2 2 4-1 1-3-5-2 1-8-8-6 2-9 11-9 1 1 1-3 11-2 1 1 4-6 3 3 4 1-1-3 1-2h2l2-6 7-3-5-11-5-1-8-10 1-5-4-2 1-4 4-3 2 1 1-4 5-1 2-2 6 1 1 3h2l2-3 9-3-1-2 4-2 1-4 7-11 2 1v2l4 1v-2l9-1 4 2v-4l-11-13v-2zm77 104h-5l-2 2-5-2-7 6-4-3h-9l-4 1v2l-3-1-2 9 2 1v7l4 2 3 4 4 1v-2l2 2 2 7-2-1-1 6-3 2 3 3v-2h3l1 8 5-2 10 5 5-4-2-2v-10l4-2-4-4v-2l9-2-1-3-2 1-5-2-2-3 1-2-2-1 6-9-2-8 4-1zm52 83v-2l-4-2h-4l1 3h-3v-3l-3 1-4-2-7 7 1 3 6-2 5 4 2-1v-4l6 1zm77 38h2l-1-3-2 1zm22-10-5 4 4 1 1-2zm-3-2-2 3 1 1 1-2z"/>
</svg>
