<svg xmlns="http://www.w3.org/2000/svg" id="svg1" version="1.1" viewBox="-1191 -71 895.5 989.17542">
  <path id="Heilongjiang" fill="#ff6347" fill-opacity="1" fill-rule="evenodd" stroke="#ff6347" stroke-linecap="round" stroke-linejoin="round" stroke-opacity="0" stroke-width="0" d="M-901 730v14l9 11 6 4h4l1 3 3-1 3 3 5 1 1-2h5l2-4v2l3-2 1 1 5-4 9-2 7 6 5 1 2 4 10-1 1 7 6 6 2 6-4 3-3 7 4 10-1 11 2 2 2-4 3 1 3-4h2v2l3 1 1-2h8l10 5 1 3-2 2-5 1v3l3 3-1 4 8 11-2 5 6 5 3-3v9l4 3 4-1 1 2 5-3 7-1 3-3-2-3 2-1v-6h-2l2-4-3-3 1-4 4 2 4-1 1-7 3-1 6-6h2l5 7 2 6-3 3 2 2-1 12 8 12v5l4 5v4h6l2 3-3 4 2 5-2 1 2 2 1-1 3 6 1 7 3 4 5-1 4 3 2-2 12-4-1-17 2-4 3 2h5l3-4h2l1-3h18l3-3-1-4 8-6 5 1 2 2v9l1 3 3 2 3-4h2v-3l2-2 5-1 3-7 3-2 1 5-2 4 3 4v10l3 4-2 4 1 4h4l7 4 3-1-1 3h3l7 6 1-1 3 7 2 1 3 1 2-4 4-3 4 2 4 5 5-1 6-3v-3l-2 1-4-3v-5h2v-16l-2-3 4-10-2-7 2-4 3-1-13-60-3-7h-3l-3-6 6-2 2-4 3-2 4 1v2l4-2 2 1 1-4 3-2h3l2 2 4-1-1-2 8-5 5-6v-3l-2-1 2-5 2-1 5 2-1-2 7-10h2l2 6 52 18 7 1 3 3h4l10-9-2-17 3-5v-5l2-2-1-2 3-4 11-6h3l-1-3 4-2-2-1 1-1h2l-1-4h-3l4-4v-12l1 1v-2l2-1 3 2 2-3v-4l4 1 1-7 3-2-3-11 5-2 3-5 2 2 2-3-1-1h3l1-3v-5h-4l6-6-3-4-4-1v-2l5-12 6-3v-8l2-6-2-4 4-11-1-3 4-7-1-1 3-4 3 1 2-4v-5l-5-6 1-7 6-4 4-7 11-1 4-3 1-4 6-6 1-4 6-8v-5l-7-5v-7l-4-2-1-4-3-3v-5l6-6 3-6v-9l11-8 10-3 5-4v-3l-1-2-3 2h-9l-4 6-4 1-4-4-11-1-14 4-7-1-5 5h-4l-4 3h-4l-13 5-3 6-8 1-1 6-6 1-3-2-7 2-8-3-5 1-5 4-2 5-7 3-4 6-6-2-4 2 1 5-4 6-1 8-5 3-12-5-6 5h-16l-2 4-16-4-5 5h-3l-2-2-1-5-6-1h-12l-5 4-10 1-4-4-1-9-4-10-8-6-2-4-3-1v-3l-2-2 3-6 4-3 1-6 4-5-7-10 2-10h-4l-4 3-2-2-1-9-4-2 5-17 5-6-1-3-2-1-8 3-5-5-13 4-14-14-7-4 1-4-4-2-1-6-5-1-2-4 1-3-2-3-4-1-4 2-3-2-1-10-6-4-5 2-1 6-4-1-2-3h-3l-5 4h-4l-4-10h-4l-4-3-6 2-2-1-1-2 4-6-2-3-4 2-9-3-13 1-2 4-7-1-3 2-7-1-5-4-4-1-1 2-7-1-3-5-4-2-2-4v-6l-9-6-1-4 2-7-4-5v-6l6-10 1-9-15-7-2-4 2-10-5-3 2-6 3-2-2-8-3-4 1-8-5-4-7-16-4-2-3-5-6-5-1-15 5-9v-3h-6l-1 2 3 4-1 2-4-2-2-5 3-4 3 1 2-2-1-3-1-2-7-2-1-2 4-8-10-8 4-4-2-4 1-3-1-2h-3l-1-4-2-1-10-18-1-8 2-2h3l2-9-16-8v-4l6-4 2 1v-3l-7-1-1-2 3-6-6-9h-5l2-6-8-7-2-1-1 2h-2l-2-2-1-5 2-3 4 1 1-2-2-6 5-2-5-4-4 5-7-10-1-4-2-1h-4l-6 4-1-1 1-6 4-2 1-5-4-2-5-8h-2l-3 3-2-1-1-4-11-5-4-4-7-2h-7l-10 4 2 5-1 2h-2l-2-4-7-1v-5l-7-2-8 1-4-2-1-3-3-1-3-8-5-5-9 3-3-6h-3l-9-9h-10l-3-5-3-1h-2l-3 5v-6l-4 1 2 4-1 1-2-1-1-3h-4l-7-3-9 7-6-1-14 6-14-1-12 2-5-7-5 4h-7l-3 5h-16l-24 10 8 8 4 2v4l-2 1v2l6 3 3 5-1 1 3 2-2 6-5 2-3 9-4 4 1 3-2 3-14 15h-4l-8 8 3 3h5l13 13 3-1 8 4-2 4 3 2 1 5 8 4h6l3-7 4-3v-4l3-1 4-7-1-2h2l3 4 5-1 2 2 1 5h2l3 4 2-2 3 6-1 4 6 2 1 2 6-1 2 2h5l-1 8-5 4h-4v7l3 10h3l-1 9 3 7v8l4 12 3 2-2 2 3 3v7l-2 2 8 9-1 3 3 5 4-1 11 4 2 3h2l3-2 2 1 2-2 2 1 3-2h5l1-2 4-1 3-3 2-5 5 4 3-1 5 7 10-2 3-3h6l6 6 6 2 3-9h2l1-2h4l4 5h5l4-3v-3l7 1 2-5 3-2-2-3 1-2 8-4 1-10 2-3h2v3l6-1 9 3 1 3 13 14-1 1 10 14 3 6-1 1 6 2 2 5-1 3 5 1v2l2-2v4l6 5-2 3 3 5-4 4 1 1h-2v4l-3-3v4l-3 1 1 1-3 3 1 1-4 2 1 3-3-2-3 3h2v2l3 2-3 3 3 12-5 5-1-2-6 8-5 1 1 3h-4v4l2 1-2 1 1 2-4 3v3l-2 1 1 3-3 4h-2v2l-3 1 3 2h-4l-4 4 2 1v2l3 1-1 2-2-2-2 2 3 3-8 6 3 3-1 1 2 4v3l-4 1 3 4v12l-3 4 1-2-4-2 1 4 4 4h2v2h-2l2 3h-2l2 4-1 1 3 3v12l-4 6 2 2-1 6-3 1-4 6-5-3v-2l-4 1-4-2-3 2-1 4-3 1 2 4-5 9-1 6h-2l-1 7-3 1-2 17-3 9h-2l-1 2 2 2v6l-3 2 4 15-1 2 2 2-2 1 1 1-3 4v4l-2 3-1-1-1 3-3 1 4-8-4-1 1-4-8-14 2-1-2-4v-8l-3-3-12 9-13 16-8 7-11 15-19 10-4 11-4 4-20 11-5 5-13 8-4 13-6 4v2l13 20 4 3 1-1 11 4-5 5-1 3 2 4 6-3v13l2 4 5 2v3l2 1 2-2 3 1 4-2 4-10h5l2 3 2-1 2-9-3-4-4 1v-3l8 6 6-2-2 10 2 2h3l1-6h2l-1 3 2 1-3 2 3 1-1 12-19 2-3 2 1 3-5 2-2-2-6 2v-3l-2 1v3l-3 1v13l9 12 2 5 5-2 8 4 1-2 4 2 3-3 4 3 3-2 9-1 7-4h3v4l3-3 2 6-2 2 4 5-1 5 3 7-3 1 1 3h-2l-1 4 7 6v2l-3 2 2 2-4 3 1 2h3l5 6-1 2 2 4 2 1 3-2v3l3 2-1 1 2 3 4-1v5l3 5 4-2 5 4 2-1v-2l5 1 5-1 2-2 1 3 4-2 2 2 3-9 2 1v2l5 1 2 6h2v4l5-3 2 2 4-2 3 1 1-2 2 3 3-2 2-6 5 1 6-2 3-3 1 2zm-100-487h-3v3h-4v2l-3 1 1 7-5 7-5-4-1-4-2-1-1 2v10l6 7v6l4 2 5-3h6v-2l11 1 1 4 2 1 2-2-1-2 2-4v-5l-2-2 6-6v-15l-3-1-4 2-1-2-8-1z"/>
</svg>
