<svg xmlns="http://www.w3.org/2000/svg" id="svg1" version="1.1" viewBox="-166 -118 809.5 773">
  <path id="Henan" fill="#ff6347" fill-opacity="1" fill-rule="evenodd" stroke="#ff6347" stroke-linecap="round" stroke-linejoin="round" stroke-opacity="0" stroke-width="0" d="m-83 323-1 4 3 6v7l-3 2 4 15-4 2 1 3-3 6 2 2h-2l4 3v2l5 3-2 6 1 1 3-4h2l5 4 3 5 4 1 2 7-6 3v2h12v3l4 5-4 9 1 6 1 1 3-3 2 7 11 4 5 12h4l2-2-1-1 2 2-2 5-2-2v2l-2-1 2 2h3v2l6 5 2 3v4l4 4 2 1 8-6 1 4h9l12 11 6 1 2 4 10-2 6 8-1 1 3 1 4-3h3v4l3 2v2l9 6 1-1h-2v-3l2-1 2 3-1 1h7l13 10v-3l4-4h4l8 4-1-2 2-2 8-3 1 1 2-4 5 4 3-1 5 3 9 2 2-2v2l3 2 6-5 9-4 1 3 4-2 10 3 1-7 4-1 7 5 3-1 2 4h4l1-6 7-3 3 4 5 3 3 5 3 1 1 2-2 1 4 4h4l6 5 13-9h2l1 4 2-1v-5h2v-2h3v-2h3l3-7 9-1 4 5-1 3 4 1-3 3v2l3 3-4 10 1 4 2 2 2-1v3l-4 11-1 1-1-2h-2l1 6 8 7-1 3h-2l-1 5 7 3-1 5 4 2v10l5 2 3-1 2-5h2l3 4v9l2 1 3 6 3-3 6-1 1-2 2 1 6-7-1-1 5-1 1-2h3l4 3 2-1-1 1 8 12h7l3 2 4-1 6 3 3-2h5v-4l2 4 3-2v-2h4l1 10-2 2v4l-3 3 1 12 2 1 3-3 6-1 4 6 3-1v4l8-1 3 7 4 1 2 3 3-3 4 1 5-2 2 2 3-4h2l3 4v-5l3-4 2 2 7 1 2-3-1-4 3-4v-3h5l2 1v3l7 3-3 10v7l1 3h4v5l6-1 1 2 4-3h5l2-7-2-3v-4l5-4 3-9 7-6-2-4 7-8 3 1 6-6 8-4 2-3 8 3-1-2 5-2 5 2 1 2 4-4 1 2h4l4-6-3-3v-7l3-6-1-6 2-6 1 1-1-9 2-4-2-4 2-10-4-9 1-6-3-16 1-3-3-6v-4h-2l3-5-5-3 8-9h2l-4-1-7 8v3h-2l-5 5v-3l-2-2-1 3-3 1-5-3v4l-3 1 1 2-2 6-2 1 1-3-4 3-3-3-6 3 1-1-7-6-1-5-9-7 1-2-4-1v-4l-3 2-11 1-1-1 2-1-2-1v-2l-4 2-1-3h-2l-2 3v-2l-4-2 2-2-2-4 1-1 1 2 1-4-2 1-1-4-2 2v-17l1-2 2 1-2-4v-4l2-1-1-2-5-1-2-5-14-2v-3l-3-2-8 1-1-3-7-4 2-3-1-3 3 1 3-2-2-1-1-8h-2v-7l4-3 4 1 4 4v2l6 3h15l5-6 2 2 5-4 5 1 1-11 4-1v-6l2-2-1-6h3l1-6h-2l-2-4 1-1-4-1 2-4-2-4 2-3h2v-8l3-3 4 2 3-8 10-1 2 2 2-2 4 1 1-3 9-1-5-11-1-12-4-6 3-2 4 2v-7l3-4-1-4h-9l-2-1v-2l3-3-1-3 2-7 2-1v-5h2l-1-2 6-1 1-5 2 1 9-3 4 2 1-2 9 7 1 4h3v-4h2l4 4h4l4 3 2 3-3 8 1 2 9 6 1 6-3-1 2 1 2 7 3-1v2l5 3 3 7h2l3-3 4 1v-2l4 1 7-7 2 1 2-2 6-1 2-3h4v-6l3-3 8-1v-2h4v-3l2-1 7 3 2-1 1-12-5-4-5-13-4-3-1-3 1-5 3-3-3-7 6-8-10-4-5 4h-2v-3l-5 3h-5l-2-1 2-3-2-4-8-3-1-3h-2l-1-2-7-2-1-5-6-7 6-7-2-5 1-6-7 4-5-9-9 2-4-4-2 1v4l-2 1-16 3-1-1-2 2-8-5h-5l-2-2-1 5-2 2-8-3-8 1-6-2-7-9v-3l-2-2-1-10 2-1-3-10h-2l-2-4-10-4-8 2-2-1 1-9-6-1 2-7h-8l-4-7h-7l-6 5-2-3h-7l-4 3-2-3-4-2 1-3h-2l-1 3-4-1 3-3v-2h-3l-1-2 1-3 4-1 3-3v-2l-6-6 2-4 3-2 7-1v-9l6-2-2-2 7-7 3-9h5l2-6 1 2h2v-2 3l2-4h13l9-9 7-2-2-9 2-1V9l1 1 1-2 1 1V7l1 1 3-5V0l9-14 6-3h7l14-4v-5h2v-3l1 1 1-3 1 1v-3h3l2-3 6 1 6-2v-2l1 2 2-6-2-4 5-1v-5l10-2 7 1 3-10 2-2-1-3 2-2 1-6-5 1-5 7-11 4-1 2-4-1-5 4-5-2-3 1-4 6-8 1-7 7-5-1-8 5-11 4-7 10-5 4-4-2 2-10-2-1 3-1 1-4v-4l-2-3 2-5 10-6v-7l2-2-1-1 4-9-2-7h-2v4l-6 1v-2l-2 4h-2l-1 4-6 3-3-3 1-4-3-2-5-8-5-3-4 3-6-3-3 6-4-1-3 3v8l-6 6h-4l-6 4v-9l-2-3 1-3-6-1-2 3-2-1-2 2-6-2-2 1-3-4-2 2h-9l-3 3h-6l1-3h-2l-5-5h-4l-7-5h-4l-1-3-6-1-2-3h-6l-6-3-2 2-2-3h-2l-1 4-3 1v-4l-2-1-13-1-2-3v-2l2-1-1-2h-3v-4h-2l-1 2-3-3v3l2 2-1 2-3-6-2-1v4h-2l-3 3-4-6-4 1v3h-4l-3-3h-3l1-2-2 1-1-2h-2l-2 4 1 3-3 4 1 6-6 8 3-1v5l-6 2 7 4-1 4h-5l3 4 1 7-3 1-1 2 5 1v2h-2l2 2-1 3-5-2-2 1 3 9-3 10 3 3v2l-2 3-2-2-6 2 3 3-3 1 3 3-2 8 2 3-1 2 4 4v6h-6l-3-5-1 1 1 6-6 8v7l-9 2-3-1-9 8h-3l-1-2-3 1 4 2h-2l-1 2 1 3-10-4-5 1v5l-3 1v4l-2 1v4l-2 1v2l-18-5v3l-2 1 1 8-3-1-4 2-1 4-3 2-10-2-8 8h-6l-1 3v-5l-5-2-2-4-2 2-1-3-2 2 3 4h-5l-4 2-4-2-3 1-3-2-4 1-8-3-4 4H82l2-5-8 3-3-1v-2l-11-3-2 1-8-3 3 6v4l-5 3 3 7-1 18-5-4h-6l-1-2h-8l-2 2-3-2-6 2-1 5-5 3h-3l-1 2-9 2 2 6-5 2-4 7-3 2-1 5h-7l-6 4-6-2-5 4-6-3-7 4-4-2-5 5-7-4-3 1-4 8-11 2-7 6h-2l-1-3-4-1-2 9-9 9h-2l-4-6h-4l-7 8-12-1-8 4-8-4-8 3-6-2-2 5 5 1-4 3v8l3 4 1 5 4 4h4l5 10-1 4h-3l-5 5-1 2 2 5 14 5 1 3h4v2h4l3 3-4 7-3 2v12h3l1-2 4 7v3l3 1v3l-6 3v3l-5 1 3 8h7l6 3 2 4 5 2 2-1 6 13-1 5 7 7 12 4 4 5zm3 59v-2l-2 2zM496-44v-2l-2 1 1 2zM272 519v-3l-3 3 1 1 1-3zm-133-12h-1z"/>
</svg>
