<svg xmlns="http://www.w3.org/2000/svg" id="svg1" version="1.1" viewBox="-166 -118 1415 904.5">
  <path id="Hubei" fill="#ff6347" fill-opacity="1" fill-rule="evenodd" stroke="#ff6347" stroke-linecap="round" stroke-linejoin="round" stroke-opacity="0" stroke-width="0" d="m321.5-94.5-2-2-3 1 5-6-6-7-3-1-2-4h-3l-2 1-6 11-11-3-1 2-5 1-2 2 1 7-2 2-1-2-2 2-9 1-4 3-1 7-3 1-6-7-2-6-5 2-6-2-1-11-3-10-2-1h-5l-2 2v4l-8 7-3 4 1 1h-18v-3l-6 3-1 3-7-2-12 2-12-11-23 4-4-1-3-3-5 2-3-1-7-5-13-4-21 4-10-6-3 2-2-1v-3l-2-2h-4l-2 2v7l-3 1-7-3-7 1-2 7-3 1-8 11 5 2h8l9 4 3 3 3-2 1 2 6-2 10 1 3 3 16 7 1 2-2 16-4 17 6 6 9-3 2-4h3l2 2h6l2 4h11l8 3 3 4 12 6 2 4 3-1-3 7 2 3 4-1 1 4-2 13 9 12-7 9-11-6-4 2 1 6-11 8-6-1-4-6-5 1-6-4h-6l-6 3h-5l-11-2-6-4-17 1-3 5 4 8-4 4-5 2-2 2v3l-5 3v5l-4 4v8h-3l-2 4 2 12-3 5 6 7 4 9h4l4 2 2 3-3 9 1 5 5 7-6 12v8l8 11v4l-2 3-5 1-2 5 4 4 6 15-1 2h-5l-2 3v8l2 2-4 3 6 4 5-2h9l1 3 6 1-1 2 3 6-1 7 5 6-4 1 1 4-4 2v4h11l3 2 3-3h3l11 8 5-1 4 3 7-1-8 7 1 2 2 1 2-2h4l12 14h11l2 4h2v5l4 7-1 4 2 3-2 5 1 6 3 1-1 4 2 10 3 3v2l-2 2v4l-5 3-2-1-5 6v4l2 3-2 5 3 1v9l5-1 1 3-5 11 2 3-6 9-1 5-4 3-2 7h-5l-3-5-4-2v-5l-2-6-2-1-9 2-1-2-8-2-14 8-7 2-12 10 1 5-3 2v-3l-3 3-6 2 1 5-2 4-4 3-7 2v6l-3 4-6 2v-6l-4 2-6 7-5 2-11 18-8 9-2-2-1-5 5-7-3-5-6-5 3-3-3 1-3-4-8 8h-4l-1 2h4l-5 2-5 6-4-1-4 6-2-3h-3l1-1-6-7-2-6 5-3 2-3-1-3h-11l-2-2-4 2-2 3-2-1-2 2h-4l-4 5-5 2-14 18-5 3-5-5-8 4-3-2-3-7-2-1-2-9-4-1-5 3 2 8-8 6 1 2-4 1v2l-4 4-2-4h-5l-3-3h-4l-4 3-7-1-3 3 2 6-2 3 2 1 1 3-2 5h-3v4l4 1 2 3 5-1 1 3 6 6h3l2 2-1 2 2 1 2 5 4 3h3l-3 6-3 13 3 2-6 17h-2l-1 2v2h3l-1 10 3 2-5 11v17l-2-3-7 3-6-3-6 5-2-2v2l-4 3v4l5 1 1-4 1 3 3 1v9l3-1 1 3-2 5h5l1 2 4 1 2 4 2-1-1-4h3l5-4-5-3 6-11 4-3v-3l4-4 4-1 2 1v2h5l2 8h-2l4 3-1 11 2 2-1 4 2 4-2 2h7l-2 3 4 1 4 5 5-1-1-4-4-3 6-1 2 7-1 3h-2l1 2 3-1 2 2 3-8v4l3-2 2 5 2-2 3 3-3 7 3 2 3-4v5l2 2-5 4v11l-3 3v3l1 5 2 2 7 1 4 5-2 2-3 16 10-1 5-7 6 1 1-7 3-2 5 2 1 3h2l3 5v8l-2 5 7 4-6 12 5 9h3l1-2 2 1 8 6 3 6 3 1 1-2h4l-3-8 3-2v-6l-3-5 10-6 7-7v-4h-2v-13l5-3 4 2-4-8 1-3 4-3 2 1-1-2 3-2-2-3v-5h6l-2-3v-5h3l2 4 2-1-2-3 1-5h5l3-7v-2h-2l1-2h4l-2-2 1-2 8 4 9-6 6 2 4 6 2-2h5l3-2-3-4 3-5-1-3 8-3v-5l3-3-4-2v-2h3l4-4 14-2 7 2 7-3 6 2h8l8-3 9-1 8 7h5l11 5 8 7 1 7 3 1 5-2 3 6 3 1 8-6h5l1-6 3-4 7 4h4l16-11 5-6-5-11-3-3-3 1-1-2-5-1v-3l-3-3 1-4-7-3 1-7 9-9-1-2-8-2-3-3 2-1-1-6h19l9-5 7 4-1 1 2 3 4 2 1-2h3l4-3-2-12 3-2 7 1 2-2h6l5 3h9l1 10 13 1 6 2 38 2 3 2 2 4h3l2 2v3l4 3 1-1 4 8 1-2h6v6l4 2 6-4 7 3 9-2 4 7h19l2 2 6-1 6-6 5-1 7 3 2 1v2l4 1v3l2-1 4 5h9l1 3 4 2 4-1 1 1-3 4 1 3 4 2 2-1v2l4 1 10 7-2-3 2-2v3l2 2-3 10 1 3 5-1 3 6 2-1 1 2h4l3-2 3 3 3 7v-3l4-1v-2l3-3v9l8 4h3l1 2v4l-4 7v8l2-4 4-2 1-3h9l10-12 3-8 11 1 1 4 5 3 7-6 7 3 3-1 3 2 1 3 5-2 1 3 8-14 1 2 6-4v-2l5-1v-7l3-3-2-2 12-10h6l1-2-3-1 3-1 6 3 1 2v3l-2-2-1 2 2 8v9h2l3-3 3-8 5-4 1-3 3-1 1 2-5 15-17 16 7 30h4l3-5 8-6 5 1 3 15 3 4 2-3-1-3h6l2 2 2-2 13-18 9-8 9-14 14-16 10-7 21-19 2 3-1 4-2 1v5l-3 4 2 9-4 6v3l2 2 9 1h7l3-3h2l3 9 4 1 1 6 3-1 1 4h2l-6 8-5 1v2l-9 4 2 3 7-1 8 8 3 1 2 4v2l-3 3 1 3-3 4-10 1-2 4v7l-5 3-4 14h5l4 6 1-2 5 1v6l-5 7 1 5 4 6-1 7 2 1 2-4 3-2v4l3 6 6-8 10-2v7l5 2 5-1-1 6 3 2 9-4 1-10 4-2 3-5 9-6 5-10 18-3 3 1 8-4h5l-1-7 3-5-2-4 2-2-1-5 2-1 7-3 3 1 4 7h5l5-3h5l3-2 2 5h12l6-4 7-2 5-6h5l5-3h10l2 2v4l3 1 5-5 4 1 4-3 7-2 2 1v2l3-1 3-5h4l2-10-2-1v-3l-5 3 2 4-5 4-2-7h-2l-1-2 4-4 3-7v5l5-3v5l2 1 3-2 2-3-3-2 1-6h3l5-4 6 6 10-3 2 2-2 6 12 2v-13l4-3-1-2-7 2-2-2 2-1v-6l2-4-4-1-3-4 3-3 3 4 7 3 17-1 1 8 2 1 8-6h6v-2l20-18-1-5 2-10 5-2 1-4 7 1 22-3 7 3 10 9 14 9 17 6 6-1 15-7 5-6 11-7v-12l-2-5-9-11v-12l3-5-2-5 1-14-6-9 2-8-3-4h-3l-3-5-4-1-2-8-5-3-6 1-3-2 2-5-6-9 3-4h2l2-4h3l1-2-4-1-5-5 1-6 4-7-6-6-2-6-5-6h-6l-2-3 1-6-9-9v-5l5-11h4l2 2 5-1 3-4v-2h-2l2-3-3-6v-4l3-4 3-3 9-2 1-3 13-10h4l1-2h6l-2-11h-8l-2-5-8-3-3 1-1-6-7-4-4-11-2-1-6 4-4-1-8 4-2-6-3-2-7-11-9-2-4 6-5 2-1 5-2 2-5-4-3-6-2-13-4-4-7 1-3-4 1-7h-2l-1-6-4-1-3 2-6-2 2-2-1-3 3-4-4-3h-7l-1 3-3 2h-2l-1-3-3-1-3 3-2-1 2-4-2-3-6-1-2-4 2-4-1-5 4-14-8-2-5-9-7 2v4l-3 2-1 3 2 6-4 2 1 2h-6l-8-4-2 5-2 1 2 2-2 1v3l-3-1-1-4-2-1-5 5-2-1-8 2-3-2-7 5-3-5h-4l-3-4 1-5-15-1v-4h-5l-3-6h-2v-2h-5l-3 1-2 4h-5l-2-18 2-3h2l1-7h2l1-2-3-2 2-10-1-2-2 1-3-2-1 4-3 2-2-5h-2v5h-7l-2 2-2-1-1 2-5-1v-2l-3-1-5 1-4-3-11 1-10-18-3 1-2-3-5-2-3 1v2l-6-1-2 8-4 1-2 4h-3l-2 3h-8l-7 4-2-7-3-2 1-4-2-3 2-6-4-3v-2h-2l-3 2-2 4-7 2-5-8 1-9-5-3 2-7-11-4 2-7h2l2-4-8-7v-2l-3-1-1-9 5 2 2-10 4-5-2-5-1 1-3-3-2-5v-4h2l-2-5 1-2 5-2-4-6 3-9h-2l-1 2-2-2 2-4-2-1-1-4h-5l-1-2h-7v2h-2l-3 6-2 1v4l-2 1-4-2v2l2 1-3 1-2-2 1 3-6 3 2 5-2 1v-6h-4l-18 13-6-2v-2l-3-2h-6l-5-5v-2l3-2-2-2-5-1v-3l-7-5-8-9-8 2-2 2-2 8h-5l-2-5-6 1-9-7-5 2-2 4v6h-3l-4-4h-9l-2 3-4-5-17 9-1 3h-3l-5-3h-7l-14-7-4 2-8-5-2 6-2-2-5 2-3-1-6 5 1 3-11-6v2l-4-1-7 6v4l-18-12v-2l-5-2-6 2 2-2-3-4-4 1 3 1-2 4h3l-1 2-4-3-1-3h-4l-5-4 1-3-4-2v-6h-3l-6 5h-2l-1-2h-2l1-2-3-1-5-10-15 3-2-5-9-2-17-15-8-2-4 2-1-6h-2l-11 9-8-8v-5l-9-9-2-3 1-2-9-3 1-1 2 2 1-2 2 2 2-2 1-5-2-3v2l-4 3-5-1-1-6-5-10-16-7v-7l-2-2-5 4-1-1-1-9 2-6 3-1 1-2-3-8-3-2v-4l-11-2-5 1-1-3 8-4v-3l-3-3 1-3-6-2-3-3-1-4-4-2-3-4-5 2-3 4-1-1zm496 192-2-2-1 1 1 4 2-2zm-496-199-2 3 2 4 2-5zm304 183h4v-2zm34 545-1 2 5 4 1-2z"/>
</svg>
