<svg xmlns="http://www.w3.org/2000/svg" id="svg1" version="1.1" viewBox="-166 -118 704 798">
  <path id="Hunan" fill="#ff6347" fill-opacity="1" fill-rule="evenodd" stroke="#ff6347" stroke-linecap="round" stroke-linejoin="round" stroke-opacity="0" stroke-width="0" d="m119 433.5-1 3h3l4 3 1-1 6 3 12-1 1 6 5 1 2-2 4 3-1 5h-2v7l-2 3 2 6-4 4 3 3-4 1v3l-3 2 1 1-4 8h2l4 6-1 1 3 6 6 1v-3l4-3 3-1 1 2 3-2 1 3 8-1 1 3 2-1 2 1v2l-7 1v12h-3l-2 3-9 2-2 2v10l4 6-6 24-4 2-1 4-4 3-6 1-5 9-5 3 2 6-1 3-8 6-6 2-3 8 1 1-4 6v5l3 5-1 2 3 2v4l-2 2 3-2 2 1 11-3v-13l5-1 8-5 9-10 3 4 7 3 3-4h2l3 4h3l-2 9 6 2v3l-4 2-1 4 5 7-3 2 2 2-1 5 4 7-3 7 1 2-5 7h2l1 2 3-1 4 2 3 4 3-2 1 1 4-7 6 1 1-7 3-4 5-2v-2h10l4 3 7-1 1 3h8l1-2h2l8 4 1-4 3-3 7-6 4-2 1 1 3-3v-10l-4-1-3-4v-3l5-6-1-4 2-2 1-8 3-6-1-2h7l8 4 1-3 7-2 4 7h2l2-2v-3l2-1 2 4 6 3h20l1 3 6 5v7l4 7-1 3 6 3-1 6h12l4-4 8 1 6-4v-5l-1-2h-2l-1-5 5-8-7-8 1-4 8-5-5-6-3-1h-5v2l-9-1 1-4-2-2-1-6 6-1 1 4 3 1 3-5 5-2 4 1 1-2 7-3 1-4 3-2 2 1-1-5 4-3v-3l3 3 9-6 5 3 1-3 2 3 1 7 2-1 5 3 1 4 6 1v3l2 2 3-2h7l1 3 1-2 6 3 1 5 5-3h7l1-3h6l1-2 3 5h7l2-2v-3h3l2-2 2-8h7l-1-3 3-4v-6h3l1-5-2-2 1-3-3-2-6-13v-4l6-7 1-8 8-8v-13l-3-3v-2l3-2 2-6 3-1 2 2h3l2-3-2-1 17-8-3-3 2-1-2-4-3 1-2-2-15 7-1-3-2 1v-2l-1 2-2-1-7 5-2-2v-3l3-2v-3l2-1-1-2 7-4-1-4 3-6-2-6 8-6-1-3 3-6-5 1 5-14-8-1-6-5h-12l-3-3v-3l-2 1-1-2v-10l-3-9 5-9h2v-6l2-1v-3l3-3-1-2h-4l-3-8-6-3-1-6-1-2h-4v-4l10-16 3-8-3-3 3-6v-5l-7 3-1-1-12 3-3 3-5-3-4 1-3-3 2-8-3-1v-6l4-4v-3l-1-2-1 2-4-1v-3l4-6-1-2 2-6 11-13-1-2 9-8v-7l-4-3-1-3 3-7 9-7 3 2 2-5 2 2h5l3-4h4v-3l8 1 2-4-3-4 1-1-2-1v-4l-3-5 3-2 5 1 7-2v-3l5-5v-2h3l2-3h2v-3h2l5-5-1-2 2-2-2-2 1-4h-4l-4-5-3-1h2l4-7-5-2-7-6h-3l-2-3 6-7-1-11 4-9-2-6 2-3v-4h-3l-1-2-6 2-3-6 2-2-1-3-4 2-3-5v-3h-5l-3-15-6 3-3-2 1-4h-7v-5l-7 1-3 5h-2v-6h-2l-3 4-1-1v-5l-3-4v-4l4-5-1-4-4 1-3-4h-3v-2l3-8 4-4-1-3 2-3 8-1v-5l3-2-10-11-5 1-1-2 5-2 9-8-5-4v-3l-4-1-1-6-4 2-12-2 3-8-1-7 2-3-1-1 2-1-1-4-25 21-30 38-6-2 1 3-2 1-2-2-2-11-5 1-7 7-2-1-5-20 4-6 8-6 3-11h-2l-4 4-3 7-2 1-2-1v-10l-5-4-6 2-3 4-3 1 1 2-2 7h-3v2l-4 3v-2l-2 1-4 9-2-2-3 2-1-3h-4l-2-2h-3l-4 3-4-1-1-3-8-1-5 11-1-1-3 4h-5l-6 7-1-2 4-11-1-2-8-3-1-2 2-4-5 3-1 3-4-7-7 1-3-4h-3l-1-2 2-3-1-8v4l-10-7-4-1-1-2 2-3h-4l-2-1v-2l-7-1-9-7-7-2-7 5h-11l-2-2-4 1-3-5h-11l-3 2h-4v-4l-2-2h-3v2l-4-6-3-1v-3l-4-1-3-4-27-1-4-2h-9l-1-7-9-3h-5l-1 2h-8l2 5-2 6-4 1-4-3 1-1-5-2-7 3H54v4l-2 1 4 3h4l1 2-5 4-3 7 3 2 1-1 3 9 9 3 3 6-1 4-14 10h-3l-5-3-2 3v4h-4l-6 5-2-1v-3l-2-2-5 1-1-5-6-5-3-2-8-1-6-6-18 4-4-2-5 2-11-1-8 4-1 2 3 2-2 1v3l-5 3-2 5 2 4h-5l-2 2-2-4-5-2-4 1v2l-3 1-5-2v2l-3 2 1 4-2 2h-3v6l-4-2 1 5-4 1v8l-2-1-3 2 3 8h-6l-1 5 2 8-3 4-9 4 2 5-2 8 2 1v2h-6l1 4 7 4h3l1 4-4 4v4l-4 5v7l-3 2 1 17h2l-1 1 6 4-2 4-4 3 2 2-4 4-6 2-1 3 2 3 5-3 2 2 6-3 3 7-4 2v3l-3 4 1 4-2 4v5l1 5 3 3-3 5 1 4 3 3-1 2 6-2 3 1v3l1-2 4 1h-2l-2 2v3h-2l1 2-3 5v7l-3 5-2 11 5-5 5 5-7 6v3h-2l-1 2 2 3 1 10h2l-1 1 2 3v6l-2 1 4 4v3l2 1-1 2 6-1v2l7 5-2 1 2 7-2 6 1 3-11 4-7 6-3 3v7l-7 1v-2l-4-3-6 5-2-4-4 3-1 2h2l1-3 1 2-4 3 2 1-2 6h-2l1 2h-7l-1 9h-7v3l-3 1v2l-2-1v2l-5 2 2 2v5l-5 6v2l-4-1v2l-4 2-2-2-2 3 7 3-1 2 5 4-1 3 6-3v-2 3l4-1-1-4 12-8h4l2-2h7l-3 3-1 4h8l1-3 1 1 5-5 3-6 3 4 9-1-1-2 7 1 1-2h3l3 6 2-3h2l-1 8h3l-4 2 4 2 1-4 3 1-1 1 4 8-2 5 3-1 1 5-15 8v4l1 1 4-5 5 3v5l-2 2 2 10 2 2 3 1v-3l2 1 1-3 2 1-5 6-4-4h-3v-2h-6l-5 3v3l-4-1v2l-4 3-9-1 6 8 3-2 7 17-3 3v4l-3 2v2h3l-1 2-7 4-4 11-3 2 2 5 5 1 2 4 13-4 3-4 2 3-5 8 4 5-1 2 2 6 5 3-2 5-7-1 1 7 3 1 5 7h2l4-4 3 1 6-4h2l1 5 2-1 2 1v2l3-2 2 1v4l-4 2-2 4 2 3v2h-2l1 3 8-2h2l2 4 4-2 2-5-3-9-3-1v-2l4-6 6 2 2-1 4-16 8-8 2 3 3-1 3 3 9-1v5l-4 10 1 4 3 3 2-3 3 3h2l2-1v-3l3-3 7 6v8l2 1 8-2 7-17 12-12 2 2 4-3 4-7 1-8 3-1 4-5 4 3 3-1 6 3 4-3 1 4-2 3 3 2h10l2-2 8-1 2 3 1-7-2-2 3-1v-7l4-2 2 3zm-198-68 2-1zm445-430 1 1 1-2-1-2-4-2-2 1 1 1zm-437 443-1-1z"/>
</svg>
