<svg xmlns="http://www.w3.org/2000/svg" id="svg1" version="1.1" viewBox="-166 -118 630.97321 810.5">
  <path id="Jiangxi" fill="#ff6347" fill-opacity="1" fill-rule="evenodd" stroke="#ff6347" stroke-linecap="round" stroke-linejoin="round" stroke-opacity="0" stroke-width="0" d="M332.5 197.5h3l4-3 2-4h2l5 7 1-2 1 1 2 11 8 3 2 3 3-1 3 4h2l6-7-1-6 4-4 5-2v-2l2 2 6-2 4-4 3 2 4-4h4l2 2 2-1 4 3v-5l2-3h3l-1-4 4-3 6 2 3-1 2-3 2 1 2-2 11-1v-8l3-3-1-3-4-1-3-3 4-5 14-7 2-3-2-10-3-2 3-4 2-8-8-2 4-2-4-7v-7l3-3-2-3 2-1v-3l-3-2 1-1-4-1 2-2-4-13-10-5-3-12-2-1-7 3-1-2h2l2-3-3-2-2-4-7-1-1-4-2 3v-2l-1 1-4-6 1-5-5-4 2-2-2-2 1-3-2-3 1-6 4-1 2-3-2-7h11l3-3-2-1 6-5v-5l-10-8 1-3-2-3 3-2-1-2-5-4-6-2-1-4-4-1h-3l-1 2-3-1-3 3h-8l-8-4-5 3-3-1-2 2h-4l-2-1-1-5-4-4-8 5-5-2-1 1-2-3 1-7h-5l-6-6 1-8-5-5v-10l-4 1-1 4-3 1-3-6-7 4-3-1v-11l-5-3-9 2-2 3v5l-7 4 3 4 4 1 1 3-4 4 2 3-1 3-8 4-9 1-1 3-4 1-9 6-3 5-4 2-5-1 1-3-2-1h-2l-5 5v-4l-9-7 4-5v-2h-3v-2h2l2-6h2l8-10 2 2 4-3 9-12 2-8-1-3-3-2-4 3-1-7-3 2-5-8-13-4-9 2-3 7-2 16-10 1-28 17-4-5-3-1-9 1-19 13-6 2-13-5-10-6-7-7-5-2-20 2-1 3-3 1-2 7 1 3-15 15-1-1-6 2-2 3-3-2v-4h-14l-4-4-2 1v2l4 2-2 6 1 1-2 1h7l-2 2-1 5 1 6-9-2 2-4-2-2-7 2-4-3-3 1-1 2-2-1-1 5h3l-2 3-2 1-2-1v-2l-3 1v-3l-5 8 2 1 1 4 3-1v-4l4-2-1 2 2 2-2 2v4h-2l-3 4h-2l-1-2-7 4-4-1-3 3h-3v-3l-2-2-6 1-7 2-4 4-9 4h-7l-3-2 1-1-13 3-5-6-6 2v9l-2 4 1 4h-4l-2 2-8 2-11 1v3l-3 2v3l-7 3-1 4-3 1-1 7 3 15 1 1 4-2v4l3 5 1-2h3l1 3-2 2 3 6 6-2 1 2h2l1 4-2 2 2 3v4l-4 8 1 12-6 7 2 3 5 1 2 3 8 4-3 6-3 1 3 1 4 5h4l-1 4 2 2-2 2 1 2-5 5h-2l-2 6h-5v2l-5 5v3l-7 2-4-1-4 2 3 9 2 1 2 5-2 4-9-1 1 3h-5l-4 4h-3l-1-2-3 5-3-2-9 7-3 9 4 2 1 9-9 8 1 2-11 13-2 7 1 1-4 6v3l4 1 1-2 1 2v3l-4 4v6l4 4-3 2 2 6 5-1 5 3 9-5h7l7-3v5l-3 7 3 2-3 8-10 16v4l3 1 1-2 2 8 4 4h2l3 8h4l1 2-3 3v3l-2 1v6h-2l-5 8 3 10v10l1 2 2-1v3l3 3h12l3 4 11 2-5 14 4-1-2 11h-2l-5 5 2 5-3 6 1 4-7 4 1 2-5 6v3l2 2 7-5 2 1 1-2v2l2-1 1 3 4-1 6-5 5-1 1 2 4-1 2 4-2 1 3 3-7 4-10 3v5l-8-2-2 7-3 2v2l3 2v14l-8 8-1 8-6 7 2 10 4 7 3 2-1 3 2 2-1 5h-2l-3 4 1 4-2 2 1 2h7l-2 4 1 2 3 2h4l-3 2 4 3-3 3 3 3h-2l-3 4 3 4 3-4 3 1 2-3 8-3h4l2 3 10-1 1 2 3-7 8 3 6-4 3-6 4 2 4-2-1-2 4-2 6 3-1 1h3v4h2l3 5 3-1 2 2h4l2 5 3 1 1 5h-2v2l-1-1-4 2v3l-2 1v2l7 3v4l-9 4-3 4-11-1-3 8h-2l-2 3-6 1v2l-8 4 1 5h-2l2 2v3l-8 10-1 9-5 2-3 5-13 1 3 5h-2l13 3 4 9 4-2 1 1v-2l6 4-1 4 2 1v4h2l1 2 14-10 1 2 6 1 4-6 2 1 4-2 2 7 3 1 4-5-1-7h7l5 3 3-2 2 1-1 2 2 3 3-3 3-12 5 2 3-3 6 1 4-6 4 2 1 3 3 2 1-3 6-2 3 1-1-3 8-3 1 1 3-4 3-1 7 4 2-6h2l3-3 7 4 8 8-1 1 4 3 2 9 3 1 2-2 7 3 3 3v5l8 1 5-4h8l-8-9v-4l-3-1 4-1 2-3-4-1-3-5 3-5-2-3 2-6h2l-1-3h3l-1-2 3-5 3 1 2 4 6-1-3-3-1-3 2-2-3-3v-2l1-1 5 3v-2l-2-3h-3l-1-4h2l3-3 1 1 1-2-2-5-4-1 1-2-2-1 2-4-1-2h-3v-8h3l3-3h4l2-9 5 1 2-2 1-3-1-3h-2l2-2v-7l2-1v-8h-2v-3l4-3v-4l4-3-3-6v-3l2-2 1 1-1-9 1 1v-2h5v-3l2-1 1-4 5-1v2l2-4-6-6-1-5 8-6 12-2 6-6 5-1-1-6 3-4h2v-2l3-3 9-7-3-9-4 3-6-2 1-6-1 1-1-5 2-5 3-2-1-1 3-2v-2l7-5 3-7 6 3-1 3 6-1 1-9 4-4v-2l-6-1 1-1-2-1 2-1-5-6-3-1 3-6 1-7-3-1-5-8 6-9-1-10 7-7 7-11 6-4 7 1 3-4h9l6-3h4l1 2 4-6 11-6-1-7 7-8h2l5-5 2-7-1-2h-3v-3l-5-2v-6l4-4-1-7-2-1v-11l-3-4-4 3-4-2-2-10 5-6h2l4 6 2-1 1-2-2-4 2-3 11 2 1-4 3-2 2 1v-2h2l2-3v-3l2 1 2-2-1-8-1-2h-2v-4h3l2-3 3 2-1 3h3l1-3 9-5zm-96-259v-2zm1 0-1 1 2-1z"/>
</svg>
