<svg xmlns="http://www.w3.org/2000/svg" id="svg1" version="1.1" viewBox="-166 -118 1022.5256 948.5">
  <path id="Jiangsu" fill="#ff6347" fill-opacity="1" fill-rule="evenodd" stroke="#ff6347" stroke-linecap="round" stroke-linejoin="round" stroke-opacity="0" stroke-width="0" d="m207.154 35.5-6 4h-4l-1-2h-11v3l-9 1-2 2-2-2v6l-3 1-3-3-1 2h-2l2-16-9-7 2-3 4-2 4-8-8-2-1-3-2 2-8-3v-2l4-3 2-5-4-5 2-2-3-2-6 1-6-2v3h-2v-2l-3-1v-2l-5-2h-3l-2 3-5-1-1 5-20-1 1 7-2 8 2 14-21-6-2 7-5 5-2-1-1 2h-4l-3 6h-4l-4-3-2 2-8-2-1 2v-4h-4l-8-12-3-2-1-5-5-3h-4l-6 2v2l2-1 1 2h-6l1-2-5 1-1 2h3l2 2-2 3h-4l1 7-3 1 2 4-1 1-2-3-2 2 3 2-2 4-2-1-6 3v2h-7l-4-20 2-8-9-19-6 2-2-8 2-8-9-11h-5l-3-1v-2h-2v-3l-3-2v-3l4-1-1-7-7 1 1-5 8-1-2-2-8 1v-5l-12-7-6-1-1-8h-2l1 9h-2v-10l-2-1v4l-2-1 1 3 2 1-2 1-1 5-11-2-2-2-2 1-3-2-1 2h-6l-4-2-1 4-10 3-21 3-7 10v21l-6 1-1 2-1 6 3-1 3 3-6 12 4 3 9-3v5l8 3 3 6-1 3 7 5-1 2h5l7 7h2l-1 4-3-1v2h9l7 3 15 1 5 4 2 5 8 9h4l11-4 11 4-2 4v2l4 1-2 7v9l2 3 7 3 1 4 3-2 1 1v8l-4 9h2l2 3 1-1 7 3 3 3h3l1 6 5 1-1 3 7 3 4-1 2 2h6l6-3 1 2 3 1 1-4 5 1 2-2 4 4-1 2 3 1 3 6 2 1 18-8 3 2 2 4v5l5 6 7-3 2-4-2-3 1-1 3 1 7 9-1 4 2 8 5 10 2 2 7-3 1 2-2 13 1 7-3 9h-2v3l5 6 10-6h8l9 4v-2l3-2 4 2 3-2 2-6 1 3 9 1v2l2-1-1-1 7-2v-2h10l5 4h7l-6 6 3 1v11l-10 10 1 6-2 13-2 1 2 2v9l-11-3-1 4-3 3-2 11 3 8-7 5h-4l1 3h3l-3 12-7 4 2 2-2 4 1 2h6l3 3-2 2 1 5h3l6 6v4l20-8 2-2 2-8 5 1 3 3 2 4v5l-1 9-2 2h2l1 4h-4l4 1 1 3-3-1v2l4 1 3 17 3 3h7l1 2-14 7 3 17 2-2h4l1 2h2v13l1 2h3l2 4 3-3 3 1v10l10 1 5-5 2 3 4 1 14-2 3 3 12-6 12 6 9-4-4-12 2-2-1-11 1-1 8 2 4-2v-13l1-1 4 2v-2l2-1v-7l3 1 3-2 2 1v4h7l11-4h5l2 7h-2l-1 4 5-1 2 8 9 10 15 1 5 25-1 15 4 7-2 3v4l-4-1-2-4-1 1-1 5-4 2 3 3v2l-5 8 1 2-9 5-2 3h-2l-2-7-3-1-1-5-4-1-4 3h-3l-3-2v-3l-5-4v-2h-3l-1 2-5-2 2-1-1-4 3-2h-5v2l-1-1-1 2-4 1-4-1-1-6-4 4h-3l-2-1v-2l-3-1-3 3-3-2v-2h-5l1 4-8-1-5 3-1-3-5-2-5 3-1 5 8 6-1 3 3 2-2 3h-3v4l7 3 3-2 5 2 3-1v12l-2 5 2 3 1-1 1 6-2 1 3 3-1 2h-3l2 2-7 3v2h2l-2 7 3 2-1 4-5 6-8 2-4-1-10 3-2-1-3 4 3 8-2-1v5l-5 1-1 3-11 4-4 5 2 2-1 4 2 3-2 1v5l-4 7v6l19 11-1 4 7 4-4 13h4l1 3h4v4l4 4 3-4 4 1 2-3 3 1 1-2 3 1 2 6h5l3 4-10 8v5l3 2h11v3l5-7v-4l5-1 5 3-3 2 3 8h3v-2l8 1 2 6h-2l3 2-1 2 2 3-2 7 3 1-4 18 1 5-4 6-9 5-6 1 1-3-1-2h-2l-6 14-1 6-3-2 1 1 4 3 6 1 3 4v4l3 2 14-2 3 1 5-2 13 3h3l2-2 11 2 2-2 3 1 1-3 8-6 1-3h3l1-2 4 2v6l2-2 1 2 4 2 4-1 1 2 5-3 8 1 2-9 5 7-3 12 1 4 1-1 1 2 3-2 2 1-3 1 1 3 5-1 6 3 1 2 3-1 1 2 2-3 4 2 3-1 5 4 4 7h3l3-4 12-9 4 4 2-3 12-3 3 3-1 2 4 2 3-3v-3l7 1 2 2 8-2v2l3 3 2 9 10 16 9 5 15 14 21 3 10-1 12-4-3 9 2 6 2-3 8-2-1-5 4 1v8l3 3-2 3 3 3-1 5 4 4 2 7 3 2 11-17 5-4h10l2 2v-4l1 1 4-5 3 3 1-1-1-2h2v-8l-3-6-2-1 2-4h5l4 2 3-3h2l-1-4 10-2 5 3h3l5-3 2-7-2-3 2-7-2-2h-4l-3-2 3-3v-2l11-3 16 2 1-2 3 1v-3l6-1-2-24h3l2-5 3 4 2-3 4 3 4-2-3-6-1 2h-2v-9h-2v-2l-2 1v-3l2-1-1-1 6-3 2-5-2-2 3-2-3-2 7-3v-2l5-4 3 1 1-4 2 4 4-3h6v-2l2-1 2 1 4-3 5-9-15-13-26-30-5-1 15-16 18-8 4 1 9 5 8 10-1 1 2 3 6 4 16 5 4 4 28 10 47 12-1-22-15-32-3-13-3-6-15-16-2-6-31-12-9-2-3-3 3-3-7-4-8-1v-4l4-1 3-3-1-11-8-4-1-18-3-14-2-3-12-6-15-2-21-10-5-9-9-1-10-7-11-1 4-5-1-5-2-5-9-4v-3h7l3-10 2-22-6-12-3-19-3-5-8-4v-10l-5-30-4-2 2-9-2-4-10-2-5-7-4-21-12-31-12-20-9-25-9-17-22-51-3-19-3-6-5-20 1-2-63-33-8-3-20-3-5-7-26-12-3-4-7-3-5-7h-4l-13-9 2-5 2 1 1-4h3l3-5-3 1-9-4-14-1-1-2h12l5 3h3l2-3-11-5 1 3-12 1-1-2-3-1-2 2h-4l-9-6-6-1-5-7 1-5-3-8 2-6 1-19 3-9 8-6 2 9 3-1-2-8 2-1-1-4-3-5-6-2h-2l-4 4-3-1-12 3-3 9h-17l-15 4-3-3-11 5-1 19-6 7-6 16-5-1 3 4-2 7-8 2 2 1v3l-4 1v4l4 2 3-1 5 4-7 6h-5l-5 4-7-4-3 2-6-2v-4h-6l-2 2-6-2-1 5-4 4h-5l-2 4 3 4v3h-7l-3 7 3 19-1 4-3 3zm83 633-2-1-2 3 2 1zm462-217 1 2h5l-1-3z"/>
</svg>
