<svg xmlns="http://www.w3.org/2000/svg" id="svg1" version="1.1" viewBox="-1191 -71 1246.5 967.5116">
  <path id="Jilin" fill="#ff6347" fill-opacity="1" fill-rule="evenodd" stroke="#ff6347" stroke-linecap="round" stroke-linejoin="round" stroke-opacity="0" stroke-width="0" d="m-364 700.467 3-2 7-1h19l20 2 2-1 5 4h9l3-2 1-3 4-2 6 4 3-1 4-5 6 3 2-2 5 3 2-1 5 1 1 2h4l3-3v-9l2-2 5 1 4-3 1-2h-2l3-4h3v-3l2 3h3l3-5 3 1v-3l8-6-3-1v-4l-2 1v-4l4-1 1-3h-2l4-4h-3l-2-2 7-1v-2l-3-3 1-4 3 1 1-2h6l1-2-2-2v-3l3-1 1 3h2v-3l-2-2 1-2h3l-2 3 1 2 4-1 1-4 3 3 3-1 2 3 4 2 6 9h2v-3l2-1-1-3 4-2 2-5-3-1 3-3h2l3 6 9-1 4-8-2-3 2-9-2-4 3-3v-3h3v-2h-3l1-3-2-2 2-2 1 2h2l-2-4 3-2-5-7 6-11 1-12 2-1 2-11 4-1-3-5 2-3 6-1-3-1v-3l6-2h2l1 6 5-1 3 3 11-4 4 2-3 4 1 4-3 1 4 4 5-2 5 2h7l1 5-2 2-2 11 2 2-2 2v7l2 4 4 2 4 7 7 6 2 5 4-3 3 2-3 6 3 4 4-2-2-8 3-4 5 1 1 12 4 10 4 3-2 5 1 3 7 2 1-1-6-3v-7l-4-4v-8h5l3-8-5-12-8-6-8 3-9-8h4v-2l5-5 8-3 4-5 3 1 13-7 5 4 2-3 6 1-1-2 3-5h5l6 5 3-1v-2l5-1 4 3 8-1-3-9 2-3 1 2 4-1 2 2h3l4-4 1-5h-3l-2-2 1-4-2-7 2-2v-3h7v-8l3-1 3-5-2-4 2-4-3-2 1-6 6-5v-3l2-2v-9l2-6h2l2-3v-4l-2-1v-2l3-10-2-2v3l-2 2h-7v2l-5 4-3-1-2 3h-2l-7-5-8-9h-3l-11 9-1 4-7-1-2-2-2-9h-2l-2-4-3 1-2-4h-3l-1-3h-3v-2l-4 1v-3h-5l-1-7-4 1-4-3-2 2-6-3-1-3-7 2-3-2-3-9 4-7-4-4-1-10-2-2 2-5-2-1v-4l2-3-3-6-3-1 4-12v-5l-3-2-5 6v3l-4 4-2 6-9 1-5 7 1 2-5 2-1 5-4 3-4-1v-2l-2-1-1 1-2-7 2-9-2-3 1-1h-2l-2-3 2-2-1-2-1 1-1-3-4-2h-2l-1 2-1-2-5 4-1-2-9 9h-2l1 4-2 2v7l-5-1v2l-2 1h-15l-5 2h-5l-4-2-4 1-2 4-6 4v2l-7 3-4-2-2 3h-2l-1-3-3-1-6 6 1 11 2 1-2 4 2 18-8 6-1-2h-2l-3 3-2-1-2 2-7 1-3 3-7-2-2-3h-3l-1 2h-5l-5-8-7-23-2-3-2 1-3-2 1-2 4-1-6-11 3-6 2-1-5-7-3-1-2 2h-6l1-10-5-4-4-14-6-12-7-8-1-7-2-1 3-6-2-4 2-5v-6l-3-4h3l1-6-3-6 1-4-4-4-1-4-5-3-2-4-10 6v3l-5 3h-3l-3 4-2 9-4 6-3-3-2 2-1-2-2 1-3-3-2 2-1 2 2 1v6h2v3l2-1-1 4-4 3 6 5v3h-2v6h-3l-1 2 4 2-1 2 2 2-7 6-3-1-2 3h-5l-7 5h-6l-3-3-4-1-4 3-7-5v-18l-1-1-2 5-3 2-5-5-2 1-4-7 1-4 3-2v-3l-11-13-2-6-5-3 3-7-5-6-1-3 2-2-2-3 6-3 4 2 4-6-2-4-5-1-5-5-5-1-5-4-1 1-15-2v3l-2 2-6-2 2-3-2-1-4 1-6 6-5-1-1 4-5 5-1-1v-4l-2-1 2-3-2-11 2-7-6-9-1-11 4-14 7-1 2-4-1-3h2l-1-2h-2l1-1-3-6h-3l2-2-4-3-1-4-6-6 1-7-2-1v-3h-11l-2-2-2 3-2-3-4 2-1-4-9-5h-4l-5-5v-2l-9-5-4 2-3-1-8 2-1 2h-2l-1-2-9 9-3-1-4 3-1-3-2 4 1 1-3-1v3h-2v2l-6-2-3 2-1-1-1 3-1-2-8-1-1-3h-12l-1-6h-9l-9-8-3 1-1-6-4-2 1-1h-5l-3-9-3-1-1-2 2-7-2-12 2-2h-2l2-2-1-2h-2v-5l-6 1-1-2h-3l-6 6-9 3-2-3h-7l1 4-8 13h-3l-4-5-2 4-3-3-12 3-6-2-3 4-6 1v-3l3-3-5-2-3-11-11-3-1-5-3-2-2 7-2 1 1 8-2 3-5-3-6 3-2-2v-4h-2l-4 5-5-2-6 4-7-4-2 1 1 3-3 4h-2l-9-9-6 2-1 2-4-2-4-7 2-5-1-6-9 1-4-3 1-5-6-4 2-3-1-2-6 3-5-1-2-3 3-4-4-2 2-1v-2l-5-3-2-6-4-3-4 1-2-4 1-2 7-4-3-3-1-4 5-1-2-8-9-4-3-6 1-5 5-2 1-2-4-3v-2h5l1-2-1-4-3-3 2-2-3-4v-2l3-2-3-3 2-5h-4l-3-6v-2l3-2-4-8 2-2-1-4-4 2-1 5-3-2 2-2v-4l-8-1-8 7h-6l-2 2h-12l-3 1-5 5-1-3-2 1-6-5-6 5-3-2h-5l-2 4-3-1-1-3-3-2-2 1-11-4-10 8-2 3v7h-3l1 8-5 1-3 5-33 5 5 30-4 10h-4l-2 4 5 13-5 5 1 3h-2l-1 3-9 1v-6h-2l-2-7-3-1-8-9-4 7h-2l-1-13-7-11-9-1-2 3 2 9-5-1-2 6h-2l1 1-2 1 1 1-3 1 1 1-2-1-1 2-3-5-3-1v-3l-10-5h-3l-4-4-2-7-4-2v-3l-3-1-2-4-2 3-7-4-1-3-8 1-2-4h-3l-7 4-1 2 3 1 4 7v13l-6 6v5l-2 4-8 6-4-1-2 3 3 3v2l12 6 7 1v-3l5-3h6l4 2 2-1 3 4 4 11-4 12 3 3 1 8 8 7 13 5 2 6-5 10 1 11 12 4-1 12-2 3-3 2h-7l-4 7 1 14-2 8-3 3v17h-4v2l1 3h2l4 12v7h7l2 2-4 3-4-3-1 4v2l7-1 1 2-2 3-4 2v3l-2 2 2 11 3 5-1 2 9 4 3 5v8l8 1 1 12-1 18-3 8 1 2 6 4 21-1 25-9 3-6 8-9 12-5 22-17 7-3h6l2 15-1 4h-3l2 7 6 4h3l10 16 3 10 3 3 8 3v4l-3 2-2 6 1 1-3 1v10l5 3v2l4 4-3 3 1 2h2l4 4 2 9 3 5-1 5 5 7-2 7 5 7-1 4 3 6v3l-4 1 1 4-2 3-9-3-1 1 1 4 2-1 2 2-1 4-12-3-7 3v2l3 3-2 5 8 3 6 12 3-2v-3l5-2 5 8 3-2 8 8h12l1-9 5-4v-5l3-3 2 1 1-2 1 2 6 2 3 3-3 7 7 6-1 3h3l6 4 3 6h2l4 4 8-2v2h2v6l11 1 1-2 1 2 1-1 1 3h5l2 2-1 7 1 3 2 1-1 1 5 2 12 12-12 13 4 4h7l3 3-1 5-6 4-1-1-1 6h8l4 10v-4l7-5 3 1v-3l5-2 3-6 5-4-1-3h3v-2l2-1v-7l3-5 8-3 5-9 8 1 3-3 1 1v10l-6 7 3 8v12l-2 5v6l3 12 4-1 1-4 8 3 2 6-2 2 3 2-4 4 3 4-3 3 6 3v6l3 2 8-1-2 6 1 4-2 3 2 6-3 3 2-1 3 2v2l4 2v4l5 2 3 5-2 3 2 4-4 2 2 5-2 1 1 2 4 1 7-2 2 3 3 1-3 4 1 6 3 2-2 2h2l-3 6 3-4 1 1v5l-2 3 6 1 1-6 2-1 6 5 6-1 3 4-4 4v2h-6l2 4-8 11 1 2-4 1-3 4h-3v3l7 3v2l-5 1-2 6v11l3 5v4l4 2-2 1 1 2-3 11 1 2 11-4 3 3h2v3l3 3-3 3v4l5 11h2l-1 5 5 4v9l2 5h3l2 3-1 3h4l3 4-2 4 3 4v5h3l1-2 2 6 8-1 1 3-2 2-1 7 7 2-4 6-5 2-1 3 3 2-1 6-5 5-2 9h-3l-2 5-6 2-2 6 2 1 8-4 4 2 3 5h5l3-4h2l4 5 6-3 1-4 4 2 3-2v5l6-1v-3h7l-1-2h-5l4-4 3 2 6-9-1-4 5-1-2-4 1-2 2 1 2-4-3-3 3-3 4 1 11-11 5-1v-5l3-1 1-6 4-2 2-7 6-8 3-1v-2l7-5 3 1v2l-4 1h6l1-2-5-7 1-6 3-6 3-2-2-1 2-7 4-5-3-8 6-5v-4l2-3 2 3h3l8-9-5-4 1-3 6 2 5 4v4h2v-6l2-3h2l1 4 2-1 3-9 8-5h2v4l-2 2 1 1 5-1 4 3-1 2 7 2v5h2l1 3-3-1-3 3 6 6 3-1 1 2-2 1 1 2h3l1 4h6v2h-4l-4 6h-2l2 2 3-1v3l3-2 2 2 3-1 1 2h4l-1 2 2 2 2-3 3 2-5 4 5-1 8 4 1-3h4l4 4 6-1v-3l2 2 7-1 2 7h8l5 5v-4l3 2 13-2 1 4 2-3h2l1 3 1-3h2l2 3 2-7 4 3 4-5v3h3l3 3 3-4-1 3h2l1 3 1-2 1 1v4l2-1 2 1v2l1-2h4l-3 2 3 3 2-3 4-1 1-3 5-1 2-6 3-1-2-1 2-3v-5h2l5-6-1-4 3-2v-5h-2l1-1-2-1 2-1-4-3-1-5-13-8-3-7v-5h-2l-3-4v-25l-8-6-1-3z"/>
</svg>
