<svg xmlns="http://www.w3.org/2000/svg" id="svg1" version="1.1" viewBox="-1191 -71 894.92804 816.40625">
  <path id="Liaoning" fill="#ff6347" fill-opacity="1" fill-rule="evenodd" stroke="#ff6347" stroke-linecap="round" stroke-linejoin="round" stroke-opacity="0" stroke-width="0" d="m-589.572 570.01 3-1-1-2 2 2v4l4-5 1 2 3-1 5-4 1-5 3 1 1 3 18-4 15 2 8 3 13-4-1 8 6 5 4-16 5-3v-5l3-6 6-1 1-5 7-4v2l3-4-1-7-3-2v-2l5-7 10-12 4-1 4-6 13-12 14-6 2-8 18-14 3-5 1 3 3 2 8-4 6 2v-3l-5-2-1-3 2-4 13-5 10-8 9-1 1-5 4-2 3 3 6-2 5 4 1-7 4-1 1-5 3-3 9-1v-5l4-5h2v3l3 2 9-2-7-6 2-3 3-1 4-6-3-6-4-2-8 4-2-1 2-6 6-2 3-6 2 1 1-7 6-7 1-6-3-1v-2l1-2 5-2 4-6-7-2 1-7 2-2-1-3-7 1-2-6-2 2h-3v-5l-3-4 2-4-3-4h-4v-5l-3-1-3-5v-9h-2l-3-5 1-4-3-2-4-8v-3l3-5-2-1-1-5h-2l-3-3-11 4-1-2 3-11-1-2 2-1-4-2v-4l-2-1-1-4 1-15 1-2 5-1v-2l-7-3v-3h3l3-4 4-1-1-2 8-11-2-4h6v-2l4-4-3-4h-8l-4-4-2 1-1 6-6-1 2-3v-5l-1-1-1 4h-3l4-5-2-1 2-2-4-2v-6l3-4-8-4-3 2-6-1v-2l2-1-2-5 4-2v-2l-2-1 2-4-3-5-5-2v-4l-4-2v-2l-3-2-2 1 3-4-3-2 1-5 2-2-1-4 2-5-8 1-4-3 2-3-4-4h-3l3-4-3-4 4-4-2-2 1-3-2-5-6-3h-2l-2 5h-3l-1-2-2-16 2-5 1-11-2-1v-4l-2-3 2-1v-3l4-4-1-7 2-3-2-1-3 3h-10v4l-4 4-8 4-2 4v7l-2 1v2h-3l1 3-5 4-5 7-3 1v3l-3-1-5 3-2 2v4l-4-10h-8l1-6 1 1 4-2 3-4v-3l-2-3-5 1-7-5 12-13v-2l-4-1-4-6-9-5 1-1-2-1-1-3v-9h-6l-2-4-2 2-6-2-5 1v-6h-2v-2l-8 2-6-4v-2l-5-6-7-2 1-3-7-5 3-8-3-3-6-2-1-2-1 2-5 2 1 1-7 11 1 3-2 5h3l-2 3 2 1-2 1 2 3h-2v6l-5 2 2 7-4 2 3 6-3 1 1 3-3 4v8l-3 5h-2l2 2-4 3 1 4-6 1-2-3-4-1-3-3-12 6-15 3-10 12 1 7-2 5 1 2 6 2-1 2h-4l-14 6-3 4-10-2-3 4-3-3h-6l-1 6-4 4 1 1-16-13h-10l-4 2-5-3-2-4 1-1-2-2-21-2-6 2 2 6-1 1 2 2 11 1v3l-8 8v4l-5 1-2 2-2-3-2 1v-2l-7-1-4-5-3-1v9l-2-2-2 1-10-3v-2l-3 1v-2h-3v2h-3v2l-7-1-1 3h-3v3l-3 2 1 4h-3l2 1-2 1 3 3-1 3-3-1 2 4-5 4v4l-2-2-1 3-1-2-2 1-2 5v-2h-2l-1 2-5 2-2 5-5 4h-3l-3-3-1-5-1 1-3-3v-4l-4 5-3-1-3 2-2-2-1 2-3-3-4 4h-2l-1-2-2 2h-3v4l-4-2-6 4-1 1 2 1-2 5-5 4-1-1-5 2v2l-4 2v3l-5 5h-2l-1 4h-5l-2 5-3-2-2 2-8-2-4-3-4 2-2-1-1 5-7-1-1 4-4 2-6-1-15 12-5-2-14 8-1 4 4 1-2 1v4l-5 1 1 6-6 4 2 2-6-2-6 3 1 2-4 3v4l-3-1 1 3-2-2-2 4 4 1 1 2-6 1-9 7v3l-8 11 2 5-5 6-7-2-2-5 1-5 2-2h-2l2-8-3 1-5-10-1-6h-2l-1-2v-7l-8-12 1-2-3-2-1-5-4-3v-8l2-4-1-8-13 1-4-3-2 1-3-3h-5l-2-3-1 1-1-4-3-1-2-3-4 1 2-5 2-1v-6l-9-5-1 6-8 7-5 1-2 2h-5l-1 3-6 3-1 5-5 6 4 2 3 6 2 1 1 5h5l1 2h2l1 3-1 12-6 7-1 7 3 3-3 6 2 3-3 11-3 4 4 3-3 4h2l1 3-3 3 2 5v7l1-1 5 6 7 3 1 2-1 3-7-1 3 8h2l1 2v6l-4 3v6l-7 3-1 2 2 2v9l-2-1v-2l-2 4-7 1 1 7-5 6v3h-5l-1 2 3 2-1 3-6 7-7 2-1 8-6 4 1-2-3 1-5-2-4 4v5l10 5-2 2v3l-7 2-4-2-2 1-2 6 1 6-5 9-1 6 8 4-2 4 8 2 4 8h2l1 2 2-1 5 5 2-2 2 2 3-1 4-4h2l3 3-6 7 2 2v3h9l1 1-2 5 7 5 26 1 4-4 7 1 1 4-2 4 7 8-2 3 1 5-2 5 2 7 7 11-2 1 1 1-3 6 6-3 3 6 3 2v-2h4l2 11-3 6 4 4v6l1-1 2 2 5-2 3 3-2 5 2 3h7l4-4 1-5 3-2h4l11-4h6l3-3 15-6 12-8h11l4-2 3-10 2-2 1-10 9-7-1-7h2l1-2v-8l8-2 2-6h2l2-4 9-7 4-6v-10l2-3h13l5-5h7v-5l-7-1 2-7-3-1v-3l1-1 1 2h2l2 5 3-3 2 1 2-1 2-6 3-1 1-5 3-1h3l6 4h10l19 3v-8h7l4 5h4l-1 5 7-4h3l3 3 6-1 5-5 1 1 4-5 5-2 1 6 4 3-1 3 7 5 6 1-2 6 3 13 9 1 5 4 8-1 3-3 1 2-3 6 2 6 13 12-2 2 1 4h5v2l-8-1v3h3l1 3-3 3-5-1 2 7h-4l1 4-2 1-5-3-2 2v2l4 3-4 4-3-3-6 1v11l-2 2-11 1 5 12h3l1 3-2 4-2 1-2-2-11 14-7 3-7 17-9-1-5 6-2-1-1 3-6 4-7-1-1 4-4 5-3 1 2 9-4 2 6 7-1 7-6 1v6h-4l-2 2-14 1-8 6-1 9 3 2 1 3h2l2-4 2 3v2l-7 4 1 3h2l-3 3v4l2 3 6-2 2 3 3-1 11 3v5l4 1v4l3 3 3-2 1 1 6-6 16-4 3-3 1 5-1 3-1-2-5 3 2 5-2 1-1-2h-4l-4 1-1 2 1 3 2-1 1 2h2l-1 3h-5l2 3-2 1 2 6h4l2 1v2h2l2 4-3 5-6 3-1-1 5-5-6-7-4 4 4 5-1 4h-3l-7 7-12 1-4-6h-2l-6 8 2 6-8 1-7 5h-3v-2l-3-1h-6l-5 5v6l4 1 1 2-3 4 3 9-2 2 2 10 9 1 3-6 5-5 6-1 4-5 8 2 11-2 3 1 7-10 12 3 4-2 1 1 3-9-9-5-3 2-1-2 5-3 2-4-2-2 2-1 8 2 4-3-1-2 4 1 2 8 3 4 4 1 4-3h3l1-1-2-1v-4l-7-5h7l1 2h2l-3-7 7 5 4-6 4-2 5 3 1-3-3-4 1-2h3l6-5 5-1v-2l-5-2-1-7 4-1v-2l12-6 4-8 3-3 1 1 1-3 7-3 1-3 5-5 11 2 5-3 6-8 6-3 4-6 3 1 16-8v-3l2 3 3-3-1-2 2-2h11l4 2 1-4 5-4-1-2 2-1 1 2h2l-2-2 6-2 1 2 2-1-1-2 5 3v2l4-5 6 2 2-2-2-3h9l1-2-3-1 1-3-4-2 2-1 2 2v-3l2-1 13 2v4l6-2 1 1 7-7zm-122 83 2 3 3-2h5l2 2 4-2h-3l-4-3-5 1-5-3-1 2-1-3-6 1 7 4zm-24 13 4-4-9 3 1 1-4 2v4l2 2 4-1v-2l2-1 2 2 1-1-3-4zm33-5 9-1-2 4 8-4-2-3-8 2-5-1-1 2zm16 34-3-3-1 1-1-3-1 1 1 4 5 2zm-43-25-2-2-1 1zm-77 49v2l2-1-1-4-2 2zm76-58h4l-2-2zm0-7 5 2-3-2zm78-46-6-3-5 7h4v3l3 1 4-3 1-3zm-92 57h-1zm-2-12-2-1 2 2 1-1zm99-35v-4l-1 3zm-60 46 2-1-1-2-2 2zm-11-2 5-2-7-1-1 1 2 1zm40 27v3l2-1v-2zm-2-4 1 1zm-126 27h1zm134-23 1-2h-4l3 3zm-268-237 6-3v-4l-4-2 1 2h-2l-3 6zm89 216-2-4-3 1h2zm207-40v-2l2-1-6-3 1 5h2zm-205 38 1-1h-2zm165-6-1 1 2 1 3-2-2 1zm1 25 1 2v-2zm48 9h2l4-5-2-7-2-1v3l-4-1 1 11zm-20-37 2-1h-4l1 1zm-237 28 2-1-1-2-1 1zm343-117v-2l-2 1zm-14 6 5-1-1-2h-4l-1 3zm-177 67h-2l-1 3 2 1 3-3-1-1zm-222-176v-2zm540-1 2-2-4 2zm-494 241v2h2l-1-2z"/>
</svg>
