<svg xmlns="http://www.w3.org/2000/svg" id="svg1" version="1.1" viewBox="-166 -118 614.42584 949.5">
  <path id="Ningxia" fill="#ff6347" fill-opacity="1" fill-rule="evenodd" stroke="#ff6347" stroke-linecap="round" stroke-linejoin="round" stroke-opacity="0" stroke-width="0" d="m227.41 519.5 4 1 4-2v-13l4-2 1 2 2-1-3-6 4-3h3l1-2 3 1v-3h4l3 4 1-2 3 4h2l-3-7 3-11 3-2-4-6 1-4-3-2 2-2v-3l-2-2-3 3-2-3 2-3-6-6h-3l-2-2 1-3-3-4v-3l7 9h-2l2 2 2-1 1-6 5 2 4-1v-11l2 1 2-2-3-4-1-6-7-16 2-1 4 3 4-1 1 3h2l2-4 2 3 5-1v3l4 2 2 4 1-3-2-2 3-4-1-3 3-6 7 4 1 3 6 4 2-1 4 4 4-3-1-2h2l-1-3-4-2 3-2 8 5 2 4 4 1h3l-2-2 1-1 2 2h4v-7l3 3h6l3 3 7-4 9-2 10 10 2-2 7 3-2-2v-5l6 6 4-7 1-8-3-8-9-7 7-2v-3l-3-6-4-3-2-18 3-7 2-19 11-8 5-14-1-2-7 1-3-6 2 1 7-2v-2l7-7 3 1 1-4-6-1-1-5 8 2 10-5 3-14 4-2h9l3-3-2-1 1-1 7 5 7-16v-3l-4-3-14-5-13-12-8 2-5-1-1-2 5-11-2-3-6-1-3-6-4-3-5-8-16-5-3-5-3-1-4-5-2 1-7-2-2 5h-10l-4 4-19-2-35-12-5-5-18-7-15-8-5-7-5-2-1-3 21-17 9-18 2-30 9-28 8-7 15-23 21-22 4-17-1-9-5-4-13-6-3-5-5-18-5-5-1-9 3-6v-9l-3-4 1-3-3-6h-5l-1-2-13 6-6-1-8-4-3 7-5 6-6 3-3 9-19-5-21 5v20l2 4-2 5-6 3-12-2-3-5-3 1-10 17-4 11v3l2 2-5 12-5 1-12 14 3 7h3l-4 7h-2l-6 8-7 5v3l2 1v8l-4 5 2 5-4 5v3l-4 4 1 7 3 4-3 4 1 12-3 3-2 9 3 7-4 2-1 6 2 5-3 5 4 11 4 5-4 13-11 9-3 19 5 13 9 13-8 16 2 15-7 15-5 4-12 5-10-2-1 13-1 4-2 1-28 1-8-3-16 2-12 5h-4l-7 5-14 6-16 12-29 3-11 6-70 7-2 10-6 1-3 3h-7l-6 5 2 3 8-2 4 1 7-5 6-1 5 6 7-1 3-3 5 3 3-2 21 5-3 8 1 4 7 3 2-1v2l-5 5h-2l-4 6-6-2v5h-2l-2 8 5 9 16-1 11-9 3 4h6l1 2 5 2v7l5 5 2 7 4 4-1 4 7 4v8l2 2 7-1 2 1v4l5 2 4-4 2 3h3l4 3 10 1v6l3 6-1 11h13l5 5v4l4 2-1 2 6 7 3 9-4 5-8-2-1 3-6-1v2h-2l-5 7 5 9-1 6 2 3h2l1 5 4 2-1 1 2 6-5 4 2 3 4 2h4l3-3 9 11-1 10 1 2 3-1 2 2 1 10h2l1 2-1 2h-2v2l3 3 1 4 5 1 4 7v4l-3 2v10l4 2 4 13 2 1-5 12-5-2-3 2-2-1-4 6-2-1-1 3-3 1-3 4 1 2h-4l-3 21 3 7-3 1 4 7 2-1 6 3 1 3-5 2 2 4-1 2h2l-2 3 2 3 4-7 2 2 2-1v7l1 2 2-1 2 2-1 6 4-1v4l6 3 4-2 2 2 1-2 3 1v8l2-2-1-4h5v-2l5-1 8-5 2 3 1-2 1 2 7 1 1 2 3-2 1 4-3 4-2-1-1-5-3 5-3 1v3l6 1-1 7 2 2 2-1 2 5 2-3 1 1-1 3h-2l7 6-2 1 4 4 3-2 2 4-1 5 3-1v10l2 1 3-5 1-6 3 1v-2l20 4 2 2 2-1v7l9-2 1 2 1-4h3l1 2-6 3v7l2 2 1 8 1 2h2l1 8 2 1-1-2 2-1 1-4 7-6 2-4 3 6h8l2 10-1 2 2 2v3l4 1 4 10 2-1 5 9h3v2l2 1 2-3-1-5 1-1 2 2 5-3 1 1 2-4 8-4 3-4 1-5 2-1-2-4 1-9-3-8 1-6h-4l-1-5-4-4 4-14 3 1-3-10-2-2 1-3-2-4h-2v-6l6-7 4-1 1-3h5l1 3v-4l7 1 3 2h2l1-3 2 3 1-3 3 6 5 2 3-5 11 9 3-1v-7l2-1 7 4 4-5v-3l2 2h6v-8h3v3h2l1-3 1 1 1-5-3-4 4 1 1-2-2-4-2 1-4-6v-6l-6-2 3-1v-3l4-2 4 1-1-3 2-2 2 2 2-2 1 1v-5l-7 2-2-5h3v3l2 1v-3l3-5h2l1-5-4-2v-3l2-1v-8h2l-1-2h2v-4l-3-3 1-4-4 2 1-5-2 2-2-2 1-4h-2l-1-3-2 1-5-9h-3l-1-6-2 4-1-2-2 1v2l-4-4-3 3-6-5-4 1-6-10-4 3-1-1v2l-2-6-1 4-5-2v-3l-2-1-1 5-2-4-1 1-3-2-1 7-3 2-10-7-3-5 2-2 6 7v-4l-3-3 2-3v-9l1-2h3v-3l-7-2v-5l3 2 1-3-2-4 4-6-4-3-1-3-2 4-1-4h-5l-3-5-3 1v-3l-3-4-6-1-1-5 5 3 1-4 4 3 7 1-1-4 4-1-5-5v-3zm-71 264v-8h-5l-17 6-2 2h-5l-1 8 10-2 3-2v2l5-3 1-3 1 3 2-1-1-2 2-3 3-1 1 3zm3 7-2-4v3zm0-8v1z"/>
</svg>
