<svg xmlns="http://www.w3.org/2000/svg" id="svg1" version="1.1" viewBox="-166 -118 1244.1014 850.68683">
  <path id="Qinghai" fill="#ff6347" fill-opacity="1" fill-rule="evenodd" stroke="#ff6347" stroke-linecap="round" stroke-linejoin="round" stroke-opacity="0" stroke-width="0" d="m1025.101 127.5 11-3 3 1-4-9h-3l-3-5h-4l-3-3v-3l-4-3 1-1-12-7 1-2-10-4-2-4-6-3 2-7-2-4-4-1 1-1-4-4 2-3-5-8h-5l-6 5-1 3h-5v-3l-2-2-12-4 1-2-6-9-14-4-6 5-2 4-7-6-2 1-9-4-5-9h-3l-10-8-4 2-2-2-1-4 3-4v-8l2-1-3-2-4 3-4-1-6-9-4-2-2 1-6-2-3 3-1-2-3 1-2-3h-3l-1-2-2 3h-2v-4l-2-1-2 2-7-4 1-2-3-5-3 2-2-9-7-2-1-2-6-2-2-3-6 6 3 3-1 1 7 3 2 7 4 3 2 12-5-1-1-3-16-10-10-3-16-9-1-3-6-3-5-6-1-6-2-2-4 1-3-7-4-3-1-3-9-7-4-1-7-8-7-5v-2l4-3-5-4-9-1-5-3-1-3-6-3-1-3h-5l-2 4-3 1-3 6-5 2 1 2-3 3-6-3-6 1-3-3 1-2-3-1-2-3-9-1-1 10-3 4 1 3-14 12-8-8-9-3-7-6-12-3-1-5-17-9-4-5h-3l-2-3-3 1-3-3-16-4h-18l4 7-4 5-2 22 5 3-1 11 3 4-1 6 1 2 3 1v10l-8 4-16-6 1 4-3 2 3 3v2l-9 1-3 2 4 3-1 5-7 7 1 6 2 1 1 8-19-6h-7l-4 4-3 7 1 3-5 2-1-3h-2l-1 2-11-4h-2l-1 2-2-1-14-13-3 1-3-8-9-3-2-3-17 12-3-2-3 3-2-3-2 2-4-2-2 1-2-2-5 3-3-4h-2l-2-3 1-2-5-2-2-3-4 2-3-2-1 1-1-2-11 1-3 3-5 1h-14l-10 4-2-1v-8l-14-39-36 4-2 2-8-1-9-6-1-4 1-2h11v-5h-5l-10-7-36 2-2 2-12-4 2-14-6-7 1-7-2-2-7 4h-6l-3-3-5 1-2 3-3-1-16 4-1-1-14 2-3 4v3l-5 1 1 3-14 1-8 5-17 2-10 5v2l-2 1-20 2-8 4-1-1-3 2h-5l-16 8-2-1-6 3-32 7-3 2v-2l-7 1-7-2-3 2 3 3-4 3 1 1-8 2 1 2-7 1v4l-4 4-5 1-4-3-5 2-12-1-2 2v6l2 3 4 1-3 6 13 12 6 1 1-8 15-2-1 68 6 1v2h7l18 11 2 3-1 6 4 1 4 5 4-2 7 2 3 5 2 12 3 2 2 4v8l9 5v6l2 3-1 4 2 3-9 1-3-2-5 2v4l-8 1-1 4-4 2-10-1-6 5-2 4-5 2-1 3v5l3 4-3 1-2 6h2l1 8h7v3l2 1 7-1 11 4v10l2 1-3 12 5 3-3 6 5 3-1 6 2 1v7l-3 1-4-2h-5l-5 8-6 2-4-2-3-6-11-6-8 1-4-2-4 2-22-4-10-5v-4l-7-1-1-3h-4l3 2-1 5-1 4-7 6 1 7-8-2-6 2-9-3-5 5-11 3h-4l-5-3-1 3 3 3v5l-2 2 1 2 4 2 2-1 4 3-1 1 2 2 5-1 5 2 11-2 2 2-3 5 1 4-3 1v10l-2 2 4 7h-5l-1 5v4l6 3h-2l-6 7-2-1-5 4-9 2-1 1 2 3-2 5 3 2-7 5 2 1 4 9 2 2h4l1 2-3 19 2 3 5 2 6-2 1-2 3 2 4-2 3 2-1 4 3 1v4l2 1-4 2-2 3 1 2h-4l-3 2-1 3v5l4 3h3l-2 7 3 2 1 15-2 2 6 6v2l-4 3 1 4-1 7-2 1 1 2-5 2v3h-6l-4 5 1 2-2 1 5 10 7 6 2 5 4-1 6 7 3 1-3 4 1 2 7 2v15l3 4 5 2 1 7 13 3 12 17 4 3 7-1 20 14 3-1 6 4 7-1 2 4 2-4h8l2 2 4-1 5 4 3-4 6-3 18 6 1 2 2-1v-2l4-2 3 1 2 3-1 1 3 3 8 3 1 2 6 2 3 3 5-1 2 6 4-1-1 2 6 7 6-1v-2l7-1 4-3 1 2h5l2 5-3 2v6l2 2h7v-2l4 1 2-1-1-2 5 2 4-2 3 3h11l3 2 3-1 2-4 9 5 3-1 5 4v-2h8l3-3 2 1v3l2 1 2 7 9-2 1-2 6 1 2 4h4v4l3 1 4 5 6-4 2 7h3l1 3 4-1 6-5 2-5h7l9 3v3l4 5 4 1 4-2 5 4h2l2-3 8 4 1-2h3l-1-3 2-4 9 2v-2l7-1v-4l2-3 4 3 4-5v2l5-1 3-3h2l2-5 14 13-1 3h3l2 5 4 2 3-1 2 6h8l7 4 13-2 1 4 3 1-15 3-2 5 3 2 6-2 3-2 1-3h2l4 16 3 3h5l-1-3 3-1 3 3 2 10-3 3 3 3-7 2-1 3 4 5 3 9 6 6 1 3h6v-2h2l1-2 11 2 4 2 4 7 3-3-1-3 5-9 8 1v3l5 6 10 4 1 10h4l2-3-1-3 3-1v-4l-3-4 1-1-5-3 1-7h2l1-4-3-3h3l3-3 4 2 9-1 1 8 5 8 10 7 4-3 4 3 1-2 8 6h2l1-3h3l1-4-6-9-1-4 3-1 2-3-5-5-1-6-2-2h7l4 2 2 4v-4h2l1-2 4 3 2-2-3-4 2-2h5l2 2 6 1 3-1 4 2 1-3 3 1 1-2-2-3 1-2 3 4h5l-1-3 2-3-4-1-1-5 3-12 2-1 2 1v2l7-2v-7l-3-7-4-1 5-7-6-4 1-2 2-1 1 2 7-4 1 3 4 3h21-3l-9-9-5-1-11-9v-3l-4-5v-10l-1-2h-2l2-7 14-4-2-2 3-3v-2l-5-10 4-6 5-2 5-14 4 1v-2h2l5-6-7-2-1-2h-6l-2-2h-3l-3-6 1-6h-7l-3-3-1-3 3-5-2-5 1-3-5-10 2-1v-4h6l4-3 2 1 7-3 3 2 2-4v-7h3l1-2-3-9 11-6 1-3 3-1 10 2 8 7h6l10 5 13-2 5 1-1 4 3 3 1 4v3l-3 3 2 2v3l-2 2 3 3 2-1 3 9 8 4 1 4 6 5-4 2 4 4-1 5 9 8-1 7 4 5v7l-2 3 5 1-1 5 6 8 9 3v2l5 2h7v2h2l1 2h5l3 6 2 1-1 3h2l2 8h5l1-2h3l6 2 1 2 8 1 6 8 3-1 1 2 5 1 2 3h2l-1-1 5-15-1-8 7 1 3-9-1-2h2l4 6 1 5 8 2-1 3 5 1v3h2l3 15-5 6 2 1v2l7 1 2 3 3-13h9l6-4-2 6 1 1 2-4 3 4h2l7 13 11 5-1-8 2-3 2 2 2-1-3-5 6 2 1-2 1 3 2-2 12 6 13-9 4 1-1 4 8-5 3-4 1-11-6-8-4-1v-9l5 1v-7l-4-4 3-2-2-3 1-2h-2l-2-4 1-4 5-5h10l8 12v-6l2-2 7 1 14 13 2-7 3-2-1-2 3-1 3-6-3-4-3 1-3-3 2-7 3-5 5-1 2-6v-4h-2l-2 4-10-1-2-14-2-5-2 1-1-3-11 2v2l-4 2-3-2-8-1-2-2-2 2-5 1v-7l2-2 1-5-8-8-2 1-3-1-1-3h-4l-9-16-2-1-3-8-7-7 4-7-1-2 2-6 4-2 3-5h5l11 6h15l-1 3 9 5 14 4 1 2 6-1v2l2-1 4 2v2l3 1-1 3 2 2 3-1 1 3 2-1v2l3-5h7l2-3 1 2 7 3 1-7 4 1 1-7 4-1v-5l2-1 6 2 3-9h7l-8-10v-4l-2-3-5-3-11-2-4-4-1-32 6-3 7 2-1-3 4-8 6-3 1-2 4-1 1-2h5l6-12 5-1-3-10-8-5 3-1v-3l-3-5 1-4 2-1 8 3 4-3v-5l1 1 4-8v-5l8 5 10 1 4 4 4-4-5 1 1-2 6-2-3-3-1-8h-2l-3-5-2-8 2-5h3l4-5 6 2 3-1 5 3v-11l3-8-2-3 1-2-6-3-1-2 5-2 4-10 3-2h5l-5-3 1-2-10-5-2-4h-5l-2-7-5-8 2-4-5-7 3-1-5-3 1-2h-3l-5-4-3-7 1-3 2 1 5-5 3 1-5-7-7-5-6-8h-2v-2l-5-1 5-6v-4zm32 84-1-3z"/>
</svg>
