<svg xmlns="http://www.w3.org/2000/svg" id="svg1" version="1.1" viewBox="-166 -118 524.5 884.70184">
  <path id="Shaanxi" fill="#ff6347" fill-opacity="1" fill-rule="evenodd" stroke="#ff6347" stroke-linecap="round" stroke-linejoin="round" stroke-opacity="0" stroke-width="0" d="m284.5 473.5-7-12 1-3 3-2-3-1 1-3-8-2-6-9 2-3-2-17 3-7 6-7v-4l4-11 1-13 6-8 6-18 5-6 4-10-3-8v-8l-3-9 1-2-4-1v-11l-2-2 1-1-5-14 1-11 2-2v-7l-2-2 3-8-1-7 2-2v-12l-10-11v-2l4 2v-4l2-2-2-1-1 2-1-1 2-2-5-3h2l2-3v-6l-4-2 3-2 1-10-4-4 3-1 3 2-2-4 3-1 7-8 12-19h2l-1-4 2-1v-3h-4l-2-2 1-8 9-1 5-13-3-9 3-1v-2l-8-4-1-2 5-2v-2l-7-4-8-16-6-3-1-2 2-2-3-6v-7l2-3-1-7 1-3 4-1 1-9 6-1 5-5 5-2 2-9 5-1 1 2 3-2v-6l3-2 1-7-2-1-1-4 3-9 4-6-1-3 3-1 2-6-1-3 2-2-3-11 1-3 9-3 4-4 3-9-1-2 8-17h-3l-3-3 1-2-3 1v-4l-5 1-2-2 1-3h-3l-1-3 9-12 1-5-2-2-3 3-6 1v-2l-7 6-6 1-10 15h-2l-3 9-4 5h-6l-9-14-2 3-6-2-2 3 2 1-4 4-9-8-3-4 2-1-12-4-2 4 1 3h2l5 13-19 9-4-1-5-7-3 3 8 7-6 6 2 4-5-2-18 16 2 2v4l-2 1-1 5-10 9-3-3-6 5-4 8-6 2-1 4 4 4-3 4h-2l-3-3-8 8-1 4-8 8-4 2v6l-4 3-4 11 1 2-3 5 2 6 10 7-2 4 2 4h-3l-2 5-7 7-5-11-3-3-5-1 3 6-4 14 1 10-2 12h-6l-1 2-6 2-9-5-10 5-8 2-8-4-4 1-5 4-11-3v-6l-3-4-1-6-22-7-5-4-3 2-1 7-2 3-2-1-9 3-1 6-2 2h-6l-1 2 3 1v2h-3l-3 4h-4l1 3h4l-2 8-6 4-2 13 1 9 4 6-4 1 6 6v5l-3 4-2-3 2 20-1 2 2 2 2-1 3 2h10l5 4-1 2 2 3 4-1 5 2 3-2 4 4 2-1 7 4 1-1 5 4 2-1 3 7v4l3-1 1 2v-3l2-1 2 2-2 4 5 5 2-3 1 3 4 1v2h2l2-3 1-5h3l-2 3 1 4h3l1 3 1-3 2 2 4-1 5 6 2 6-1 1h2l3 3h4l1-6 5 4 5 1 3 5-1 15 6 13-2 6v7l-3 8-8 1v2l-4 2-2 4 2 2v22l2 6 7 5-1 6 2 10-2 9-1 3-3 2-2-1-5 3-12-1-1-2-10 5-1-5-3-1-9 3-4 3-6 1h-3l1-2-9 1-7-5h-6l1 4-1-1-5 2-1 2 1 2h2l3 6v6l4 3 3 6 5 1-1 2h2v2l-6 2 1 1-3-1-9 2-4 2 1 1h-2v-5h-5l-3 6h-7l-3-2-5 1-4-2-4 1-3 6-2-2v2l-3-2-1-4-7-3-2-7-5-1-3-4h-4l-1-2-21-2v2l-4 1h-5l-3-2-3 1-2 6-3 1 1 3-2 2 4 11 3 2 2 10-4 3-3-1-1 4-3 1-1 3 2 3-2 2-2-2-10 8 2 1v6h6l5-2 3 1 5 5 1-1 1 2h3l-1 2 2 1 2 6 8 2-3 4 2 4-4 6-3-2-3 1-2-3-5-1-2 6 3-2 2 1 1 8 2 2-3 4-5 1v6l-3 3 1 6-6 7 1 4 5-1 1 4-3 6 3 3-1 6 5 1 4 7v5l-2 2 1 3-2 3-5-2-1 1-2-2-1-8h-6l-3 3-4-2-6 5-5 1-4-2 1-1-4 1v-3h2l-4-2-5 2-4-2-2 1-4 6-2-1-5 8-1 11-3 1-6-2-2 2 4 5-1 3 2 2 9 5h4l5 4v5l-3-5-3 6h2l2 4h-2l1 4-2 2 2 1-1 6-5 6-3-2-9 5-7 1-1 2h-5l-2-3-5-1-2 1v4l3 2 1 7 2-1 1 8 2-1 1 4 4-3h3l4-4 1 1 2-2 2 2 3-2 2-6 2 1 11-4 2 3 2-4 7 4v3l-3 2 5 6h3v2l2-1v2h8l2 3 6-1 4 5 3 1 2-4 5 1 2-2 13-3 6-5h4l1 5 1-2 2 1 2-2h6l1 2 9-2 4 1 4 12-2 6 4 7 6 2 3 5 3 1 5-9 4-2 2-3h3l2 1-1 3 1 4 2 1v4l3-1 3 5 12-4 6 10 3-2 7 13 9 3 5 5 4-3-1-4 6-2 4 1 3-2 2 2 6-6 6 5 3-2h6l5-2 1 2h3v5l4 3h3l8 8 5-1 5 7 5 1 2 3 4 2 12 3 12 9 2 6 7 2 1 3-2 1 2 5 12 1 16-2 2-2-2-1v-4l5-2-5-9 1-3h2l1-4-4-7 3-9-3-3v-9h-3l-5-8v-9l3-3-1-3 2-1 4-8 4-2-1-6 10-2 8 4 8-2 6 2 2 3h3l5-4v-3l2-1 4 3 5-4-4-6v-9l-3-1 1-3-5-4-9-5-12-2v2l-6 1-2-3 3-17-10-6-10 1-2-2-8-1-3-2 3-2 4-7 7 1 2-1 1-4 3 3 3-1 4 3 10-2 18 6 11-2 8 6 5-2 3 2 2-3 10 1 7-9 3 1 2 4v5l2 2 3-1 1 3 3 3h2l1-4 3-2h5l1-5h8l4-6h3v-7l3-1v-5l-3-6 3-4-2-12-6-5-6-1-1-3h-2l-2-4v-6l-3-5h-4l-3-4-4-2h-5l-2-4 3-2v-2l5-2v-3h-2l-3-7-3 1v-8l5-7-2-2-6-1v-3h-4l-6-3-2-4 5-5 2 1-2-10h-2zm54 102v1zm-451 78z"/>
</svg>
