<svg xmlns="http://www.w3.org/2000/svg" id="svg1" version="1.1" viewBox="-166 -118 558.99292 1002.7222">
  <path id="Shanxi" fill="#ff6347" fill-opacity="1" fill-rule="evenodd" stroke="#ff6347" stroke-linecap="round" stroke-linejoin="round" stroke-opacity="0" stroke-width="0" d="m-120.5 702.222 1 12 2 1 1 4-3 5-1 6-9 12-8 25-10 12v18l-5 14-2 1 1 6-3 2-3 7h-2l-4 10 2 15v10l-2 5 1 3 7 10h7l8 3 10-3 6 4 10-4 12 1 6-8h5l4 6 8-5 3-4 2-9 7 4 7-6 11-2 4-8 2-1 8 4 4-5 5 2 6-4 7 3 5-4 4 2 5-1 3-3 5 1 10-15 5-2-2-6 9-2 1-2h3l5-3 1-5 19-2 2 2h5l3 3 3-1v-17l-3-6 5-3v-4l-3-6 21 5v2l3 1 8-3-2 5h10l3-3h4l5 2 4-1 3 2 3-1 4 2 9-2-3-4 3-2v3l2-2v2l7 4v5l3-4 4 1 7-8 11 2 3-2 1-4 4-2 2 1v-8l2-4 17 5 3-3v-4l2-1v-4h2l1-6 5-1 10 4v-5l-2-1 3-2 1 2h3l9-8 3 2 6-3 3 1v-8l6-8v-7l3 5h6l-1-8-3-2 1-2-2-6 2-5-3-3 3-1-2-1v-3l5-1 2 2 2-3v-2h-2l-1-3 3-7-1-8-2-2 2-3 5 2 1-3-2-2 2-2h-3l-1-2 3-2-2-9-2-2h5l2-2-8-6 6-2-1-2 2-1-3-3 3-2v-3l2-1-1-6 3-4-1-9-2-7h-5l-6-5-5-1-1-4-3-2v-5l1-2h2l1-3-2-4-4-1 1-4-2-2-6-1-1-3 4-8-4 1-2-2 5-5 4 1 5-4 4 1 10-6-1-10 3-5 2-1 3 2 1 4 6-3v-4l-4-10 5-6-3-3 2-7-4-3 2-5-1-6 8-4 3-7 4-4 3-12 7-6 2-9 3-3h2l3-12 11-17-1-3 3-9-1-4-6-1-2-3-9 3v-5l5-3 1-4-5-6-3 1-2-4-1-12-3-2-5-10-3-1v-11l-8-9 1-7 2 1-1-4-13 1-1-2 2-2-3-1v-3l-4 1-4-4-7 1-6-7 1-12-4-7 7-13-4-5 2-11 5-4 1-10 12-1 1-8 2-2 2 2 4-1 4-9h4v-6l3-5-7-4-4-6v-16l4-1 12-13 4 1 4-6 3 1 2-1 1-4 6-2 2 7 4 2 1 5 6-2 5 2 14-5 2 2 4-1 3-5-1-5 3-7 7 1 1-3h2l1-5-7-4 2-3-1-4 7-11-1-9 3-5 1-7 3-1 1-5 3-3 1-7-1-1-6 3-2-8-8-1-3-6 1-21-4-7 2-2-1-6-14 1v-2l-8 2-3-2v-2l3-2v-3l-6 3-10-3-1 1-3-2-3 1-3-13-12-3-2 1 1-4h4l3-4 1-10 5 1 3 8 6-3 1-6-4-12 4-2 3 1v2h3l4-3 7-1 3-6 5 1 5-3h9l9-3 7-10v-3l-4-2-3 1-3-4-6 3-11-3-4-9 2-3-4-5 3-11v-2l-3-1 2-6-10-7-1-5-8-13-6 1-4 4 1 8-4 9 5 6-2 8-6 2h-9l-2 4-8 6-9-11-4 8-10 4-17 17-22 5h-9l-5-12-4-4-45 15-5 18-14 8-4-1-12-10-22-11-5 1-9 7h-4l-3 5 1 2-8 7-3 11-4 3v4l-5 6-8 18-5 6-1 5-9 12 1 12-6 8 2 3-1 6-4-1-3 2-5-3-7 5-8-2-2-3-8-4-4 2-14-5-9 4 1 2 3 1-2 2-1-2-2 1 1 9-2 3 2 4-1 3-5 2-3 4-2 7h-23l-7 8 1 2 4-1 1 6 3-3 1 1-2 3 4 5 5-1-3 3-2 5 1 2-7 15 1 3-4 12-6 6-7 1-7 7 3 8 1 9-3 1 2 5-2 2-2 7-3 1 1 4-6 8v5l-4 8 2 7 3 1-2 3v7l-5 1 1 10-5 2-2-2h-3l-3 2-3 12-6 2-5 7-11 2-2 13-1 2h-4l-2 4 1 10-2 4v10l3 8-1 5 9 5 8 14 1 5 3 3 7 3 2 3v3l-5 1-1 4 4 3 5 1 3 3-4 4 1 7 3 5-4 4-1 11-2 3-12 2-3 9 2 4 7 2v4l-2 1 1 5-4 1-1 4-14 18-1 5-5 4-5 7-4 1v2l3 2-1 1-7-2-1 2 6 7-3 13h-3v2l5 1 1 2-2 4 2 1-1 4-4 5 6 2-2 5 3-2 1 1-2 3 1 4h-3l-2-2-1 3 4 3 3 6 6 6-1 5 2 3v8l-4 6 3 4-5 15 2 3v10l-2 4-1 14 3 6-1 4 4 6v6l3 6-2 2 2 4-1 7h5v6l2 2 1 9z"/>
</svg>
