<svg xmlns="http://www.w3.org/2000/svg" id="svg1" version="1.1" viewBox="-166 -118 1014.9999 1022">
  <path id="Shanghai" fill="#ff6347" fill-opacity="1" fill-rule="evenodd" stroke="#ff6347" stroke-linecap="round" stroke-linejoin="round" stroke-opacity="0" stroke-width="0" d="m51 393-7 1v-2l-2 1-7-4h-3l-2-2 1-1-8-1-8 9 1 1-5-2-2-9-4-4H3l-2 3-2 9 2 1-2 4-13 3-2 18h-2l4 1v6l-2 1 3 4h2l-2 5h-2l5 26-2-1v2l4 2v6l-2 1 5 1-4 2 3 4-2 6 2-1 2 5-3 1 3 4-3 1-1 3-3 2 1 3h-3l1-2h-2l-1-2-9 2-1-3h-2l-3 4v2l2 1-4 8-4-5-4 1v-2l-4 3-3 5-8 1-17 1-23-6-16-2-18 6-5-2-13 1-6 7-2 6-9 10-1 5 2 2h3l2 2 8-2-1 2 2-1v3l7 1h2v-3l4 9 4 1 2 5-4 1-3 24 5 11-1 15 1 2 6 1 1 5 5-2 6 2h10l-3-6h10l1-5-2-1v-4l3-1 4 2 2 6h3l-1 4h14l1 2h4v3l2 2v9l-2 1 1 2 3-1 3 13 2 2-1 3-5 2-2 3 3 8h-3l1 3h2l1 9 3 6-1 24h4l-2 4-2-1v2l-5 1-1 5 2 6 11 1v4l6 1 3 3-1 6-2-2-2 2 2 2-2 4 1 3-3 4 2 2-1 2-2-1-5 6h-2l-1 2-1-1-2 5h-2l-2 3v2l2 1-2 2 2 3-1 2 3 1 4-6 2 2 5-7 3-1v2l11 4 6 13 5-1-1-4h-4l3-5-1-1 2-1 1 2h3l-1-5 11-5-2-5 5-5h10l13-7v2l5 5 6-4 1 2 4 2 1-1 1 3-2 3v5l-2 2 10-1 3 3-2 1 1 3h2l1-2v4l-4 5-3 8-2 15 1 3h-5l-2 3 4 6 13 1 2-2 13 3v2l7-3v2l3 2 6-2 2-4 3 1 1-2v2l4 4h2v-8l4-2h9l4 8 1-1 1 2 5 16 3 3 14 7 8 9 1-1 2 2-1 6 2 2-5 11 2 7h2l-1 3 4 18 11-1 41 2 11-3 33-33 14-10 66-38 61-26 35-9 24-2 82 1 80 3 8 1 7 5 14 25 19-10-12-27 1-4 22-21 6-11 4-31-2-30-4-28-10-41-10-26-12-16-42-47-4-8-22-21-32-35-48-74-15-17-87-59-48-14-12-5-10-10 1-2 6 3-11-7 4 3-1 2-18-17-56-44 1-7-21-12-24-9-15 8v2h-3l2-3-1-2h-3l-1 4-3-4-4 1-4 4 1 3-2 4-4 2-2-2-1 2-7-1 1 2-3 1v2l-6-2-2 4-8 4 1-5-7 6 1-4h-3l-2-11-3 2-2-1 1 4h-2l-3 5 2 1-1 3h-3v2h-9l1-2-6 2-3 5-5 2-7 6v5l-4 3-9 2-5-1-10 5v7l11 3 1 4-6 1-3 4h-4v2h2v3l5 2-1 2 3 1-4 3 1 2-4 4 3 1-4 1 1 2-4 2 3 2 1 3-8 3v2l-5 2h-6l-7 3 1 3 4 2-8 4v-2h-2v2l1 12 7-1 2 3-2 1v3l9-1 1 2-1 6 3 8h-2v2l-3 3 2 15 7-1 3-6 7 14-1 2 3 3h3l1 3-4 3v2zm599-291L460 53l-53-20h-11l-11-6-7-2-2 3-4-1-21-10-19-16-19-7-10-8-26-4-23-10-8-9-7-14 4-1-4-8-4-3-15-20-45-30-9-4-22 3-59 29-13 13-46 53 19 4 105 118 41 38 20 16 16-28 6-4h23l27 14 55 37 51 23 48 11 58 28 41 17 28 7 18 1 14-1 12-4 46-25 8-11 3-14-2-16-4-15zM507 364l4-1 5 3h4l1-2-2-30-2-15-9-15-8-9-20-14-14-4-19-10-17-3-49-19-15-4-7-8-6-17-4-2-30-7-6 1-3 3 1 6 24 17 21 23 84 50 42 28 14 25 5 3zm337-93h4l-2-2zm-321 53 1 21 3 7 5 7 20 18 9 2 9-2 25 3 23 7 32 3 30-2 40 13 11 8 8 2 5-6 13-38v-7l-4-5-55-3-65-11-78-32-12-1-8-4h-17l-1 3 5 11zm-127-75 5-1 2-3-1-3-19-18-16-4-8 1 1 5 6 7 23 15zM250 898h2zm376-453-1 6 5 27 3 8 5 7 8 1 19-3 11-26v-22l-2-3-29-8-13 1-3 4zM247 890h-2l4 3 3-1-2-2zm335-467v13l5 9 14 17 8 1 2-2 2-8 2-16-3-8-19-7h-5zM236 878v2l2-1z"/>
</svg>
