<svg xmlns="http://www.w3.org/2000/svg" id="svg1" version="1.1" viewBox="-166 -118 1438 911">
  <path id="Shandong" fill="#ff6347" fill-opacity="1" fill-rule="evenodd" stroke="#ff6347" stroke-linecap="round" stroke-linejoin="round" stroke-opacity="0" stroke-width="0" d="m124 687 8-10 19-2 10-3 1-4 4 2h6l1-2 3 2 2-1 2 2 11 2 1-5h2l-3-5 2 1v-4l2 1v10h2l-1-9h2l1 8 6 1 12 7v5l8-1 2 2-8 1-1 5 7-1 2 7-5 1v3l3 2v3h2v2l3 1h5l9 10 1 4-3 5 2 8 5-2 10 19-2 8 4 20h7v-2l8-2 2-4-3-2 2-2 1 3 2-1-2-4 3-1-1-7 6-2-2-3h-3l1-2 5-1-1 2h6l-2-2 4-3h5l4 2 2 6 3 2 8 12h3l1 4 1-2 8 2 2-2 4 3h4l3-6h4l2-2 1 1 5-5 2-7 21 6-2-14 2-8-1-7 20 1 1-5 5 1 2-3h3l5 2v2l3 1v2h2v-3l6 2 6-1 3 2-2 2 4 4-2 6-4 3v2l8 3 2-2 1 3 8 2-4 8-4 2-2 3 9 7-2 16h2l1-2 3 3 3-1v-6l2 2 2-2h7l2-1v-3h11l1 2h4l5-3 2-10 3-3 2-8-4-15 3-7 3 1 4-4-3-4 2-4h5l4-4 1-5 4 2 4-2h6v4l6 2 3-2 7 4 5-4 4 1 8-7-5-4-3 1-4-2v-4l4-1v-3l-2-1 8-2 2-7-3-3 6-1 5-15 6-7 1-19 11-5 3 3 15-4h16l3-4 1-5 12-3 3 1 4-4 8 2 4 9 8-2 1 2 5 1-2-2 7-7h4l-2-4-5-3v-3l4-1v-2l-3 1 2-15 7-12 5-5 5-3 6 6v-6l3-1-2-1v-4l8-3 1-3-2-2v-5l2-6 5-6 2-9 4-8 2-12h3l7-6h6v6l2 3 3-2 1 2 3-1-1-8 5-7 2 7 2-1 4 3 5-5 6-2v-2l-3-3v-3l2-5 6-4-1-3h-3l-2-2 1-5h6l2 2-1 2 4 3-1 3h5l7-15-1-4-2-1 6-15 3-3 4 1 4-3v-3h2l1-3 1 3 4-3 2-4 5-2 1 2-3 1-5 10 6-1 1-4 8-11 10-3 2-6-1-3-4-1-3 3 1 2-2-1-2 4h-2l4-7-2-3-10 7 6-8-1-3 2-1v-3l-11-1-5-6-6-2-2-6h4l2-3v-7l7-7 7-2 1 5 7-2v4l3-1v2l2-2h4l-3-9 5-1 7 7 2 5-2 1-5 9-1 5-3 2v3l-4 6-1 3 3 1-1-2 2 1 2-2 1 2 3-1v2l4-1 1 2 1-3 3-1 6 1 3-3 1 1 4-6 3-1 3 2 9-2v-4l4 1 1-2 1 3h4l3-4 2 2 8-4 7 1 1-4-2 1v-3l-2-2h2l-2-2-1-14-2-2 2-3-1-6-5 1v-3l2-2-2-6 1-2 5 2 10-1-3-7h-2l-3-3-1-4 5-5 2-5h5v-6l12-1 3 2-1 4 4 3v3l-2 1 1 6 4 2-1 1 4-2 2-7 3-2 1 2 2-3-3-1-2-5 2-2 5 2 3-4-2-10 5-7-2-4-8-3-3 1-5-8-6-2v-2l6-2 4 1 4 2v6l5 3 14 1 3-2 1-3 20-13 6-1 5-4 3 1 8-7 14-3 3 3 5-1 1-3-4-3 1-2 3-2 8-1 10-12 10-6 1 1-3 2-1 3h-3l-9 6 7 4v3h5l-3 3 6 1 2-2-3-6 5 2 3-2 1 6 8 3-4-13v-3l2-2 5-3 7-1 2-2 2 1 5-3 2-8 29-13 7-1 3-5h6l5 20 2-8 7-2 2-2-1-2 6-3 2 2-4 9 7 3 1-2h2l3 6-3 3v2l9-1 4 3h16l2 2 1-2 5-2 2-4-1-1 6 2 6-4 2 1 1-2-7-7 1-1h9l2 1-1 4 2 2 3-1 6-8v-7l2-3-2-8 2-5 5-3-2-4-14 5-7-1v-2l4-3v-13l2-6 2-1h14l1-4-2-3 9-3 1-3-5-4v-5l-2-1v-3h-4v-4l2-2-1-2 7-8v-2l-4 1 4-7 3-1 2-4 10 3v-2l4-3-2-4-4-3h-3l1 3-3-3-1 2-1-2-9 1-3 3-5 1-12-3 1-3-2-1-3 3h-5l-4 2h-14l-10-3-1-4 2-1-10-5v2l-7 1-2 6-3-2-2-4-1-8-4-2 1-3 4-1 3-4-5-3 1-2h-3l-2-2v3l-3 1-7-5 1 7-1 1-3-2-1 3h-5l-1 5-3 1v3l-3 1-17 4-25 1-15-2-1-3-5-1-11 7-1 5-6-3-1-2-9-3-4-4v-7l-11-8-2-8 9-1-9-7-7-2-1 2 3 2v4l-10 4-10 1-12-3-6-6 2-6-1-3-3-1 4-8-4-6-12 1-1-2-3 3-3-1-7-9-4-1-6-5 1-7-2-2-3 1-6-3-14 2-10-3-4 1-14 9h-6l-5 6-13 2-1 2-9-2-4 1-11 11-4 2-27 2v4l5 3h4l1 2-1 5-10 1 1 4-2 4 7 7-4 6-14 11-11 4-4 4-9 1-5 4-7 2-2 6-17 3-1 8 8 8v6l2 2v2l-6 1v2h5l-2 3-9 3-10 15-6 6-3-2h-7v-3l-20 6h-13l-2-1-2-5 1 5-22 2-7 2-7-11 2-7-3-4-4 1-7-4-3 1v6l-3-1 3-11-3-1v-2l4-3-2-1-12 11-1-1 2-10 3-1 2 2-2-3-4 1-1 6-4-1-3 1-1 4-4-1-2-3-1-10-7-3-4-6-1-5 6-3-2-2h-5l-7-33 9-22 7-4 23-3h15l5-2 7-21 2-12-1-9-3-6-5-3-4 1-5 9-9 5-5-2-5-22-19-16-5-24-12-10-10-4h-24l-18 4-3 2-2 12-8 5-7-7v-4l-6-4-6-1-3 5-5-4-14-1-20-5-7-9-12-6h-13l-4 2-23-18v-5l-13 16-3 1-3 11 2 2-6 3v7l-5 2-2 6-5 5h-18l-7 2-1 6-6 12-2 10-4 4-10 17-6 2-11-4h-5l-8 5-16-2-6 2-14-2-9 4-19-3h-8l-6 2-9-3-2 5-7 7v9l-4-2v5l-3 2-2-1v2l-4 2-2 8-3 3-1-2v4l-7 10-9 6h2l-15 17-4 1-5 10-6-8-6-4 2-8-6-1-2-3h-3l3 1-5 2-1-1-3 9 1 2h-2v3h3l-2 2 1 4-3 1v3l-6-6-1 3h-2l1 4 3 1-3 5v3l7-1-1 1 4 5-3 3-1-1-5 7-7-1-5-4-11 3H59v3l-5-1-2 3-3-1 2 2-6 2 1 2-2 1 2 3-3 5 2 3-2 2 1 6-3 4-3-1-5 4v7l-3 5-3 1 1 5-3 13h-2v3l-8 7-1 4-3 1-3 4 4 5-1 3-3 4-2-1 1 5-2 4-3-1-5 5-5 10v6h-4l-5 4-12 5-2-2v2l-4-2v2h-2l-1 2-3-1-2 2h-3v4l-3 3v3l-2 1-1 4-11 9 1 2-4 6-2-2-2 4 1 1-2 1v2h2l-3 2-1 8-4 5h-3v7h-3v2h2v3h2l-1 3 2-1 3 3v4l-4 5 8 3 2 3v5l4 7-2 3 1 2 9-4v8l4 4h4l1 6h2l1 28-3 10-2 2 1 2-3 2 1 9-10 5-2 4h-4l-1 4 2 8-2 11-3 1 2 1-3 15 5 4 8-7 10-13 5-3v-6l3-2v4l2 2 6-2 6-5h11l8-5v-3l2-2 4-2 3 2 7-2 2-4-1-1 3-3 4-1 8 2 6-5 4 2 3-3 10-3 7-6 6-8 7-1v4l-4 8 1 3-1 4h-2l-3 13-2 1-10-2-13 3-1 8-6 1v2h2l1 3-3 9v-3l-2 3h-4v2l-3-1-1 2-8-2-2 3H4v2H1l-1 3h-2v3h-2l-3 11-13 4h-6l-1 2-3-2-2 2h-8l-17 23-1 5-5 8-2-1-1 3-1-1-1 2h-2v2l3 1h-2l1 11-9 3-7 5 1 2-3 3-4 2-18 1-2 1-1 4v-5l-1 4h-2l-2-3-3 9h-6l-3 7-2 1v5h-2l-8 10 3 1-9 4 1 11-13 4-4 5v2l8 9v3l-10 5-2 5 6 2 1 2-5 5 5 2 2-5 3 1-1 4 5 3 3 5 4-5h12l1 3 2 1 9-6 9-1 1 4 3 1 2 5 3-1 5 3 3-3 1 4h-2l-2 7 9 1-2 5v8l3 1 3-2 3 1 2-2h3l11 7h5l2 3-1 1 3 1 4 13-3 5 2 3v8l3 4v4l10 12 7 3 12-1 12 4 2-3v-6h3l15 4 6 5 2-1v-2l2 1 22-4 2-1v-4l3-3 7 6 12-3 8 12h2l7-6 4 1 5 5 7-13 7 2 2-4h3l4-3-2-4 6-12-3-3-3 1 2-8 6-1v-14zM1175 90l6 1-6-4-2 3zm13 170 1 2 1-1zM1052 78l3-2-1-1-2 2zM910-13l-1 6h2l-2 1 7 6 1-7-5-8zm-7-8 3 4 5 1-2-6-5-2-2 1zm-7 1-1 3 2-2zm152 285 1-1zM860 28l2-4h-5l1 4zm24 381-1 1 3 1zm74-71-3-4-5 2 3 2 3-1zm2-17-2-1-1 2zm-23 134 2-1zM902-8l1-5-3 4zM729 522l1 2v-3zM914-60l2-2h5l-2-3-3-1-3-6-1 10zm31-45-1-6h-3l-1 2 2 3zM806 484v3l3 2 3-1-3-9zm124-587 3-1-2-3zm12-10h5v-3l-3-2-3 4zM891-12l1-8h-5v5zm32-79 4-3h4l1-3-6-2-4 7zm149 361 2-3-1-1zM949-29l1-2-3-2v2zm-31 406-1 2 2 2zM745 134l1-1-2-1zm285 237 2 1-1-2zm199-269h2l-2-1zM895-55l1-3-1-1-2 2zm42 24v2zm-42-7 1-3-2 2zM-43 454l-1 4 5-2-2-2z"/>
</svg>
