<svg xmlns="http://www.w3.org/2000/svg" id="svg1" version="1.1" viewBox="-166 -118 1018.5 872">
  <path id="Sichuan" fill="#ff6347" fill-opacity="1" fill-rule="evenodd" stroke="#ff6347" stroke-linecap="round" stroke-linejoin="round" stroke-opacity="0" stroke-width="0" d="m242.5 750-1 4h2l6-6 3 2 6-1 8 3 6-8 6-4 2-4 8-2 4-5 14-5v-2l8 3-3 9 7 4 4-1v-3l6-6h4l4-6 5 3 4-1 2-3-1-11 4-1 2-7-3-3 1-7-2-2-2-9 1-1-3-7-6-7-1-4 1-5-2-3 3-11-2-16 2-6 4-6 3 4 6-4 5 1 3-3 7-14h6l2-3-2-2 3-4 16-15 2-4-1-7 6-6h-5l-2-7-3 1-2-2 2-8 9-7 1-4 6-3 6 3v3h2l2-4h2l9-7 1-2-2-3v-6l-4-9-3-3 2-1v-3l4-2-1-4 2-5 2 2v3l3-1 3 1v2l11-2 3 2 3-3h9l1-3 7 5 5-4 5 3-1 3-4 1-1 3-10 3 2 6v5l-2 1 5 9-1 1 2 1 4-4 2 1 2 7h4l1 2-1 3-4 1v3h4v6l-4 3-2 4h-7l7 6v3l11 7v2l3-1 4 5 15-6 1 1 11-2 1-3 3-1-1-1 2-3h2l-1-1 3-3 1-4 7-4 1 2 9 2 1 7 6-2 2 2 1 7-4 3 1 8h6l-4 3 2 2v6l2 1 4-5 11-2 5 2 1 3 5 1 2 5h2l2-2 3 1 2-1v-2l6-2 5 2 2-3 5-2 1 2 12-3v-2h6l6 3 13-7-2-2 2-3-1-3h-2v-4l2-2-3-5-4-1 2-4-4-7-10-5-8 4 1 2h-6v-2l-3-1-4 2-3-4 2-8-1-2h-3l-5-8v3h-4v3l-5-1-4-4v-11l-3-1 1-7 6-3v-5l5-3 1 2 3-2 9 2 2-2-2-1v-5l4-1 3-8 4 2 2 5h5l2 6 4-1 4 7 6 4h3l3 6h5l-1-5-3-3 1-3-4-7 2-1-2-1-1-6-2-1v-4l-2-1 1-6-5-6-3-2-2 2h-4l-3-2-2 2-1-5-4-2h-2l-6 5v2l-2-1v-2h-8l-6-17v-3l2-1h-2l-1-4h-2l1-5-2-5 2-3-4 4h-2l-1-2-2 2v-2h-12l-1-5-4 1-1-4 2-1 1-4-2-2h-5l3-2-1-2h-3v2l-3-1 1-1-4-8v-4h2l1-4 1 2 1-3 3-1 1-5h8v-4l5 2 1-3h2l1-2v-8h2l1-2h9l3-5-4-4 3-3-1-2 3-5-6-2-1-3-3-1v-2l-4-1-3-3 3-2h-6l1-3h9l1-4-3-1v-5l4 1v2l5-1 1-2h-2v-5l3 1-1-2 2-1 1-6h2v-3l3-1 2 5 3-2 2 1v2l2-1 2 2h8l4 4 1-1v2l8 2 1 8h2l-1 2h3l2 2h3l2-5 3 1 1-2h7l-2-3h3l-1-1 2-1h9l1-2 5 2 3 5-3 2 2 5 4 3v3l2 1v5l3 4 5 1 4-1 1-2 2 2 5 1 3-2v-3l2-2 4 5 2 1v-3l2 2 2-2v-4l2 1v-3l14-15 2-8 5-6 2-7 5-7 1 1 2-2-2-1 8-10-5-5-3-6 2-4 2 1 3-4-1-3 2-2 1 2 5-1 5 3 8-8 4 3v5l8 3 13-12-5-2v-7h4l2-4 5-3-3-1v-3l-2-2 8-10-2-3-3 1-2-2 12-6 3-4-3-4 6-4 1-4v-2h-3v-3l14-2-1-3h4l2-7 4-3 2 1 6-5 1 1-3-3 1-4h-2l3-3-4-3h-3l1-3-7-2v-2l-5-1-5-6v-4l-2-2 4-3 4 3 2-2-4-3 4-3-2-2 9-1 1-2-8-9 3-2 7 1 3-2v-5h-3l-1-2-5 2h-6l-1 2h-2l-6-5-6 6-2-2-2 2-7-1-4 2 1 4-3 3-4-2-2-3-9-3-7-13-3 2-4-8-3-2-6 1-4 3-4-5-3 1-3-9 1-3-5-1-2 3-4 2-5 9-3-1-3-5-6-2-4-7 2-6-4-12-4-1-10 2v-2h-6l-2 2h-3l-1-4h-4l-8 6-12 2-1 2-5-1-2 4-3-1-4-5-6 1-2-3h-8v-2l-2 1v-2h-3l-5-5v-2l3-1v-3l-7-4-2 4-2-3-4 3-3-2-6 2-1 6-4 2-1-2-3 2-1-1-4 4h-3l-4 3-1-4h-3v-7l-2 1-1-7-3-2v-6l-3-1h-3l-2 5-2 1 4 10 3 2-1 4-7 2-7 6-3 1-4-2v3l-7 4-3 1-2-5-5-1-13 5-6-7-2 3h-5l-4-4-6 1-5-6-5-1-1-2h-5l-8-6v-2l-7-1-1-11 2-2h7v-4l4-2v-2l-8-1 3-5-1-2 2-1-3-5-4-16 3-1 6 2-1-2 3-2-5-2-7 2-2-7-5-1 1-3-4-5-2-8 2-3-1-4-11-8-8 2-9-1-8 2-8-4h-4l2-2-1-1-1 2-1-2-6 3-1 3-3-1 2-7-3-7h-4l-3 6-8 1-6-3v-4h-11l-1-1 3-9-1-3-5-2 4-6-1-4-3-1 1-3 4 1 1-2-6-4 1-5-7-4-4 1-3-2v-4l-3-6-3-2h-3l-2 5-6 1-1 3h-4l-3 4-5 2v2l-2-1-2 3 5 3-1 4-3-2-9 1-4 2-3-2-4 13h-8l1-3-3 2h-4v2l-4-2h-3l-2 2 10 11 1 4-2 3 6 2 2 3-3 1-1 2 2 2 2-3 1 1-2 6 3 7 8 3 4 4-3 1 1 9-6 5-2-1v2l-2-2-3 2-1-2h-4v2l-7 7 2 1V2l-3-1-3-5-3-1-2 9h-8l-6 2-6 9-4-2 2-8-7-8 4-2 1 1 3-4h2l1-8 5-6-2-1 1-3h-2v-7l-2-4-4-3-1 6-5-1-1 2 1 10-7 2-3 5-2 7 3 3 3-1 3 4-2 1-1 5-3 1 1 2-3 2-2 7-11-10-2-4h-8l-2 2 1 6-9-12h-10l-5 5-1 4 1-1v3l3 2-1 2 2 3-3 2 1 3 3 1v7l-5-1v9l4 1 6 8-1 11-6 7h-3l-2 2 1-4-4-1-13 9-6-4-6-2-2 2-1-3-1 2-6-3 3 6h-5v10h-2l-4-3h-3l-4-4-3-8-2-3h-2l-1-3-2-1-2 4 1-7-6 4-7-2-2 2-3 13-2-3h-5l-4-4 5-6-3-15h-2v-3l-5-1 1-3-8-2-1-5-4-6h-2l1 2-3 9-6-1-2 3 2 7-5 13 1 1h-2l-2-3-5-1-1-2-3 1-6-8-8-1-1-2-6-2h-3l-1 2h-5l-2-8h-2l1-3-2-1-3-6h-5l-3-4h-7l-14-7-6-8 1-5-5-1 2-3v-7l-4-5 1-7-9-8 1-5-4-4 4-2-6-6-1-3-9-5 1-2-3-6-2 1-3-3 2-4-1-5 2-3-1-5-3-4 1-3-6-1-12 2-10-5h-6l-8-8-12-1-3 5-10 4 3 10-1 2h-3v7l-2 4-3-2-7 3-2-1-4 3h-6v4l-2 1 5 10-1 3 2 5-3 6 1 2 3 2 7 1-1 6 3 3v3h3l2 2h6l1 2 6 2v2l-4 4h-2v2h-5l-4 13-9 8 6 12-5 2 3 3-15 5v6l2 1 1 6-1 5 4 5v3l5 4v2h3l3 3 5 1 2 4 7 4 9 2v2l13 2 13 9h3l9 6v12l4 2 4 10 12 12v9l-3 1 2 6-1 3h2l2 5h2l4 6-1 1 3 1 1 6 6 7 7 5 6 7h2l9 11-7 7v3l-3 3-3-1-5-8h-4l-3 3-1 8 2 1v2l-2 2 7 3 3 4v4l9 9-3 11 7 7h2l2 4 5 2 1 4-5 4 1 9 2 2-1 7 4 13-1 7 2 1v5l-2 2 2 4v7l3 2-1 2 3 4-1 6 3 9-5 12 1 3-3 14 6 10-1 5 2 4v19h2l3 6-1 8 2 22-2 14 2 12 4 9-1 2 2 1-1 4 2 5-1 6-2 2 4 4-1 2 3 1 1 4 5 3-1 3 2 3 4 2 1 3 4 3-2-6 3-9-2-2 1-5 3-4-3-4 2-1-3-5v-3l3-3 3 1 1-4 6-4v-6l7-6-1-3 2-5 5 1 4-4 1 13 2 2h4l4 5-1 2h4v2l4 1 4 4v3l2 1v5l7 3 1 3-2 5 7 2 4 3v3l-2 1 3 3-2 2 1 2-6 2-1 2-3-2-1 2-2-1-1 4 6 12 3 1 7 9-2 3 3 3 9 2v3l-2 2 2 2-1 6h5v-2h2l4-9 3-3 8 4 1 2 5-5 3-6 2 1 2-2 2 6 2 1-1 6 6 6v5l6 2-1 2 2 1-2 3 2-1v3l5 8-1 7 2-2 3 3 4 9 2 1-1 3 2 2 3 10h10l-3 9 2 1-2 8 8 4v2l3 1 1 5 9 2v2l3 2-3 4 1 2-2 1 3 3v2h6l-1-5 2-1 4 2-2 2 1 1-4 3v2l2 1-2 7h-5v5l2 3 1-1v3l6 1 12 11 2 8-5 1-1 4 4 4 5-2 1 2h3l4 6 3 1-1 4 2 3zm402-426v2zm65 13zm-129-10z"/>
</svg>
