<svg xmlns="http://www.w3.org/2000/svg" id="svg1" version="1.1" viewBox="-166 -118 940 808">
  <path id="Taiwan" fill="#ff6347" fill-opacity="1" fill-rule="evenodd" stroke="#ff6347" stroke-linecap="round" stroke-linejoin="round" stroke-opacity="0" stroke-width="0" d="m20 580 14 6 9 10 13 23 4 35-2 6 3 10 6 11 8 2 7-1 13 8 3-3-1-17 8-10-1-17 2-36 12-44 6-11 3-13 9-4 16-11 8-9 5-13 15-21 6-13 3-15 7-4 4-6-3-12 5-15 7-10 3-19 4-13 1-11 18-76 6-17-3-12 1-6 6-7 2-9 22-32 3-17 7-11 4-11 1-17-6-11-4-18 1-15 16-20 15-13-6-6h-6l-6-22-13 1-11-5h-6l-8-6-1-7-8-3-6-11-7-3h-9l-17 8-5 6-8 16-9 4-21 3-13 9-6 1-14 7-3 9-9 11-9 18-3 17-13 16-11 6-13 11-9 22-17 24-5 12-9 14-3 12-11 13-21 38-6 17-13 7-13 21-1 22 4 17-2 32-5 10-11 43 2 5 18 9 3 21 10 35 13 32 4 5zm746-691 8-2-2-5-6 1zM567-75l4 3 7-3 1-5-6-4-7 5zm-692 436h10l-4-10-13-1-3 5-5-1v11l2 5h6zm732-474 7-1-5-4zm-758 459v10l-6 3 10-1v-12zm-1 47-1 7h4zm11-55 8 9 2-8-5-3zm348 196 1 7 7 1v-8zm7 116v7l5 5 11 6 1-6-5-2v-10zM321-29l-1 5 6-1zm-487 456v5l6-5zM4 602l7-2-2-3z"/>
</svg>
