<svg xmlns="http://www.w3.org/2000/svg" id="svg1" version="1.1" viewBox="-166 -118 495 800.5">
  <path id="Tianjin" fill="#ff6347" fill-opacity="1" fill-rule="evenodd" stroke="#ff6347" stroke-linecap="round" stroke-linejoin="round" stroke-opacity="0" stroke-width="0" d="m234.5 299.5-1 5 5 4 6-1 1 2 6-4-2-3 2-2v3l4 1-4 5-1 4h-2l-1 3 2 4 5-3 2 2 8-1 2 2-1 2 5 4 2-2h8l7 2 5-1 2 1 2 7 6 2 1 3h4l4 3 2-4 2 1v6l2 1 1 5 10 3v11l-10 2-1 5-21 6-4 16-34 24-5 7-7 15v20l3 10 3 25 15 4 1 3-3 8-6 2-6 15v8l-4 8-9-1-16-6-10 10-34 6-4 3v19l3 5 6 3 21 3 3 2 1 28-4 10-29 11-3 6-1 7-30 6-3-1-4 3 2 3-5 2-2-1v-5l-3 1-1-2-12-1 1 2-2 2-2-1-14 4-6 5-2-1-4 2 3 2-4 5-10 4v-8l-5 1 1 5-3 2v2l-1-2h-8l-6 5-3-8h-3v4l-10 3-1-3-3 3-5-10 8-3-9 2v-2l3-5 4-1-1-2 2-1v-2l-1-3-10-4 3-4-5 1 2-3v-3l-2-1-4 2-1 5h-3l1 2-2 2-12 3-6-1v4l-5 4h-4l-2 5h-4v2l-4-1-2-4h2v-2h-4v-3l-6-1-2-13h-2l1-1-4-2 2-1 2-14 2-3-5-1v-2l-3 1v-3l-2 2 2-8-1-1-10 3v5l-8-1v-2l-17 3v2l-7-1v4h-4l2-4-7 3h-9l-2-10 1-5-3-2v-13h-2l-1 2-17-1-6-2-2 1v3h-2l-4-2-3 1-2-6h-5l2-12h-3v-2h-2l1-6 2 1v-2h-2l1-3-2-1 3-4v-4l2-3h-3l1-9-8-1-1-21h-5v-16l1-3h2l1-2 4-15 8-9v-5l2-4-1-3 2-1v-5l-3-1 2-8 6 2v-2l2 1 1-4 2-1h4l-1 2h-4v2l5-2 2 2h5l2 2 14-2 4-2-1-7 3-1 2-3 1 1 4-7h2l3-9 3 1 2-5h-2v-2h2l-2-7-4-6-5-2-9 1-2-10v-12l-1-2h-2v-5l6-1 1-6 3 4 3-3-2-2v-4h-4v-20l-1-4h-2l-2-3h2v-2l6-1-1-4 2-1 1-11-6-1-1-3 2-4-2-1-8 9v-2l-7 2-2-9 4-1v-3l-3 1-3-4 7-1v-2l2-1-2-5 1-1-2-2v-2l2-1-1-3 6-1 4-8 2 1 2-3-5-1-2-3-9 3-2-1v-3l-4-3h-2l-1 3-2-2-2 1-1-3 2 1v-3l-3-4h-2l2-3 11-5-1-6-2-2 2-1-1-4 4-1-1-10h-2l1 2h-5l-4-8-3-1 4-9 4-4-4-9 4-1-3-3 3-2-1 2 3 2-1-8 3-1 2 2 3-1v-2l2-1-5-5v-2l9-7v-7l20-5v-5l3-1-1-2 2-2v-4h6l1 2 1-2h5v4l-1-2-2 4v4l3 4h-2v3l4 2v8l2 3 3-2 1 5 11-3 4-5 23 8 8 4 1 2h3v2l6 2-1-3 4 2 7-4-2-1 3-4h5v-2l2-1-3-2v-2h-2v-3l-2-1 3-6 2-17-1-2-2 1v-2l2-1-1-2h-5v-7l5-1-2-4 4-2h5v-2h3v-2h3l1-2-9-9-1-6-4-2-3 2-1-10 1-2 2 2 1-3 9-1v-4l6-1v2l5 1 6-2 7 2-2-2 1-4 2-1-5-8h-2l-1 3-3-1-1 2-2-2-11-2-4-2-1-3-1 2h-2l-1-1 3-2-2-2v2l-2 1v-2h-4l2-6-3-6 3-2v-2l-5-1-3-4 5-2-1-4 4-2-4-5 1 1 5-3v-5h3l1 2 2-4-1-5 4-1 4-6-2-14-2-2v-11l-2-2v-5h13l2-2-5-7 2-1-2-6 5 1v-2l5-6 4-2 7 2 2 3 4-8 5 2 3-9 6-2 3 3 9-3v-2h-2l2-2-2-1 4-3-4-7h5v-2l2 2 1-2h2l1 2v-2l5 1-1-1 6-5-4-3-3 3h-2l-1-6 1-2h4l-6-3v-4l6-1-2-3 3-4 3 3 4-4v-5l5 1 3-3h4l12 5 2 4 6 3 15-3 2 3 5-1 3 5-3 6 3 3 1 10 5 5 4-1 3 5 4 1v3l1 2h3l2 7 5 2 1 8 2 1-3 2-2 4 2 3 7-5 2 4v5l2-2 3 2 1-6h6l5 7 8 1 3-2 3 4h-2l1 4h4v2l3 1-1 4-6 3-3-1-2 13 5 4 1-5 3 1 1-2h4l1 4 1-1 4 3-2 2 1 5-5 14-3-2-2 1-2-2-2 4-6-4h-5l-1-3h-2l-3-3-8 1-5 4-13 1-3 2-7-3 2-2-5-4-1-3-11-1-1 2h-2v-2l-5-1-1 2-3-2v4l4 6-3 3-3 9-6 2-1 7 5 2-2 4-2-1-4 2 3 1 1 4-3-1-1 2 2 6 3-1 1 11 5 9 4 4v-2l1 1v3l-2 1 1 2-3-1 1 7 3-1 4 6 1 5h2l-5 2v5l-3 4 3 3-1 4-2-1-2 2 3 2 3-3 1 3h5l1 2 7 3-1 1 2 3-2 1-1-2-1 4-1-1v2l-2 1 2 2-1 1h3l1 4 4 3 9 1 3 3 2-2 2 1 1 2-2 3 2 1v2h3l-2 2 3 1-1 3 2 2 2-1-2 4 2 3-3 8-3-2v5h-3l-2 4 1 4-3-1-1 4h-4l1 7 5-6 1 5 4-1 2 3-2 4 2 3 6-4 1-3 3-1 4 5 5 3-1 4-6-2-1 2 1 3 7 2v8l3 4 3-3h3l5-6-4-6v-3l1-3 6-1-2-6 7-5 8 1 1-2h3l9 5 5 1h4l1-2 6-2 22 9 1 2-8 17-2 1 3 9-5 3-1 10-2 1 2 1 1 4-5 5-3-1-1 6h-2l1 21-9 1v3h4l1 8 2 3-3 3-2-4-5 2h-7zm-15-13-10-5-14 1 1 9-10 1-2-12-5 1v2h-4l-3 4v-3h-2v-2l-6 1-1-5-4-1 1 1-5 5-7 1v2l-6 4 2 3-6 2 1 1-4 2 1 5-1 1-2-2v2l-3 2 3 5 2-1 1 5 21-5 1 2h7v3l9-3-1 4 4 7v3l5-1 2-3 1-16 6-1 7 4 14-2 14-10-1-8z"/>
</svg>
