<svg xmlns="http://www.w3.org/2000/svg" id="svg1" version="1.1" viewBox="11 -315 1250.5 908.5">
  <path id="Xianggang" fill="#ff6347" fill-opacity="1" fill-rule="evenodd" stroke="#ff6347" stroke-linecap="round" stroke-linejoin="round" stroke-opacity="0" stroke-width="0" d="m525-224-6 7-10 6-3-1-2-4-5-2-16 4-5 3-8 10-1 11-2 3-11 5-29-8-21-3-2 1-4 3-1 4 10 16-6 9-8 3 2 9-2 6-3 2h-8l-4-8-10-10-20-5-10 1-2 18-4 6-12 9-10 10-17 32-34 14-7 5-9 11-10 19-13 19-7 4-42 14-26 31-1 5 14 4 7 6 2 5 7 20 2 12-1 7-5 10v4l4 8 44 28h22l10 6 5-2-6-13 8-7 15-7 14-2 11 1 11 3 30 15 34 5 5 2 10 7 3 4 3 6v5l-7 16-15 13-124 75-6-1-6-8v-5l6-3h22l11-11 3-16-1-7-8-4-33 4-17 5-3-6-3-1-83 29-3 6 6 7-2 7-7 13 1 9 4 6-1 12-14 16-3 9-18 7-11 1-3 3-9 20-4-4h-7l-7 3-10 8 3 10 3 1 12-3 1 2-2 9-5 4-13 3-4 3-1 13-2 2-3-1-5 2-5 4-4 6v21l3 10 5 6-3 10 1 5 1 4 8 8-4 19 8 1 3-2 7-1 11-12 4-2 4-1 12 3 9-4 22-16 3-5 3-11 5-3 9-2 4 1 2 9 9 11 12 9h20l32-4 5-7v-12l-2-3 1-2 21-6 16-17 22-2 20-9 11 1v3l-5 10 1 8 5 10 9 12 12 10 10 1 14-10 12-3 4-6 11-7 2-6 3-2 5 2 5-5 2-7 3-3v-3l-1-3-16-5-4-7-10 2-7-7-6-2-1-2 1-6 4-5 22-10 1-3-3-7-25-26 2-7 6-2 5 6 4 1 7 6 9 3 18-2 1-9-5-17 4-4v-17l-5-2v-4l2-2 7-1 4-4 2-4-2-9 4-12 9-4 13 1 19-4 9-6 3-5v-10l15-25 4-5 10-5 7-1 14 2 10 7 9 10h55l7 8 5 10 5 5 8 5 13 5 9 7 4 6 1 5-1 6-3 5-17 9-11 10-18 11-2 5-1 12 2 7 13 15 22 35 16 9 11 13 12 9 9 3 9 12 8-4 8 1 9 4 4-2 4-16 6-13 8 1 12 13 12 2v19l-3 3-6-1-2 2 2 4 11 6 4 5-5 10v6l2 2 11-1 9-6 2 1 5 36 5 6 17-2 7-4 1-6-8-13v-11l8-7 11-6 7-2 4 1 13 21 6 2 20 1 6-2 1 3 6 3 1-3-2-2 3-6-3-3-1-4-5-1-1-2-4-23-4-7v-2l3-1 4 1 2-4h5l1-5-9 1-2-2 1-9-6-9-1-5-3-3v-3l3-4 6-3 4-7 1-11-2-8 4-4-19-19-9-12-3-7 4-16 23-25 5-1 6 2 8 16-7 15-1 9 2 11 9 5 1 5 8 15 4 2 9-2 3-8 6-4 1-5 3-1 8 2 5 8 11 8 4 6h3l4-2 2-7 9-1 3-6v-4l-2-5-6-5v-17l-3-2-7-1-1-5 9-5 8-9 8-2 3-6 1-7-4-12-4-2-5-6-1-6-5-6h-18l-3-3-6-13v-5l-3-4-6-3-16-3-6-5-4-8-8-38 1-2 13 1 3-8 3-3v-15l-5-4-3-5-2-12 4-12v-7l6-11-3-10 3-6 6-4h6l12 12h10l2 2 1 5 3 1 3-2h4l3 2 14-2 1-2-3-4 2-6-1-2 12-3 4 8 3 1-3 10 1 5h8l7 6 15 5 2 2v8l-8 17 5 10 9 7-2 5 2 7 10 12h6l4-2 7-9 3 1-1 5 6 14 2 12 4 3 5-1 7-14-3-6v-13l7 3h3l1-2 2 1 1-7 7 3 8-5v-4l2-3 8-2-7-6 2-4 6-1 3-3 1-10h2l11 8 4-1 2-3 1-8-4-9 4-5 1-4-2-11 1-10-9-10h-6l-7-10-11-7-1-5 4-13 6-3-1-8 4-6 7-6 7-2 5 2 10 13 5 4h13l5-4-7-18-5-4-1-3v-8l-3-11 4-8-2-3-6 1-4-6-5 1-1-6h-3l-3 3-15 5h-4l-5-3h-13l-6-13 1-5 5-7-2-13-2-4-6-4-14-6-2 1 1 4-2 5 2 6-1 3h-2l-5 5-4-1-4 3-1 4 2 4v5l3 3-1 7-3 6h-2l-8-6h-9v-16l-4-6 1-14 3-4 10-3 3-4v-5l-5-14-1-11-6-10-3-2-5 3-1 5-4 4 1 14-7 8-4-1 2-9-3-10-2-1-8 4-2-1-2-5 1-6-4-6-7-1-14 8-6 8-10 7-13 26h-15l-3 9-9 2-17 15-4 10v7l-5 5h-4l-11-4-31 5-26-2-4 4v5l-3 6-8 3-23 2-9-2-15-12-15-9-5-8 3-15 5-9h11v14l13 1 3 2 6-3 16-1 11-6 6-8 2-5-1-3-8-2-5 3-5 11-6 4-8-2-4-3 1-5 6-1-2-2-6-2-1 2-2-3-11-4 2-14 2-3 4-2 7 3h7l8-1 6-4h4l2 5 4 2 18 21 2 14 5 5h8l20-10 6-6 6-11 7-6 16-7 3-5 9-2 19-9 14-9 15-5 10-7 3-4 1-5 3 1 9-6 12-12 7-10 8-5 16-14v-5l-4-5h-10l-17 11-27 9-10 6h-2l-7-6-4-1-3-4-4-1-2-2-1-5-4-1-7 2-1-3-5 1 2-4-16-1 4-14h4v-5l10-11-9-1-6 5-2-1 6-11-2-3-11 1-2-2h-3l2 5-3 4-10-3-8 2-1-2 2-7 2-3 7-4v-4l-3-4h-6l-3-8h-5l-5-10 6-7-1-2-3 1-4-2h-5l-1 4-7-2-3 3-3-1-2-4-8-1-5 4-16 30-9 1-2 9h-3l-3 3-5-5h-2l-2 2v3l-9 3-3 3h-8l-2-1v-2l3-10 6-3 11-16 3-2 15-2-3-2-1-11-2-3-7-4-6-8-2-1-4 3h-6l-5-5-16 1-5-2-8 1-4 3-4-1-4 3-5-2-2 2-11-2-1 2-7-2-1-9h-14l-3-4h-3l-6 5-3-1-3-5h-2l-3 3-7 11-8 2-1 7-3 1-1 5 3 4v-2h2l-1 3-6 5-1 5-7 2-1-2h-5l-1-2-9-1-5 4h-9l-4 4h-6l-6 4-5 7-7 2-3 7-6 2h-3l-2-3v-10l-2-2-3 5-9-2-12 3-8-6-5-1-6 4-5 7-10 2-4 4 1 4 11 6 2 6zM415 469l-3-4 1-6 13-6-3-3h-5l7-7-1-5-7 3h-8l-5 3-1 6 2 1v2l-5 6-4 2 3 5 6-1 4 3 1 2-2 7-8 1-2 1-4 8-8 1 2 7 3 2 4-1 1 1-2 1 1 2h2l7-4 2-4h3v-3l3-3h5l1-2h3l2 4 3 2 1-4 4-2 1-4 4-1v-2l-3-2v-3l-3-1-7 3zm552-656 8-3 3-3v-4l3-1 6 3h4l3-6 8-2 7-9 4-1v-3l-5-4-4 1v-5l-4-6-12-6-3 3 3 2v13l-4 7-4 2v2l-4 3 2 1-1 2-3-1-2-6-4 1-1 3-3-3-2 2h-3l-1-2v6h3l2 2-1 5-2 1 4 5zM634 454v-5l-4-7h-6l-2 6-2 1-5-3-4-5v-2l2-1-2-7-10-6-1-5 5-11v-4l-2-2-5-1-3-4-7 7h-4l-2 2-10 3-3 3-1 4 9 5-4 7 6 3-21 15 4 19h12l12-7 2-4v-6l2-1 4 3 4 8-2 15 3 7-2 26-3 5-7 4-2 4v9l4 5 10 3 5-1 3 3 8 1 4-7 3-2 7 9 7 1 1-9-7-14v-3h2l15 14 8 5h4l3-3-1-5-13-24 1-7 14-12 13 1 8-11-1-3-4-4-11 1-3-4h-5l-7 2-5 4-9-1-8 2-12 7-1 3-4-7 15-11 4-5zm344-702 3-9-3-3-3 2-10-8-1-8-7-2 1-6 2-2h3l10 7 4 1 6-6h3v-3l7 3 12-7-7-3-3 2-2-2-8 1-7-3-1 3-21-2-2-2 2-4-7-2-5 5v2l1 3 5 4v2h-7l-3 2v2l16 16-3 1v-2l-3-1-1 3-7 1-1 6-3 5 2 2 4-3 13 1 8-4 2-3 2 1-2 9 5-1 4 2zM330 516l9-5 1-6-3-4-2 2-2-1 2-9-3-2v-3l-7-2-9 10-1 8 1 3 9 3 4 6zm-151 25 1-6h2l2 4 4-2-3-2 1-1-2-3h-3l-4-4h-3l-2 2-6-7-7-4-3 7v12h4l8-6 3 1 1 8 3-2h2v2zm771-178-7 7-4-3-7 5-4 6v9l-2 2 1 3 15 7 1 1-3 3 1 3 5 2 3-9h10l2-2v-10l1-2h3l1-6-5-2 1-2-2-2 1-3h2l1-2-4-4 1-4-3-1-6 3zm65-188 3-1 2-3-1-7 5-4-1-2 3-5-2-6 3-4-8-8-10-4v-6l3-2v-4l-2-6-5-4V92l-11-4h-22l-3 2v8l1 3 4 1 3 3v6h-3v4l-2 1 2 3 2 1 2-3 2 3-3 2 3 6-1 8 2 5-7 7 1 7 12 16 5 2 7-4 11 5zM872 553l-4 6-2 10 2 3 4-2v4l-2-1-1 2 1 2 11 3-6 9 1 2 11-4 4-6-1-4 6-6h2l1 5 18-3-6-15v-2l4-4-3-3-2-7-6-4-4-5h-5l-3 7-12 4-4 3-1 3zm-721 35 5-2 2-4 10 1 4-3 4 1 1-1-2-6-3-1v-6l9-4-1-2-12-3-3 1-2 5 3 3-3 4h-3l-3 4-3-3h-5l-5 5-1 4 7 5zm276-228-8-1-3 2-7-2-1 4-3 2 3 6h8l3 2 5 8 2-2 3 1v5l3 3 2 7 6 4h4l3-5v-3l2-1v-3l-7-8 3-8v-5l-1-3-5-3-7 1zm667-130 3 9 5 5v5l2 4h5v-8h6v-2l-5-5v-2h2v-3l-3-7-5-3 2-2h-10l-2 1-1 5zm-140-27-2 2 8 12 7 3 6-1v-8l-7-9-3-1-6-6-2 1-1 5zM438 314l5-1 10-6 1-3-5-2-2-2v-3l-5-1-5 4-3-2 12-9-3-5-24 5-2 2 1 3 6 2 2 6 3 2-2 4 1 2 7 4zm523-164h3l1-2-4-19 4-4v-4l-4-2-4-6-1-5v-3l4 2 2-1v-2l-5-5h-2l-5 4-4 12-5 3 9 9 3 13 5 2v8zm63 62 9-7 1-10-7-7-3-5-1-6-9-2-11 3-3 5 4 8v5l3 1v7l4 6 9-1 2 2zm71-311 4-2 2-10 6-6 1-8-4-5-4-2 3-7-3-6h-4l-5-3-13 13 4 4 2 7 2 2v7l2 2-1 10 4 4zM144 555h4l2-3-1-2-3 3-5 1zm864-783 3-1 2-6-2-5v-6l3-3v-7l-4-6-4 1-1 13-3 3h-3l-5-9-6-3-4 5v10l22 13zM855 539l2-2v-4l2-1 7 3v2l9-3 4-4 2-8-3-9-6-1-11 3h-7l-2 2v15l2 2-1 4zM731 420l4-3h4l3-3v-3h-10l-5-2-2 5 4 5zm339-48 1-2 6 1-1-4 3-2-2-10-2-1-2 2 1 3-2 3-3-1-2 3 1 7zm35-167 2-1v-2l3-1v-2l-3-1-1-5 4-7-1-5-4-3-3 1-1 3-4-2-3 1-2 9v11l7 1 4 3zm-998-92h3l2-3-1-2 3-3-3-1v-3l2-2-1-2 3-6-16-6-2 5 1 2 7 3 2 7-3 9 1 1zM807-43v5l2-4-2-4zm262 284 2-2v-6h4l4-2 2-3v-8l6-6v-6h-5l-5 5-6-2-3 4-6 17 5 9zm-43-118 3-2 1-17-7-5-11-3-2 10 4 5h2l3-4v-3l2 1v9l3 8zm62-291 5-1 5-12 5-4v-4l-4 2-8-2-6 3-1 6-3 2 6 10zm-22 519 3-2 6-14-4-3h-2l-1 5-5 4 1 9zm63-145 1-1-6-5-4-1v-2l-2-1-3 2 1 6 4 2h5zM454 364l8-4 6-9v-2l-4-4-9 2-7 6-1 5 1 3 3 2zm488 170 4-1v-8l2-5-6-8-3 7h-5l-2 4 2 3v4l5 4zm-751 59 3-2-1-2-3 2v2zM803-90l5 2 2-6-1-2-6 2-1 2zm198 171 5-4v-5h-4l-2 2v7zM197 541l2-1v-2l-4-3-2 2 3 4zm1055-801 6-2 3-3v-7l-4-2h-10l-7-9-1-14-1-2h-3l-9 4-2 4-1 6 3 13 3 4 16 8zM932 94l2-4-7-5-2 2 5 6zm-807 81 3-8-2-3-5 1 2 9zm885 35-1 1h2zm-71-105 2-1v-3l4-2v-2l-8 4-1 3zM638 395l4-1h-7zm289-50v-2zm-19-633 1-3-6-7-2 1 3 6 3 1v2zm10 40h2l2-3-5-5-2 2 2 1v4zm156 581 1-1-3-2v2zM885-276l6-3-1-3-6 2-1 3zm56 57 4-1 1-2-6-3-3 2 3 4zM94 146v-4l-2-1v4zm912 123 1-1-2 1zm27-394 2-8-2-2-2 2-1 6zm131 64 3-1-3-3-1 3zM282 205l6-7-6-1-1-5-2 2-1 7 2 3zm189 91 6-2-5-4-4 3 2 2zM156 551l1-1-2-3-2 1v2zm949-333h-2l3 2zM888-291h4l-1-2-4 1zm-6 234-1-2zm89 164 3-3-1-2-6-2 2 6zm143 91 3-2v-3l-3-3h-2l-1 2 2 2-1 3zM580 306l7-1 2-2-6-5-4 4zm152 155 7-4-2-4-5-2-4 1 1 6 2 2zm246 66 4-7-1-5-2 2v6l-2 4zm-34-777 2-1h-2zm-125 3 1-2-2 2zM508 308l8-1-1-11-11 6-1 2 2 4zm303 169 1-1-5-3v2l3 2zm-615 67-1-2zm590-781 1-2-2-1-1 2zm253 429h3l-2-7-3 1v6zm71 18h2v-2l-4 1zm-117 55 1-1-2-2v2zm18 2h2l-4-3-1 2zM15 458l3-1 1-5-7-1-1 4 3 3zm852 118-4 4 2 1 4-2-1-3zm113-835 8-6v-6l-3-1-6 3v9zm-3 80 2-1h-3zm20 249-1-3-1 2zm2 12v-3l-1 3zm-40 30 3-2-4-2v4zm146 50-2-1zM883 436l2-1-1-3h-8l5 3zm-256 4 4-2v-6l-6 2v5zM179 576l1-3-2 2zM950-95v-3l-1 2zm-4 190 2-2-4-4-2 2 3 3zm212 34 1-5-4-1 2 6zm-217 1 2-4-1-1-2 4zm169 82 1-2h-3v2zm-85 6h-1zM239 459l2-1h-3zm735 74 3-1v-5h-2l-2 5zm-97-822v-3zm156 24 1-5-3-3-3 2 4 5zm-135-5 1-2-3 1zm31 21v-2h-2v2zm188 111h2v-2l-5-3v3zm-83 18 1-2-2-1v2zm-14 241 1-2-3-1v2zm103 61h2-3zM998 326l4-1-1-7-3-1-5 5 3 4zm68 46 1-2-3-3-2 1 1 3zM948 518l2-3-1-3-2 3zm76-391 1 1zM896-293v-2zm16 37-1-1zm0 7v-1zm31 14v-1zm7 37-1-2zm89 67v-3l-2 2zm195 32-2-5v4zm-56 66 2-1-1-2zm-31 76 1-3-3 2zM937 69l-2-2v2zm175 101 2-1-1-2h-2l-1 2zm-800 24 6-12-1-4h-2l-4 5-1 10zm-5 16 2-1-1-2-2 1zm800 2 1-2h-2zm-100 32 2-1-3-3v2zm-15 17-1-3v2zm-400 41 2-1-1-2-1-1-2 2zm515 41 1-2h-2v2zm7 4-1-4h-2l2 4zM902-262l-1-1zm276 233v-1zm-32 69 2-1-4-3v4zM932 78l1-2-2 1zm35 14 1-2h-2zm-18 9v-2h-2v2zm23 10v-3h-2v2zm-854 45 4-4-1-3h-4l-2 3 1 3zm944 196 1-1h-2zM839 547l1-1h-3zm-679 4-1-1zm915-376 2-1-1-1zM936-234l1-2-2 1z"/>
</svg>
