<svg xmlns="http://www.w3.org/2000/svg" id="svg1" version="1.1" viewBox="-166 -118 1042.7555 912.84906">
  <path id="Xinjiang" fill="#ff6347" fill-opacity="1" fill-rule="evenodd" stroke="#ff6347" stroke-linecap="round" stroke-linejoin="round" stroke-opacity="0" stroke-width="0" d="m523.5-48.5-3-7 2-4-4-2-1-3-3 1-4-2 1-2-5-3-3 1-2-3-1 1-1-2-6-2-1-2 3-2 3-6-12-6-2-5h-2l1-3 7-4-1-3-3-2 2-1-2-7-6-1v2l-8 1v3l-4 1-9-2-1-2-4-1-11 2-2 5-5 4 1 7 3 3-3 5 2 3-7 7-2 6-8 4h-5l-4 4-14-1-7 3-4 11h-2v2l-2 1-2 13 4 31-1 2 4 6v14l-7 8v3l-4-1-6 2-2-2-9 9-4 1-2 4-4-4v-2l-3-1-2-3-11 2-4-2h-10l-5 3-4-2-3 2-8-4-3 1-10-8-3 1-2-4h-5l-2-3h-8l-7 28-2 2-5 18-10 23-2 11-5 3v7l-3 7v12l12 7 2 5-1 9-4 2-9-4-8 2-3-3-6 2-6-10-9 3v2l-6 3-2-1-8 2-17 8-6-4v2l-6 3h-7l-2 4h-2l-1-2-6 3-4-2-10 10 3 2 2 5 8-3 2 7 4 2 5 6-3 8 3 14-1 7 6 21 11 23-4 7 4 2 1 11-6-1-13 7 5 5 5 2v2l-11 4h-4l-5 12 5 8-3 2v3l2 2-1 2 3 2v6l-5 2-1 3 2 4-3 3-10-1-3 2-3 8-3-1-8 4-4-1-4 4h-4l-3 4-12 4-6 6h-4l-4 6-3-1-5 4-6 2h-8l-1 9-14 5v5l-2 2-9 2h-5v-2l-3-1-5 2h-6l-3-1v-2l-5-1-2 3h-3l-1 3-4 2-2 8-4 3 2 4-1 5h-2l-3 4-2 7h-2l-3 3-1-1-2 3-2-6-5 4h-9l-3 5-4-2-5 3-2-5 3-6-4-3-1-7-1-2h-2l-15 13-12-1-6-3-2 4 5 6h-9v2l-6 3-1 3-5 5-4 2h-3l-1-2-6 1-2 2h-3l-4 4h2l-3 5v3l-3 3v4l3 1 2 8-2 1-2 6-12 1-1 3-4 2 3 2-1 5 7 7 2 7 4-1v7l-3-1-3 5 2 1 3 12 2 3h2l1 3 8-1-1-2 4-5 16 2 13 6 3 3v4l-3 5v9l4 9h2v10l4 4-6 6 2 5 5 5 2-1 3 5-1 6-9 2-1 3-4 1-3-4-4 3-1-2h-2l-1 2-3-1-2 6 2 4 1-1 2 3h2l4-3 1 4h3l1-2 4 7 2-1-1-2 5-2h6v2l11 2-1 3 2 1 1 9 4-1v-2h4l4 1 7 5 3 4-1 2 3 3 2 6-2 4 4 6h-3l1 3-4 2 1 4 3 3 3-1 3 7v4l9 1 1-3 2 1 6-4 2 2v7l4 1 3 4 10 5 4-1 6 5 5-1 7 4 9-1 2 2 6-4 4 3v-2h4l2 2v-2h4l-1 3-5 4 1 8 2 6 4 3-2 2 4 3v5h2l-1 9 2 1 1 5 6 1 1 3 2-2 3 1v3l3-2 4 1 2 4 5 2 1 3 3-1 4 2-1-3 2-2 8 1 14-3h12l3-3v-8l2-1-1-3 2-5 3-1v-2l2-1-1-7 2-3 2 1 6-5-1-1 2-2h4l-4-5 2-4 3-1 2-3 4 3h7l1 3 7-1 3 2h6v-4l3-1 4 2 1 3h3v-2h4l6 3 1 4h7l3-2h9l1-2h2l2-2v-7l9-3 4-3v-5h3l1-3h6l8 4 3-3 8 1-1 2 2 2v7l4 1v2l5 2 2-2 10 2 2 2 2-1v2h4l3-2h9l1-2 4-1 7 4 14-7-1-4 16-5 12-6 10-2 3 2 1 3 7 1 2 2 4-5 7-3h7l5-4 6-11v-5l12-5 2 1 9-2 2-3h4l2 2h2l3-3 7 1 2-3h5l3-4h3l2 4h4l16-2 3-3 7 1 2-2 2 1 1-2 6 1v-2l6 3 3-1 2 4 3 1 2 3 3 1v-2l6-2 9 7 4-1 1-2 3 4h4l5 4 10 3 2 2h8v-4l3-3 1-4 6 1-1 2 6 3h12l4 2 2-1 9 7 3-1 2-4 6 1v-7l-2-1 1-4-2-1v-12l-13-3-2-5 2-3-1-6 7-5h5l3-3h3l3-3h5l-1-8-4-3-4-14-2-2-5 1-2-3h-2l1-3-5-4-11-5v-34l-8 1v4h-3l-7-6 2-3-3-1v-4l14-1 2-1v-2l8-5-1-2 5 1 26-6 18-7 4 1 10-5 19-4-3-4 1-1-2-8 9-8 5-9 5-21 2-17 5-9 1-16 38-5 3-8-1-5 17-23 16-15 10-2 5-8 13-6 3 3-1 2 3 5 3 2 1-4 11-10 4-2 9-1 8-4 3-4 1-4-2-6 4-4-6-7 1-5-4-2 2-6 4-4 13-8-1-11-21-20-2-12-6-11-9-26-10-1 2-4 1-9 2-3-1-1-19 2-2-2-10-3-5-7-7-4h-5l-1-5-5-5-32-19-4 1-5-3-18-1-2-2-5-1-12 4-9-2-3 1-6-5h-14l-5 2-6-1-5-5-3 3-2-2h-4l-6-5-11 1-1-1 2-2-3-4-1 1-2-9-4-4v-4l2-11 3-7 11-13-6-19 4-4 4-12-3-2 2-9-5-7 1-3-2-1-1-5-6-2-9-14-4-8 2-4-3-1 1-4-6-12 2-1-9-5h-3l-3-4 1-6-6-1v3h-9l-1-4-4-1v-2l-2-1v-4l-2-1-8-1-1 2-6 3-7-1-7-9-5 1-5-5z"/>
</svg>
