<svg xmlns="http://www.w3.org/2000/svg" id="svg1" version="1.1" viewBox="-166 -118 1334.8206 730.5">
  <path id="Xizang" fill="#ff6347" fill-opacity="1" fill-rule="evenodd" stroke="#ff6347" stroke-linecap="round" stroke-linejoin="round" stroke-opacity="0" stroke-width="0" d="m887.5 191.5 1-2h-2v-2l-8-7-5 6-4-1-3 4-2-3-2 6h-11l-1 5-3 1-3-2-4 1-4-3-3 2h-4v-4l-9-5-4 1-2 3-7 4-3-6h-4l-1 2-10-10-4-1-1 2h-3l-2 2-4-6v-3l-7 3-5-2-3 1-6-4-1 3-21-3 1 1-7 2-4-2v-4l2-1-1-3-6-1-10 4-4-7-2 1-2-4h-4l-1-2-5-1-6-4-3-5h-4l-3 3-4-3h-4l-3-3h-2l-3 3-1-1-2 3-4-3h-8l-3 3-1-3h-5l-4-2-3 1-10-8-12-4-7-11-9-2-2-5-4-2-2-3v-11l-5-1 2-4-3-1-2-4-4-1-7-7-4-7 2-1v-3l2-2h4v-2l4-1-1-2 2-1-1-2 3-10-3-1 1-1-2-1v-18l-4-1-1-5 3-3h2v-2l4-3-1-4-2-1v-3l-2-1h-5l-3 3-5-1-1-9 2-7-4-2-6-8 6-5-3-1 2-2-1-2 7-5h5l3-5h2l-4-5v-3h3l1-2-3-4 2-1-1-4 1-3h2l-1-3 2-4-16-1-4-4-1 1-3-2-1-10 4 2 8-1 3-1v-2l3-2-12-4-8-6-6-1-4-5-2 3-4 1-2-1v-2l-9-3-2-3-6 1-4 4-3-2-2-4-5-1-1-5h-6l-3-3h-5l-2 1 1 1-8-1-7 4-10-1-4 3-10 2-2-1-11 3-6-1-2-5h-5l-4 5-7 1-3 4-9-1-5 4h-2l-2-3h-8l-3 4-6 2-13 1-3 3h-5l-2 3h-3v7l-1 3h-2l-1 5-3 3v3l-9 7h-9l-7 2-1 2h-2l-3 6-3 1-2-2-10-3v-2l-6-3v-2l-9 4-6-1-18 11-13 2-2 2-6 1 1 6-19 10-1-2-3 1-1-3h-3l-2-2-5 1-3 4h-13l-2 2h-7v-2l-19-4-2 2-6-1-3-5-5-1-2-15h-4l-2-2-5 1-4 3-7-4h-6l-4-2-3 1-2 4h-3l-1 8h-4l-5 5-9 3v10l-4 2-1-1-3 3h-8l-7 3h-11l-1-3-9-6-9 3-2-4h-3l-5-3-2 2v3h-2l1 2h-4l-7-2h-10v-2h-2l-1-2h-9l-4-2v-2h-2l-2 4-5 1-3 6 7 7-7 1-3 6-6 5-3-1-3 3 1 10-3 1v3h-4l1 3-3 7v4l-2 1 1 2-3 6 1 3-4 4h-6l-2 2-8-2-2 2-1-1-9 3-2-2-6 3-5-2-5 2-3-1-1 4 2 4h-4l-4 13-1 1-2-2-3 3-2-1-3 4h-6v5h3l2 2v6l2 1-1 9 2 5-6 4v2l1 2h3l-1 4 7 12h3l4 3v3l4 1 4 8 5 3v13l6 5-2 13h4l1 4-2 4 3 6-3 3 1 1-2 2h-4l-3 3-2 8h-7l-2 3-12-11-2-7 2-2-3-5v-3l-5 4-15 6-2 3 5 7-1 4 3 7-2 5-3 1v2l3 5 2-2 4 4v2l3 1-1 1 11 7v2l-7 6v2l3 3 3 8h3v3l3 2-4 5-3 1-1 4h2l2 3-2 3 2 6 5 2v-2l1 3 5 5v2l3 1-2 4 3 6 5 3 6-1 3 5 6-1-1-4 3-1 3-4 2 5 4-1 6 6 4-1 1-2 6 4 4 6 6 1-2 2 5 3v6l3 2 2 5h3v2h14l3 4h5l1 2 7 3 5-1 4 4h2l6 7 6 1 1 3 3-1 4 2 3 11 2 1-1 3 2 2 8 1 2-4-1-6h3l5-4 2-6v-2l-2-1 2-8 8 4 1-4 1-1 2 2 1-3 7 3 1 2 12 3 1-1 2 3 5-1 1-2 2 1 2 3-2 6h2v2l3 1-1 7 4 2 1-1 4 3 1-1 11 7h4l5 6-1 3h7v2l-3 3h5l1 3 3 1v2l8-2 1 4 3-1 5 5 3-2 2 1v2l2-1 4 2 1 5h3l6 7 2 8 7 8 2-1-1 2 4 2 6-7 3 1 3-4 6-2h5l1 2h7l1 4h5l-3 5 3 4-1 5 4 1-2 6 1 5 2-1 1 2 8 1v2h2l-1 2 4 5h9l5 5v2l10 5 7-1 6-7h3l3 3h2v7l-2 4-3 2v9h6l5 4 5-1 1 2 6-5 9 3v3l3-2 2-7h2l3 11 2 3 4 1 1 4 2 1v4l5 5-2 3 4 3 6-1 2-2-3-6v-5h3v-2l4-3 2 5v9l3-1 3 3 1-2v2l4 1 1 2 7-4-1-3 4-8h2l1 3h2l3-3 4 1v3l2 2h5l5 5 9 3 2 5 4 2h3l2-2 7 2 4-3 1 1-2 1 3 1 7-3 2 1v2l5-1v2h4l7-10 2 2 7 2h7l1 2 2-1v-6l4 1 1-2h2v2l3-2 7-1 5-4 5 1v-4l6-2 2 3h5l6 5 2 11-2 13-3 3-1 4v7l1 4 2 3h2l3 8h2l2 4 6-2v-3l5-3 2-4-5-7 1-5 3-2-2-5 3-2 4-9 8-6 5-6 2-4-1-2 3-4h2l5-5 11-3v-3l4 1 4 4 4-1 4 4 9-4 3 3 5-1v2h2l4 5h8l5 3 7-4 5 3 1-1 3 6 6 2 2-1v4l7 4h3l3-8 3-2h4l4-6 8 5 3 5 7 3v2h-3l-2 3h5l2 4-6 10 2 2v4l11 6 3-2h5l4 2 4-1 4 6 4 9h-3l-4 14 7 8-1 8 31-7h4l9 4 7-2 9 3 37-5 14-7 1-9 4-6 23-24 16-1 17-7 15-10 17-8 7-15 8-2 10-6 7-1 3-2 5 1v3l8 4h3l1-2 5 1 7-2 1 6 5 2h2l1-3 2 1 3 6h5l4 6 10 4 1 3h6l5 2 2 4h3v4l2 1 1-3 13-10 3 3 2-1-1-2h2l-1-4 2-3-2-4-4 1-1-2 2-2 2-7-1-3h3v-3l2-1 2 2 1-3 3-1-2-1 2-8-1-2 4-5 2 2 4-1 4 2 1 8 4 5h3l1-3h3l7 8-1 3 2 2 4-1v3l3 1 2-1v-3l6-3-4-8h2l3-3 6 11 2 10 8-5 6 1 6-5-1-4 3-3-5-11-3-1 1-5-3-8 6-5-2-4v-10l-2-3h5l4-3 4 6v8l6 1v-2h3v-3l-4-3 1-5h2l4-4-3-8 1-5 3 2 1-2 5-2-4-7-1-17-3-6 1-13 3-10-1-9-2-5-2-1 1-4-2-3v-15l-4-17v-2l4-1-1-4-5-2v-2l-6-5 2-8-5-4-4-8-5-3h2l-1-8 2-3 3 1 6 6 7-9-7-8-3-1-5-7-4-2v-2l-3-2 1-2-3-2v-3l-7-6 1-2-2-3 3-2v-6l-9-9-5-10v-7l-6-4h-3l-4-4-10-4h-4l-3-2h-16l-4-4-5 3-1-1-1 3 3 1v2l-3 3 4 1 2 8-4 4-1-2h-3l-3 9 4 4-2 2 1 2h-3l-2-3-2 2 2 2h-3l-1 2-9-1-1-2-5 2 1 4-3-2-2 4-5-4-1 1-3-2 2 7 3 4-3 2v3l5 8-4 3-3-1-2-3h-2v2l-3-3-3 2-7-4-4-6-1-6h-9l-4 2 2 2-3 7 4 2-1 2 2 5-2 1 1 2-2 2h-3v-7l-6-2-5-6v-2h-4l-6 10-2-1v-3l-4-2-8-1-2 3-4-1-4-4-3-7-3-2 2-6h4l-2-2v-2h2l-1-8-3-2-2 1v2h-3l-3-3 1-1-3-9-8 5-2-2 1-3 11-2-3-4-9 1-6-3-3 2-2-1-1-5-3 1-3-2-1-3z"/>
</svg>
