<svg xmlns="http://www.w3.org/2000/svg" id="svg1" version="1.1" viewBox="-166 -118 790.99994 815">
  <path id="Yunnan" fill="#ff6347" fill-opacity="1" fill-rule="evenodd" stroke="#ff6347" stroke-linecap="round" stroke-linejoin="round" stroke-opacity="0" stroke-width="0" d="m389 111 1-3-2-2 2-2 3 1v-2l-3-1 7-3 5-9 8-7h2l1-5 3-2 2-9 2 2 6-1v5l6 5 3-1 2 2-1 2 4 4 2-2 5-1v-4l4-4 1-4h2l2-6 6 1v2l5 3h3l-1 1h2l2 7h3l4 3 10-4h3l1 3 4-4h2l2 2v3l2 1 18-13h4l3 2 2-1 1 4 5-7v-5l2-3-1-3-1 1 2-5 4-3-1-2 2-2-2-12-2-2 4-3-7-1v-7l4-3v-3l-3-5-6 1V5l-2-3-2 1-6-2-1-2-5 4h-3v4l-8 11-11 3-2-1-15 6-2-1v-2l-3-2-1 1-12-9v-3l-7-5 3-2 4 1 2-4 4-3v-4l-4-1v-4h3l2-4-1-3-4 1-2-7-2-1-4 4-2-1 1-1-2-2-2-7 1-9-2-1v-2l10-3 1-3 4-1 1-3-2-2-3-1-5 4-4-2-2-3-2 3h-9l-2 3-4-2-11 2v-2h-6v-3l-2-2-2 9-3 2-1 4 7 15v8l-9 7h-2l-2 4h-2v-3l-5-3-7 3-1 4-8 7-3 5v3l2 2h3l2 6 5-1-6 7 1 7-2 4-16 15-3 4 1 5h-7l-1 4-6 8v3l-3 2-5-1-2 3-4 1-3-4-4 6-2 6 2 16-3 12 2 2-1 5 1 4 9 14-1 1 2 9 2 1v7l2 6v3l-6 3v14h-8l-2-2-4 6h-4l-6 6v3l-4 1-7-4 3-9-8-3v2l-14 5-4 5-8 2-2 4-6 4-6 8-8-3-6 1-3-2-6 6h-2l1-4h-2l-2-3 1-4-3-1-4-6h-3l-1-2-5 2-4-4 1-4 5-1-3-10-3-1-8-8-6-1v-3l-1 1-2-3-1-3 1-2h5l2-7-2-1v-2l5-5-1-2-4-1v6h-6v-2l-3-3 2-1-1-2 3-4-3-2v-2l-9-2-1-5-11-7 2-8-2-1 3-9h-9l-3-3-1-7-2-2 1-3-2-1-6-12-3 2 1-7-5-11-2 1 2-3-2-1 1-2-6-2v-5l-7-8 2-4-2-1-2-6-2 2-2-1-2 6-6 5-1-2-8-4-3 3-4 9h-2v2l-2 1-3-1 1-6-2-2 2-2v-3l-9-2-3-3 2-3-7-9-4-2-5-11 1-4 2 1 1-2 3 2 1-3 6-1-1-2 2-2-3-3 2-1v-3l-3-3-7-2v-8l-6-2-3-10-4-4h-4v-3h-4l1-2-4-5h-4l-2-2-1-13-4 4-5-1-2 5 1 3-7 6v6l-4 1-3 7-3-1-3 3v3l3 5-2 1 3 4-3 4-1 5 2 2-2 8 1 7-9-8-1-6-5-3-1-4-3-1 1-1-4-5 2-2 1-6-2-5 1-4-2-1 1-2-4-9-2-12 2-14-2-20 1-8-7 1-2 2-4-1-1 7 5 9-6 6-3 1v10l5 2v3l-5 1v2l-2 1h-4l-2-3-2-13-4-6-5 4h-7v3l2 1-1 4 2 5-1 3 2 9-1 2-7 3 4 12-1 8 5 1 1 5 2 2-1 2 3 2 2 4-3 2-1 9-6 3-2 3-6-1-3 1-2 3-4-1v2l-3 3h-2l-1-7-2-2 1-6-6-8-3-7-4 2-1 3-2-2v3l3 2 2 8-8 3v5h-2l-1 2 2 4-3 12 2 5h3l2 5-3 6 3 2 4 8-3 2 4 4v2h2l3 14 5 1 5-4V45l2-1 2 3 6 1 2-2 3 6 5 2 2-2 3 3-1 14 2 6 3 3-3 8 2 1-3 4 1 13 5 3v3l-3 2 2 8v4l-2 3 3 6-2 10 2 1 1 9-2 4-1 18-3 6-3 2-1 6 4 1 2 5-2 4 1 2-6 4v-6h-3l-2 2-1-1-1 2 3 15 4 1 3 3 1 7-5 6-4-1-3-3h-4l-6 11v5l-4 1-1 2v6l-7 3-1 2-6-7-7-1 1 7-2 3-3 1 3 6-2 7h-4l-2 7-5 1-7 9h-3l-6-6-4 12-5 8-2-1-1 11 2 3v4l3 3h2l1 3-3 2-6-2-5 6-7 2-2 3 2 1v12l-1 11-3 6 1 1 12-3 1 5 3 3v2l-5 2 1 4h5l4 4-3 3-1 4h2l1 2-2 2v3l-4 2-1 3-4 2-1 4-5 2v2l-4 2v2l10 5 1 3 3-3 3 1 1-3 4-1v-2l3-3 1 1 3-3h5v-4h4l15-8h8l2-2 13 2 9-3h8l4 4 5-2 3 1 7-3h9l2-2 2 4-8 8h-3l-5 6-2-2-3 3 3 1v11l-3 3h2v2h9l5 15 3 1v3l-7 5v2l2 5 5-1 3 6 1 7-4 2h3l2 2v4l-4 6v3l15 2v5l5 2 8-2 5 3 9-5 3 3 12 3v6l4 8v2l-2 1-8-4-1 2 2 7-4 2-3 6-5 1-1 2 4 7 2 9-2 4 2 3-4 6h-2l-3 4-3 1 2 5-4 4 1 5-3 2-3 5 1 1h-2l1 2 4 4 4-1 1 2H6l6-3h2l2 3 4-2 2 2 1-2 10 5-1 2 2 1 1-3h4l5 2 1 2h3l1-4 9 1-2 2 4 7-5 10v4l4 10 5 5 5-4 7 4v2h-2l-1 3-3 2 2 9 4 2 1-3h2l4 5 3-2 1 1 5-5h4l3-2 3 7 2 1 4-1 5 2 8-3 2-3h4l2-4 3-1 1-4 8-8 2 1 3-2 7-1 6-6h3v8l4 4v6l-2 2 6 1v5h2l-3 3v5l-5 1 4 8 6 3-3 6 7 6 9-5 13-2 6 1v6l6-2 3 3v2h6l3-6h3v-4l-4-4-4-1-1-4 2-7-1-7 3-3-2-3v-4l3 1 4-4-2-3-3 1-1-8-2-1 3-10-3-1-1-3-3-2-1-5-2 1-6-3 2-4-5-11 3-2v-2l-5-7 2-4 5-1 2-8 2-1-2-3 3-8 8-2 5 4v3l7 5 1-6 6 1 6-3 8 3 1 3 4-3 8 1-1-4 6-9 3-1-1-2 3-1 2-4-2-4 5-2 2-7 4-1 6 6 4-2 4 5 3-1 15 9 7 12h5l4 4h4l1-7 9-4-2-6 3-3 8-3v-6l4-4v-3l10 5v6l2 4 7 6 4-7-1-4 7-9 21 23 8 6 4-1 3-21 7-8 13-3 1 10 10 4 18-15h2l1 3 1-2 5 2 5-1 4-7 8-4v-3l-4-6-1-8 6-1 1-5 2-1 4 3 2-5 6-2 5-4 1 2 7-4 5 2 2-8h2l4-5 4 7 4 4 2-1 4 4 2 5 4 2-2-5 6-8 7-3v2l3-1-2-2 2-1-5-4h5l4-3 1-3h5v-4l4-2 12 3 1 4 7-4 6-8-2-3 4-12-2-7 5-3-2-4h2l-5-6-4-9-4-3v-4l-2-2-2 1-1-3-3 2-3-2-2 1-1 8-3-2-2 3h-4v-3l-3-2-2 2-4-1-2 3h-3l-1-9-3-1-5 1-3 3v7l-2 1-7-2-9-8-4 2 2 2-3 2-7-8v-3h4l1-4-6-7 2-5-5-5-2 1-1-5-8-2-8 3-2-2-7-2h-10l-2 3 2 8-1 2-9-6 2-2-2-2h-3l-1-6-2-1v-3l-4-7v-4l-2-2 6-11-1-6 16-18-2-6h-6l6-2 4-10-1-2 2-2 6 5v-6l2-1-1-3h-8l-2-2-6-1v-6l-9-5 1-12-10 3-1 2-2-3 2-2-1-6h-5l-1-2h-2l-2-5 1-11 4 3 3-3v-4l3-2-1-2 2-3-1-3-2 1v-2l5-10-1-7h4l2-2 2-16 4-6 6-2v-2l2-1-1-7-3-2-2-6-4-1 1-5-2-2-6 1-3-2 1-5-4-7-2 1-2 6-6 4-2-3-2 2h-4l-6-3-4 1-5 8 1 4-2 1h-17l-4-2-7-10 2-2-1-4 2-3-1-2-1 1-3-2-1-5 1-6 5-1v-9l-2-1-2-6-3-3h-2l-2 3z"/>
</svg>
