<svg xmlns="http://www.w3.org/2000/svg" id="svg1" version="1.1" viewBox="-166 -118 877 843.58496">
  <path id="Zhejiang" fill="#ff6347" fill-opacity="1" fill-rule="evenodd" stroke="#ff6347" stroke-linecap="round" stroke-linejoin="round" stroke-opacity="0" stroke-width="0" d="m-107.5 241.085-4-4h-2l-1 4 2 12-13-2-5 2-3 5h-2l3 4v6l-7 7 1 4-7 3-4-3-2 2h-6l2 4v7l-1 3h-4l-2 2-3 8 3 2-1 7 3 2-3 3 7 6v3l-2 1 6 12 2-3-2 5 5-6v5l2 2 2 1 3-2 4 2 3 5 5 3-7 7 2 1 10-4 2 1 5 14 2 2-2 1 3 3 10 2 3 5 3 12-1 6 1-1 6 6v5l-2 1 2 4-3 4-1 11 3 2v4l3 3-5 3 12 5-6 11 1 1-3 1-1 3 4 3 3 5v6h3l-1 2h-2l-2 4-5 2 1 6h2l-1 1 4 3 3-1 2 2 2-2-2-6 2-1 2 2h3l3-1v-2h7l2 6h5l3-4 5 1 8-9 2 1 3 9 7 5h4l2 3-1 4h-2l-6 8h7v11l-10 6-5 5v3l3 2-1 13 5 7 11 5 3 6-1 8 4 11-2 1v2l3 1 3 9h2l1 3h2v3h-4l1 3-2 1 6 9v3l2 1-2 6 1 4-3 2-1 3-4 2-2 4h3l1 4 2-1v5h2v3h6l4 3 2-5 4-1 1-2-2-1 2-2 5 1 3 4 9 3 5-4 3 2v2l-2 1v4l2 2h9l8 3 4-1v-2l1 2h3l3-8 9-4 3-3-1-3 6-5 7-1 4 6 3-1 4-5 2-7-1-3 3-5 1-8 6-2v-3l5 2 8-2 5 1 2 1v5l-1 3-3 1 1 8 8 1v4l-3 4h6l3 5-1 3 2 3v4l-2 1v3l-3 1 4 3 1 5h2l5 6-2 2 8 6-1 3-2-1 1 4 4-1 4 3 1-2 3 1 1-2-2-1 2-2 2 2h3l-1 1 7-2 7 1-1-4 4-4v-3l5-1 1-2 3 4 1-1 2 5 5 1 8-9v-2h6v-5l6-2 3 1 4-2 4 2 5-4 2 1-1 5 3 4h8v-3l3 2 1-1 2 4v7l5 4 10 14-2 2h-4l3 4-3 4 5 6v2l6 6 6 1 10-4 5-17-4-2v-2l4-6-1-4 2-3 16-8 1-12 5-9v-3l-3-3-1-5h-3l-5-9v-3l9-10 4-12 10-7 2-3 1-9 4 3 2-3 5 4 13-22 6-7 6 2 8 11h9l7 4h8l-4 4 3 1 2-5h5l3-8-1-3-6-3-1-6-15 4-15-12 4-6 3-11 7-16 7-6 2 3 4 19 2 2 20-2 7-6 2-10 3-5h2l1 2 5-1 1-4 3-2 2-8 8-8 2-7 5-6 7-1 7 3 3 10 8-2 2-4 3-2-1-3 5-11-1 1-1-3-5 2v-2l4-4v-3l6-3-1-7-4-1 2-6-6-10-1-8-9-5-5-13-3-2 19-5 6-4 2-4 3-18-3-12-5-1 1-1 17 4 3-5-6-16-5-3-1-12-2-3-8-3-1-4 2-9-8-5-2-6 20 10 6-3 3-6 2 12h6l9 5 4-4h3l2 4-2 2 1 1h5l1 4h5l1-5 3-2-3-2 3-3v-10l-9-5 2-3h4v-10l4-4h2l-1-3-3-2h-7l3-10-5-4 1-6 4-5 3-1 3-7v-4l-3-3-2-6 6-8-2-4 2-6-6-9-10-3-3 3-4 1-7-5 19-20 12-3 8-13 17-11v-5l-4-2-4 1-3 3h-13l-1-6-6-7-3 1-6 6h-3l-22-15h-11l-4-3-9-13h-3l-2-2-6-14-17-24-19-17-4-7-8-5-9-2h-10l-24-23-6-10 17-8v-2l7-5 8-2 4-7h3v-10l-7-7-3-6h-3v2l-2-1-3 2-4-2h-5l-1-1 3-9-3-2 1-2-2-1-3-1-7 2 1 2-4 2-1 3-1-3-4-2-3 3-1-2 6-9-2-3h-3v-3l2-1-2-13 1-1-2-9h-4l-1-3h-2v3h-10v2l-7 3-6-3-10 2v4l-4 3-4-2h-5l-2 4 2 1 3 6v8h-2l1 2-1 1-3-3-4 5-1-1v4l-2-2h-10l-5 4-11 17-3-2-2-7-4-4 1-5-3-3 2-3-4-4 2-3-1-4-3-1v5l-8 2-2 3-2-6 3-9-12 4-10 1-21-3-15-14-9-5-10-16-2-9-3-3v-2l-8 2-2-2-7-1v3l-3 3-4-2 1-2-3-3-12 3-2 3-4-4-3 1-7 8v3l4 2-3 5 1 13-9 9-1 10-3 2-1 11 3 3v5l-4 1-5 11-3 1-3-2-2 2v14l-6 10-3 3h-4l-3-8h-3l-6 3-6 10h-12l-1 3 4 5v2l-5 5 1 4 4 1 2 3 10-5 2 6-2 4 1 9 3 1v6h2l1 5 5 1 2 2-5 4-5 1-1-3-3-2-5 2-4 5h-6l-2 10-2 1v-3l-6 2-7-3-8-1-3-3-5 4-6-1-8-5v-3h-5l-1-2-10 8-4 1v7l2 6-1 1 2 1 2 6 4 1 1 2-12 7h-3l-1 3 6 2 3-1-1 7-3 1-1 2 2 8h2l2 3-2 2 3 2-3 4 2 6-1 9-4-1-1 2h-5l1 8-12 12-2-2-2 1-1 3 3 2-5 2-1 5 3 6-1 4-5 7h-3l-5 8-6 6-4-3-8 3-7 10-7 4v11l-5 3-4-1-3 2-3-2h-6l-4 7zm712-123v-2h8l-1-6-7 1-3-2h-9l-1-2-5 1-8-9-3-1-9 3-9-3-8-5-3 3 10 20-3 3 7 8 2 6 2 1 7-4h6l2 5 9-1 13 5 7 6 6-2 2 1 4-8-1-6 2-1-7-6-3-5h-4zm67-159 3 1-4-3zm-86 133-1 4 1 5 2 2 5-5-1-1 4-2v-2l2-1-7-1v-2l-2 1zm10 102 7 5 1-2 5 2 1-2h-4l-6-3v-2l-4-1zm40-218 3 1v3l-3 5 2 1 1-2 1 2 7-2 1 1 1-2 2 2 1-2h5l-3-2 2-1-1-1-8 3-4-5-6-2zm-48 86-3 3-4-1-6 4h-7l1 2 16 10h9l2 3h4v-6l2-4-3-3 5-3h-3l-2-4 1-1h-7l-2-4-1 2zm28 17-7 1 1 4h2l1-2h9l3-4h3v3h2l1 3h2v-2l4-3-4-2v-3h-9l-8 2zm-53 225-2 5h4l1-2 3 1 3-4h-5l2-5-4-2-1 5 2 1zm118-352-1 1 4 2 1-1 1-2-4-2zm-150 444 3 2v-3l8-5h-3l-3 3h-5l1 3zm170-431v1zm-188 440v2l3-2 5 2 3-4-4 2-4-3-1 3zm106-260-1 3 6 6 3 1v9l2 2 5 1v-4l-3-1 1-3 3-1v-2h2l1-5-5-2h4l-2-4 1-2-3-1-2 2-5-3-3 1-1-2zm18-100 2-1-3-3 1-3-5-3-6-1 2-2-2-1-3 3-7-2-2 1-3-2-2 1 1 12 6 2 6-1 1-2 10 2zm-36 325h2zm-9-114 4-3v-2h3v-2l-4 1-2 3-2-1zm-145 267 2-2zm97-121 4-3h-5zm-15-14 4-2 2-5-2-2-2 2v4zm89-366h-2l5 3v-5l-1 1zm22 20 7 2-4-4-1 2zm-138 426-1 2 2-1zm143-385 1 2 4 1v-2l-2-1zm-38 81h-6l-2 2 1 3h2l2 4 6 5 5 2 3-2-3-3 1-3-4-1 4-1 1-3-7-3zm7-138 2 2 1-1zm-16 181v2l2-1zm-227 413 1 1 2-4-1-1-2 2zm315-530 1 2 1-5-1 1zm-50 35 1 2-1-4zm-43 46 1 2 1-3h-3zm-73 153 6 6 3-1-1-8h-8zm-107 301-2 1 1 1 5-3-2-1zm179-380 2 1v-2zm-29-34v4l2-2v-3zm43 153 1 2v-2zm48-279 1-2h-3zm-106-117 3 7v8l7 10 13 10 12 3v-4h-4l-6-4-1-3-12-5-3-5v-9l-4-11zm126 121 2 1v2h2l-1-5h-2zm-66-4 2-1-2-1zm-70 365 4-1 2-4-4-1v-2h-2l-3 3h2l-1 5zm-38 40 2 1-1-3-1 1zm-103 75v3l2-4zm195-360 5-9-5-8-7-4-1-5-4-4-2 2h-4l-3 2-4 12 5 3 4-3 2 1 5 6 1 5h6zm9-7v2h2zm42-223 1-2-3-1v3zm-19 30-1 1 4 2zm-51 1-5 1 3 4 3-2-1-1 4-1zm51 159 2 3 1-3zm-24 38h3zm-45 90 4 2-2-2zm-104 238v-4l-2 2h2l-1 3zm191-388-2 1 2 3zm20-147v-2l3-1v-2h-2l-3-3-2 6zm-71 88v2l2 1 3-1-4-3zm45-83h1zm-81 241 2 1-1-1zm-155 355 1 2 2-1-1-2zm0-2h4l-2-1zm135-135 3-2 1 1 5-5-6 1-3 3zm61-375 7 1-1-3h-3l-1 2zm-42 151h5l-2-2zm-52 85-1-3zm85-110-2 3 3-3zm-84 111 3 1zm67-228-1-5h-3l-4 3 2 6 5-4zm60 44 1-6h3l1-2-3-2 1-2h-5l-3 10 2 1zm-92-26-7-2 1 7-3 5 1 8-2 3 3 3v2l5 1 10-6-1-13h-4l-2-6h-2zm-142 550v-2l-4-4-4-1 1 2-3-1 1 2h-2l3 4v-3l5 1zm222-578h2zm-90 34h4l-2-3-4-1zm22 184 3 5 2-1-2-4 1-1zm67-135 2 1-2-3zm-52 15-5 3 1 6h3l2-8zm-206 429 1 1v-2zm57 16 1 2 1-2zm236-632 2 1zm-67 8 1-2-3 1zm104 92h2l-1-2zm-35-104 3 2 1-1-2-2zm-106 116-6 4 1 3 3 1-1 3h4l2-4 1-4-3-2zm-156 484-2 3 4-1-1-3zm159-520h4l4-4-4-8-7 3-4 5h2zm131 20h2v2l1-1-2-4h-2zm-183 237 1 1zm1 143h2zm100-299-1 1h3zm-54 161 2 1 2-2h-4zm88-345-1 2 5-1zm-103 472h2l-1-1zm29-168v2l1-2zm-71-288 3-1h-3zm102 132-2-2-5 3 8 4 3-1zm-9-50v2l4-2-1-1zm-48 21-1 3 2-1zm65 79 2 2v-2zm-40 69h3zm-156 342 2 1zm191-408 4 2v-2l-2-1zm-249 423 3 3-2-3zm266-423 4-1v-3h-6l-4-2 1-4-3-2-6 1v2l7 8h4zm-194 396h-2zm169-576 3-1h-2zm20 13-1 2 4-1v-2l-2-1zm-114 479 2 1v-2zm63-230 1-3-3 2zm142-168 1 3 4-1-2-3h-3zm-104 71h-3l5 3v-2zm-248 447-1 2 2-3zm240-482-3 2 2 2h5l-1-4zm56-2-2 1 1 1zm-173 396 2-3 3-1v-2l-5 3zm176-488 1 2v-2zm-205 485 5-3v-2l-2 3h-3zm180-524-1 1 3-2zm-12 69-2 3v4l7-3h4l-3-4zm3 86 2 2h5l1-2h3l1-4-9-1-3 2zm66-201 3-2-3-1-1 2zm25 25 2-1v-6l-7 3v2h4zm-147 125-2 1 2 3 1-2zm-140 518 2-2h-2zm-20-67 10-5-3-4-11-1-6 4-1 3 2 2 6-1zm131-139-2 2 3-2zm46-289 1 4 3-2-3-4zm14 6h-3zm-30-22h2l-1-3-2 2zm-197 490-2 2 2-1zm272-632-1-4zm-39 281-1 1h2zm-90 61h2l-1-1zm109-320 2-1v-2l-3 3zm-200 558 10-5-8-2-4 4zm178-381 3-1h-3zm53-33h-2l1 2 2-1zm-238 404 4-2-3 1zm308-561-1-6-3-1-2 2 4 3zm-151 168 3-1-2-2-2 1zm23-17 1 1v-2zm-7 8-1-2h-2v3h3zm24 48h1zm-3-51 11 6v-2l-6-4-8-3zm-19-1 3 1 1-3-3-1zm-25-21-1 2 2 1v-3zm11 23 1 5 4-5-1-2h-2zm-180 411 9-4-3-2-6 3zm221-392 4-1-5-1zm-11 21-1 2h2v-2zm-46 276v-2zm12-304 1 1 1-2zm51-7 3 2 2-2-1-2-4 1zm-14 50 1 2h2v-2zm-31-61 2 1-1-2zm-175 530 2 1-3-2zm6-9v2h2zm216-502 3 1-1-2zm-219 498h-2l2 2z"/>
</svg>
